<svg width="62" height="49" viewBox="0 0 62 49" fill="none" xmlns="http://www.w3.org/2000/svg">
<ellipse cx="31" cy="43.5225" rx="31" ry="5" fill="#E7E7E7"/>
<g filter="url(#filter0_d_2743_140651)">
<rect x="11" y="1.52246" width="37" height="42" fill="#B4C0CA"/>
</g>
<g filter="url(#filter1_d_2743_140651)">
<path d="M16.7998 43.5225H50.7998V13.9225L43.5141 6.52246H16.7998V43.5225Z" fill="white"/>
</g>
<rect x="20.7998" y="15.5225" width="25" height="3" rx="1.5" fill="#E7E7E7"/>
<rect x="20.7998" y="21.5225" width="25" height="3" rx="1.5" fill="#E7E7E7"/>
<path d="M42.1007 40.7887L45.4007 37.4887L48.7007 40.7887L49.6667 39.8228L46.3667 36.5228L49.6667 33.2228L48.7007 32.2568L45.4007 35.5568L42.1007 32.2568L41.1348 33.2228L44.4348 36.5228L41.1348 39.8228L42.1007 40.7887ZM45.4023 45.2311C44.1978 45.2311 43.0657 45.0026 42.0058 44.5455C40.946 44.0883 40.0242 43.468 39.2403 42.6844C38.4564 41.9008 37.8357 40.9793 37.3783 39.92C36.921 38.8606 36.6924 37.7287 36.6924 36.5244C36.6924 35.3199 36.9209 34.1877 37.378 33.1279C37.8352 32.0681 38.4555 31.1462 39.2391 30.3623C40.0227 29.5784 40.9442 28.9578 42.0036 28.5003C43.0629 28.0431 44.1948 27.8145 45.3991 27.8145C46.6036 27.8145 47.7358 28.043 48.7956 28.5001C49.8554 28.9572 50.7773 29.5776 51.5612 30.3612C52.3451 31.1448 52.9657 32.0663 53.4232 33.1256C53.8804 34.185 54.1091 35.3168 54.1091 36.5212C54.1091 37.7257 53.8805 38.8578 53.4234 39.9177C52.9663 40.9775 52.3459 41.8993 51.5623 42.6832C50.7787 43.4671 49.8572 44.0878 48.7979 44.5452C47.7385 45.0025 46.6067 45.2311 45.4023 45.2311Z" fill="#C4C4C4"/>
<defs>
<filter id="filter0_d_2743_140651" x="10" y="0.522461" width="41" height="46" filterUnits="userSpaceOnUse" color-interpolation-filters="sRGB">
<feFlood flood-opacity="0" result="BackgroundImageFix"/>
<feColorMatrix in="SourceAlpha" type="matrix" values="0 0 0 0 0 0 0 0 0 0 0 0 0 0 0 0 0 0 127 0" result="hardAlpha"/>
<feOffset dx="1" dy="1"/>
<feGaussianBlur stdDeviation="1"/>
<feComposite in2="hardAlpha" operator="out"/>
<feColorMatrix type="matrix" values="0 0 0 0 0 0 0 0 0 0 0 0 0 0 0 0 0 0 0.08 0"/>
<feBlend mode="normal" in2="BackgroundImageFix" result="effect1_dropShadow_2743_140651"/>
<feBlend mode="normal" in="SourceGraphic" in2="effect1_dropShadow_2743_140651" result="shape"/>
</filter>
<filter id="filter1_d_2743_140651" x="15.7998" y="5.52246" width="38" height="41" filterUnits="userSpaceOnUse" color-interpolation-filters="sRGB">
<feFlood flood-opacity="0" result="BackgroundImageFix"/>
<feColorMatrix in="SourceAlpha" type="matrix" values="0 0 0 0 0 0 0 0 0 0 0 0 0 0 0 0 0 0 127 0" result="hardAlpha"/>
<feOffset dx="1" dy="1"/>
<feGaussianBlur stdDeviation="1"/>
<feComposite in2="hardAlpha" operator="out"/>
<feColorMatrix type="matrix" values="0 0 0 0 0 0 0 0 0 0 0 0 0 0 0 0 0 0 0.08 0"/>
<feBlend mode="normal" in2="BackgroundImageFix" result="effect1_dropShadow_2743_140651"/>
<feBlend mode="normal" in="SourceGraphic" in2="effect1_dropShadow_2743_140651" result="shape"/>
</filter>
</defs>
</svg>
