<svg width="24" height="25" viewBox="0 0 24 25" xmlns="http://www.w3.org/2000/svg">
<path d="M4.50003 19.7733V18.2733H6.30773V10.8117C6.30773 9.46688 6.72278 8.27778 7.5529 7.24445C8.38303 6.21111 9.44874 5.55022 10.75 5.26177V4.6387C10.75 4.29148 10.8714 3.99635 11.1143 3.7533C11.3571 3.51023 11.652 3.3887 11.9989 3.3887C12.3458 3.3887 12.641 3.51023 12.8846 3.7533C13.1282 3.99635 13.25 4.29148 13.25 4.6387V5.26177C14.5513 5.55022 15.617 6.21111 16.4471 7.24445C17.2772 8.27778 17.6923 9.46688 17.6923 10.8117V18.2733H19.5V19.7733H4.50003ZM11.9983 22.5809C11.5007 22.5809 11.0753 22.4039 10.7221 22.0499C10.3689 21.6959 10.1923 21.2704 10.1923 20.7733H13.8077C13.8077 21.272 13.6305 21.6979 13.2762 22.0511C12.9218 22.4044 12.4959 22.5809 11.9983 22.5809ZM7.80768 18.2733H16.1923V10.8117C16.1923 9.65405 15.783 8.66591 14.9644 7.84732C14.1458 7.02872 13.1577 6.61942 12 6.61942C10.8423 6.61942 9.85416 7.02872 9.03558 7.84732C8.21698 8.66591 7.80768 9.65405 7.80768 10.8117V18.2733Z" fill="current"/>
</svg>
