<svg width="24" height="25" viewBox="0 0 24 25" xmlns="http://www.w3.org/2000/svg">
<path d="M6.38475 17.0703H11.1155V15.5703H6.38475V17.0703ZM16.1155 17.0703H17.6152V15.5703H16.1155V17.0703ZM6.38475 13.0703H11.1155V11.5703H6.38475V13.0703ZM16.1155 13.0703H17.6152V7.57031H16.1155V13.0703ZM6.38475 9.07031H11.1155V7.57031H6.38475V9.07031ZM4.30775 20.8203C3.80258 20.8203 3.375 20.6453 3.025 20.2953C2.675 19.9453 2.5 19.5177 2.5 19.0126V5.62806C2.5 5.1229 2.675 4.69531 3.025 4.34531C3.375 3.99531 3.80258 3.82031 4.30775 3.82031H19.6923C20.1974 3.82031 20.625 3.99531 20.975 4.34531C21.325 4.69531 21.5 5.1229 21.5 5.62806V19.0126C21.5 19.5177 21.325 19.9453 20.975 20.2953C20.625 20.6453 20.1974 20.8203 19.6923 20.8203H4.30775ZM4.30775 19.3203H19.6923C19.7693 19.3203 19.8398 19.2882 19.9038 19.2241C19.9679 19.1601 20 19.0896 20 19.0126V5.62806C20 5.55106 19.9679 5.48056 19.9038 5.41656C19.8398 5.3524 19.7693 5.32031 19.6923 5.32031H4.30775C4.23075 5.32031 4.16025 5.3524 4.09625 5.41656C4.03208 5.48056 4 5.55106 4 5.62806V19.0126C4 19.0896 4.03208 19.1601 4.09625 19.2241C4.16025 19.2882 4.23075 19.3203 4.30775 19.3203Z" fill="current"/>
</svg>
