<svg width="24" height="25" viewBox="0 0 24 25" xmlns="http://www.w3.org/2000/svg">
<path d="M12.0018 16.0204C13.135 16.0204 14.0974 15.6238 14.8891 14.8306C15.6808 14.0374 16.0766 13.0743 16.0766 11.9411C16.0766 10.8079 15.68 9.84553 14.8868 9.05386C14.0937 8.26219 13.1305 7.86636 11.9973 7.86636C10.8642 7.86636 9.90175 8.26294 9.11009 9.05611C8.31842 9.84928 7.92259 10.8124 7.92259 11.9456C7.92259 13.0788 8.31917 14.0412 9.11234 14.8329C9.9055 15.6245 10.8687 16.0204 12.0018 16.0204ZM11.9996 14.6434C11.2496 14.6434 10.6121 14.3809 10.0871 13.8559C9.56209 13.3309 9.29959 12.6934 9.29959 11.9434C9.29959 11.1934 9.56209 10.5559 10.0871 10.0309C10.6121 9.50586 11.2496 9.24336 11.9996 9.24336C12.7496 9.24336 13.3871 9.50586 13.9121 10.0309C14.4371 10.5559 14.6996 11.1934 14.6996 11.9434C14.6996 12.6934 14.4371 13.3309 13.9121 13.8559C13.3871 14.3809 12.7496 14.6434 11.9996 14.6434ZM12.0008 18.9434C9.70134 18.9434 7.60609 18.309 5.71509 17.0404C3.82409 15.7719 2.43175 14.0729 1.53809 11.9434C2.43175 9.81386 3.82359 8.11486 5.71359 6.84636C7.60375 5.57769 9.69867 4.94336 11.9983 4.94336C14.2978 4.94336 16.3931 5.57769 18.2841 6.84636C20.1751 8.11486 21.5674 9.81386 22.4611 11.9434C21.5674 14.0729 20.1756 15.7719 18.2856 17.0404C16.3954 18.309 14.3005 18.9434 12.0008 18.9434ZM11.9996 17.4434C13.8829 17.4434 15.6121 16.9475 17.1871 15.9559C18.7621 14.9642 19.9663 13.6267 20.7996 11.9434C19.9663 10.26 18.7621 8.92253 17.1871 7.93086C15.6121 6.93919 13.8829 6.44336 11.9996 6.44336C10.1163 6.44336 8.38709 6.93919 6.81209 7.93086C5.23709 8.92253 4.03292 10.26 3.19959 11.9434C4.03292 13.6267 5.23709 14.9642 6.81209 15.9559C8.38709 16.9475 10.1163 17.4434 11.9996 17.4434Z" fill="current"/>
</svg>
