<svg width="24" height="25" viewBox="0 0 24 25" xmlns="http://www.w3.org/2000/svg">
<path d="M20 9.66211V6.96986C20 6.89286 19.9679 6.82236 19.9038 6.75836C19.8398 6.69419 19.7693 6.66211 19.6923 6.66211H17V5.16211H19.6923C20.1974 5.16211 20.625 5.33711 20.975 5.68711C21.325 6.03711 21.5 6.46469 21.5 6.96986V9.66211H20ZM2.5 9.66211V6.96986C2.5 6.46469 2.675 6.03711 3.025 5.68711C3.375 5.33711 3.80258 5.16211 4.30775 5.16211H7V6.66211H4.30775C4.23075 6.66211 4.16025 6.69419 4.09625 6.75836C4.03208 6.82236 4 6.89286 4 6.96986V9.66211H2.5ZM17 20.1621V18.6621H19.6923C19.7693 18.6621 19.8398 18.63 19.9038 18.5659C19.9679 18.5019 20 18.4314 20 18.3544V15.6621H21.5V18.3544C21.5 18.8595 21.325 19.2871 20.975 19.6371C20.625 19.9871 20.1974 20.1621 19.6923 20.1621H17ZM4.30775 20.1621C3.80258 20.1621 3.375 19.9871 3.025 19.6371C2.675 19.2871 2.5 18.8595 2.5 18.3544V15.6621H4V18.3544C4 18.4314 4.03208 18.5019 4.09625 18.5659C4.16025 18.63 4.23075 18.6621 4.30775 18.6621H7V20.1621H4.30775ZM6.423 16.2391V9.08511H17.577V16.2391H6.423ZM7.923 14.7391H16.077V10.5851H7.923V14.7391Z"/>
</svg>
