<svg width="16" height="17" viewBox="0 0 16 17" fill="none" xmlns="http://www.w3.org/2000/svg">
<g clip-path="url(#clip0_1445_89522)">
<path d="M15.04 8.98291C15.04 8.46291 14.9933 7.96291 14.9067 7.48291H8V10.3196H11.9467C11.7767 11.2362 11.26 12.0129 10.4833 12.5329V14.3729H12.8533C14.24 13.0962 15.04 11.2162 15.04 8.98291Z" fill="#4285F4"/>
<path d="M8.00011 16.15C9.98011 16.15 11.6401 15.4933 12.8534 14.3733L10.4834 12.5333C9.82678 12.9733 8.98678 13.2333 8.00011 13.2333C6.09011 13.2333 4.47344 11.9433 3.89678 10.21H1.44678V12.11C2.65344 14.5066 5.13344 16.15 8.00011 16.15Z" fill="#34A853"/>
<path d="M3.89675 10.2096C3.75008 9.76962 3.66675 9.29962 3.66675 8.81628C3.66675 8.33295 3.75008 7.86295 3.89675 7.42295V5.52295H1.44675C0.933415 6.54485 0.666296 7.67269 0.666749 8.81628C0.666749 9.99962 0.950082 11.1196 1.44675 12.1096L3.89675 10.2096Z" fill="#FBBC05"/>
<path d="M8.00011 4.39958C9.07678 4.39958 10.0434 4.76958 10.8034 5.49624L12.9068 3.39291C11.6368 2.20958 9.97678 1.48291 8.00011 1.48291C5.13344 1.48291 2.65344 3.12624 1.44678 5.52291L3.89678 7.42291C4.47344 5.68958 6.09011 4.39958 8.00011 4.39958Z" fill="#EA4335"/>
</g>
<defs>
<clipPath id="clip0_1445_89522">
<rect width="16" height="16" fill="white" transform="translate(0 0.816406)"/>
</clipPath>
</defs>
</svg>
