<svg width="100" height="71" viewBox="0 0 100 71" fill="none" xmlns="http://www.w3.org/2000/svg">
<ellipse cx="52" cy="65.1172" rx="31" ry="5" fill="#E7E7E7"/>
<rect x="34.4004" y="19.9336" width="32.9999" height="32.9999" fill="#E7E7E7"/>
<g filter="url(#filter0_d_2516_120304)">
<path d="M38.8008 57.3339H69.6007V30.934L63.0007 24.334H38.8008V57.3339Z" fill="white"/>
</g>
<rect x="43.2012" y="32.1348" width="22" height="2.2" rx="1.1" fill="#E7E7E7"/>
<rect x="43.2012" y="37.6328" width="22" height="2.2" rx="1.1" fill="#E7E7E7"/>
<rect x="30" y="41.918" width="43.9999" height="24.2" rx="2" fill="#B4C0CA"/>
<path fill-rule="evenodd" clip-rule="evenodd" d="M69.6992 66.1199H71.9994C73.104 66.1199 73.9994 65.2244 73.9994 64.1199V43.9199C73.9994 42.8154 73.104 41.9199 71.9994 41.9199H69.6992C70.2515 41.9199 70.6992 42.3676 70.6992 42.9199V65.1199C70.6992 65.6722 70.2515 66.1199 69.6992 66.1199Z" fill="#A6B3BE"/>
<path d="M30 37.418C30 36.3134 30.8954 35.418 32 35.418H45.8641C47.1426 35.418 48.2806 36.2282 48.6989 37.4362L52 46.9679H30V37.418Z" fill="#AEBECD"/>
<path fill-rule="evenodd" clip-rule="evenodd" d="M50.4129 41.916L48.8608 37.4343C48.4424 36.2262 47.3044 35.416 46.026 35.416H43.126C44.4044 35.416 45.5424 36.2262 45.9608 37.4343L47.5129 41.916H50.4129Z" fill="#A6B3BE"/>
<path d="M79.292 25.4028V10.0663C79.292 9.60321 79.4524 9.21126 79.7732 8.89043C80.0941 8.5696 80.486 8.40918 80.9491 8.40918H95.0516C95.5146 8.40918 95.9066 8.5696 96.2274 8.89043C96.5482 9.21126 96.7087 9.60321 96.7087 10.0663V20.5021C96.7087 20.9651 96.5482 21.3571 96.2274 21.6779C95.9066 21.9988 95.5146 22.1592 95.0516 22.1592H82.5356L79.292 25.4028ZM84.3337 16.095C84.5581 16.095 84.7494 16.016 84.9075 15.858C85.0655 15.6999 85.1445 15.5086 85.1445 15.2842C85.1445 15.0597 85.0655 14.8685 84.9075 14.7103C84.7494 14.5524 84.5581 14.4734 84.3337 14.4734C84.1092 14.4734 83.918 14.5524 83.7598 14.7103C83.6019 14.8685 83.5229 15.0597 83.5229 15.2842C83.5229 15.5086 83.6019 15.6999 83.7598 15.858C83.918 16.016 84.1092 16.095 84.3337 16.095ZM88.0003 16.095C88.2248 16.095 88.416 16.016 88.5742 15.858C88.7321 15.6999 88.8111 15.5086 88.8111 15.2842C88.8111 15.0597 88.7321 14.8685 88.5742 14.7103C88.416 14.5524 88.2248 14.4734 88.0003 14.4734C87.7759 14.4734 87.5846 14.5524 87.4265 14.7103C87.2685 14.8685 87.1895 15.0597 87.1895 15.2842C87.1895 15.5086 87.2685 15.6999 87.4265 15.858C87.5846 16.016 87.7759 16.095 88.0003 16.095ZM91.667 16.095C91.8914 16.095 92.0827 16.016 92.2408 15.858C92.3988 15.6999 92.4778 15.5086 92.4778 15.2842C92.4778 15.0597 92.3988 14.8685 92.2408 14.7103C92.0827 14.5524 91.8914 14.4734 91.667 14.4734C91.4426 14.4734 91.2513 14.5524 91.0932 14.7103C90.9352 14.8685 90.8562 15.0597 90.8562 15.2842C90.8562 15.5086 90.9352 15.6999 91.0932 15.858C91.2513 16.016 91.4426 16.095 91.667 16.095Z" fill="#C4C4C4"/>
<defs>
<filter id="filter0_d_2516_120304" x="37.8008" y="23.334" width="34.7998" height="37" filterUnits="userSpaceOnUse" color-interpolation-filters="sRGB">
<feFlood flood-opacity="0" result="BackgroundImageFix"/>
<feColorMatrix in="SourceAlpha" type="matrix" values="0 0 0 0 0 0 0 0 0 0 0 0 0 0 0 0 0 0 127 0" result="hardAlpha"/>
<feOffset dx="1" dy="1"/>
<feGaussianBlur stdDeviation="1"/>
<feComposite in2="hardAlpha" operator="out"/>
<feColorMatrix type="matrix" values="0 0 0 0 0 0 0 0 0 0 0 0 0 0 0 0 0 0 0.08 0"/>
<feBlend mode="normal" in2="BackgroundImageFix" result="effect1_dropShadow_2516_120304"/>
<feBlend mode="normal" in="SourceGraphic" in2="effect1_dropShadow_2516_120304" result="shape"/>
</filter>
</defs>
</svg>
