<svg width="20" height="21" viewBox="0 0 20 21" xmlns="http://www.w3.org/2000/svg">
<path d="M12.5979 10.71L9.79018 7.90229L13.9008 3.78375C14.0248 3.65972 14.1634 3.56889 14.3166 3.51125C14.47 3.45361 14.6311 3.42479 14.8 3.42479C14.9633 3.42479 15.1238 3.45576 15.2814 3.51771C15.4391 3.57965 15.5782 3.67257 15.6989 3.79646L16.7164 4.82688C16.8405 4.94771 16.9313 5.08687 16.9889 5.24437C17.0466 5.40201 17.0754 5.5609 17.0754 5.72104C17.0754 5.88451 17.0466 6.04292 16.9889 6.19625C16.9313 6.34958 16.8405 6.48819 16.7164 6.61208L12.5979 10.71ZM16.4841 18.7404L10.5323 12.8092L5.73727 17.5833H2.91685V14.7756L7.70372 9.98083L1.75977 4.01604L2.65081 3.125L17.3752 17.8494L16.4841 18.7404ZM14.6268 6.91188L15.8335 5.71312L14.7871 4.66667L13.5883 5.87333L14.6268 6.91188Z" fill="current"/>
</svg>
