<svg width="16" height="16" viewBox="0 0 16 16" xmlns="http://www.w3.org/2000/svg">
<path d="M8 14.3333C7.13162 14.3333 6.31218 14.1669 5.54168 13.834C4.77117 13.5011 4.09916 13.0479 3.52565 12.4744C2.95215 11.9008 2.49895 11.2288 2.16605 10.4583C1.83314 9.68782 1.66668 8.86838 1.66668 8C1.66668 7.12479 1.83314 6.30364 2.16605 5.53655C2.49895 4.76946 2.95215 4.09916 3.52565 3.52565C4.09916 2.95215 4.77117 2.49895 5.54168 2.16605C6.31218 1.83314 7.13162 1.66668 8 1.66668C8.87521 1.66668 9.69636 1.83314 10.4635 2.16605C11.2305 2.49895 11.9008 2.95215 12.4744 3.52565C13.0479 4.09916 13.5011 4.76946 13.834 5.53655C14.1669 6.30364 14.3333 7.12479 14.3333 8C14.3333 8.86838 14.1669 9.68782 13.834 10.4583C13.5011 11.2288 13.0479 11.9008 12.4744 12.4744C11.9008 13.0479 11.2305 13.5011 10.4635 13.834C9.69636 14.1669 8.87521 14.3333 8 14.3333ZM8 13.3192C8.34018 12.8679 8.62651 12.4128 8.85898 11.9538C9.09146 11.4949 9.28078 10.9931 9.42693 10.4487H6.57307C6.72777 11.0102 6.91922 11.5205 7.14743 11.9795C7.37563 12.4385 7.65982 12.885 8 13.3192ZM6.709 13.1359C6.45344 12.7692 6.22396 12.3524 6.02053 11.8853C5.81711 11.4181 5.65899 10.9393 5.54617 10.4487H3.2846C3.63674 11.141 4.10897 11.7227 4.70128 12.1936C5.29361 12.6645 5.96284 12.9786 6.709 13.1359ZM9.291 13.1359C10.0372 12.9786 10.7064 12.6645 11.2987 12.1936C11.891 11.7227 12.3633 11.141 12.7154 10.4487H10.4538C10.3196 10.9436 10.1508 11.4246 9.94742 11.8917C9.74399 12.3588 9.52519 12.7735 9.291 13.1359ZM2.86538 9.44873H5.3436C5.30172 9.20087 5.27138 8.95792 5.25258 8.71988C5.23378 8.48184 5.22438 8.24188 5.22438 8C5.22438 7.75812 5.23378 7.51816 5.25258 7.28012C5.27138 7.04208 5.30172 6.79913 5.3436 6.55127H2.86538C2.80128 6.77777 2.75214 7.01324 2.71795 7.25768C2.68376 7.50213 2.66667 7.74957 2.66667 8C2.66667 8.25043 2.68376 8.49787 2.71795 8.74232C2.75214 8.98676 2.80128 9.22223 2.86538 9.44873ZM6.34358 9.44873H9.65642C9.6983 9.20087 9.72864 8.96005 9.74745 8.72628C9.76625 8.49253 9.77565 8.25043 9.77565 8C9.77565 7.74957 9.76625 7.50747 9.74745 7.27372C9.72864 7.03995 9.6983 6.79913 9.65642 6.55127H6.34358C6.30171 6.79913 6.27136 7.03995 6.25255 7.27372C6.23375 7.50747 6.22435 7.74957 6.22435 8C6.22435 8.25043 6.23375 8.49253 6.25255 8.72628C6.27136 8.96005 6.30171 9.20087 6.34358 9.44873ZM10.6564 9.44873H13.1346C13.1987 9.22223 13.2479 8.98676 13.2821 8.74232C13.3162 8.49787 13.3333 8.25043 13.3333 8C13.3333 7.74957 13.3162 7.50213 13.2821 7.25768C13.2479 7.01324 13.1987 6.77777 13.1346 6.55127H10.6564C10.6983 6.79913 10.7286 7.04208 10.7474 7.28012C10.7662 7.51816 10.7756 7.75812 10.7756 8C10.7756 8.24188 10.7662 8.48184 10.7474 8.71988C10.7286 8.95792 10.6983 9.20087 10.6564 9.44873ZM10.4538 5.5513H12.7154C12.359 4.85043 11.89 4.2688 11.3083 3.8064C10.7267 3.34401 10.0543 3.02777 9.291 2.85768C9.54656 3.24572 9.77391 3.67008 9.97305 4.13077C10.1722 4.59146 10.3325 5.06497 10.4538 5.5513ZM6.57307 5.5513H9.42693C9.27223 4.99403 9.07757 4.48057 8.84295 4.0109C8.60834 3.54124 8.32736 3.09787 8 2.68077C7.67264 3.09787 7.39166 3.54124 7.15705 4.0109C6.92243 4.48057 6.72777 4.99403 6.57307 5.5513ZM3.2846 5.5513H5.54617C5.66753 5.06497 5.8278 4.59146 6.02695 4.13077C6.22609 3.67008 6.45344 3.24572 6.709 2.85768C5.94148 3.02777 5.26797 3.34508 4.68847 3.80962C4.10898 4.27415 3.64102 4.85471 3.2846 5.5513Z" />
</svg>
