<svg width="24" height="24" viewBox="0 0 24 24" fill="none" xmlns="http://www.w3.org/2000/svg">
<path d="M0 12C0 5.37258 5.37258 0 12 0C18.6274 0 24 5.37258 24 12C24 18.6274 18.6274 24 12 24C5.37258 24 0 18.6274 0 12Z" fill="#E8F1F4" fill-opacity="0.4"/>
<path d="M11.9918 16.2114C12.2059 16.2114 12.3868 16.1376 12.5344 15.9898C12.682 15.8419 12.7558 15.6609 12.7558 15.4466C12.7558 15.2325 12.6819 15.0516 12.534 14.904C12.3861 14.7565 12.2051 14.6827 11.991 14.6827C11.7769 14.6827 11.596 14.7567 11.4484 14.9046C11.3007 15.0524 11.2269 15.2334 11.2269 15.4476C11.2269 15.6617 11.3009 15.8426 11.4488 15.9902C11.5966 16.1377 11.7776 16.2114 11.9918 16.2114ZM11.4606 13.5259H12.5164C12.526 13.1568 12.5801 12.8618 12.6786 12.6411C12.7772 12.4204 13.0164 12.1279 13.3961 11.7636C13.726 11.4337 13.9786 11.1291 14.154 10.8497C14.3295 10.5704 14.4172 10.2406 14.4172 9.86025C14.4172 9.21463 14.1853 8.71031 13.7214 8.34731C13.2574 7.98444 12.7086 7.803 12.075 7.803C11.449 7.803 10.931 7.97006 10.521 8.30419C10.1109 8.63831 9.81831 9.03181 9.64331 9.48469L10.6067 9.87113C10.6981 9.62213 10.8543 9.37956 11.0754 9.14344C11.2966 8.90744 11.6249 8.78944 12.0606 8.78944C12.5038 8.78944 12.8314 8.91081 13.0434 9.15356C13.2556 9.39644 13.3616 9.6635 13.3616 9.95475C13.3616 10.2096 13.289 10.4428 13.1438 10.6543C12.9986 10.8658 12.8136 11.0701 12.5886 11.2673C12.0962 11.7115 11.7851 12.0659 11.6554 12.3304C11.5255 12.5948 11.4606 12.9933 11.4606 13.5259ZM12.0013 19.125C11.0158 19.125 10.0895 18.938 9.22237 18.564C8.35525 18.19 7.601 17.6824 6.95963 17.0413C6.31825 16.4002 5.81044 15.6462 5.43619 14.7795C5.06206 13.9128 4.875 12.9867 4.875 12.0013C4.875 11.0158 5.062 10.0895 5.436 9.22237C5.81 8.35525 6.31756 7.601 6.95869 6.95963C7.59981 6.31825 8.35375 5.81044 9.2205 5.43619C10.0873 5.06206 11.0133 4.875 11.9987 4.875C12.9842 4.875 13.9105 5.062 14.7776 5.436C15.6448 5.81 16.399 6.31756 17.0404 6.95869C17.6818 7.59981 18.1896 8.35375 18.5638 9.2205C18.9379 10.0873 19.125 11.0133 19.125 11.9987C19.125 12.9842 18.938 13.9105 18.564 14.7776C18.19 15.6448 17.6824 16.399 17.0413 17.0404C16.4002 17.6818 15.6462 18.1896 14.7795 18.5638C13.9128 18.9379 12.9867 19.125 12.0013 19.125ZM12 18C13.675 18 15.0938 17.4188 16.2563 16.2563C17.4188 15.0938 18 13.675 18 12C18 10.325 17.4188 8.90625 16.2563 7.74375C15.0938 6.58125 13.675 6 12 6C10.325 6 8.90625 6.58125 7.74375 7.74375C6.58125 8.90625 6 10.325 6 12C6 13.675 6.58125 15.0938 7.74375 16.2563C8.90625 17.4188 10.325 18 12 18Z" fill="current"/>
</svg>
