<svg width="24" height="25" viewBox="0 0 24 25"  xmlns="http://www.w3.org/2000/svg">
<path d="M10.5808 16.5487L17.3038 9.82567L16.25 8.77192L10.5808 14.4412L7.73075 11.5912L6.677 12.6449L10.5808 16.5487ZM12.0017 21.7949C10.6877 21.7949 9.45267 21.5456 8.2965 21.0469C7.14033 20.5483 6.13467 19.8715 5.2795 19.0167C4.42433 18.1618 3.74725 17.1566 3.24825 16.0009C2.74942 14.8453 2.5 13.6105 2.5 12.2967C2.5 10.9827 2.74933 9.74759 3.248 8.59142C3.74667 7.43526 4.42342 6.42959 5.27825 5.57442C6.13308 4.71926 7.13833 4.04217 8.294 3.54317C9.44967 3.04434 10.6844 2.79492 11.9983 2.79492C13.3123 2.79492 14.5473 3.04425 15.7035 3.54292C16.8597 4.04159 17.8653 4.71834 18.7205 5.57317C19.5757 6.42801 20.2528 7.43326 20.7518 8.58892C21.2506 9.74459 21.5 10.9793 21.5 12.2932C21.5 13.6072 21.2507 14.8423 20.752 15.9984C20.2533 17.1546 19.5766 18.1603 18.7218 19.0154C17.8669 19.8706 16.8617 20.5477 15.706 21.0467C14.5503 21.5455 13.3156 21.7949 12.0017 21.7949ZM12 20.2949C14.2333 20.2949 16.125 19.5199 17.675 17.9699C19.225 16.4199 20 14.5283 20 12.2949C20 10.0616 19.225 8.16992 17.675 6.61992C16.125 5.06992 14.2333 4.29492 12 4.29492C9.76667 4.29492 7.875 5.06992 6.325 6.61992C4.775 8.16992 4 10.0616 4 12.2949C4 14.5283 4.775 16.4199 6.325 17.9699C7.875 19.5199 9.76667 20.2949 12 20.2949Z" fill="current"/>
</svg>
