<svg width="39" height="39" viewBox="0 0 39 39" fill="none" xmlns="http://www.w3.org/2000/svg">
<path d="M26.375 14.9375H21.5834V13.6875H26.375V8.89585H27.625V13.6875H32.4166V14.9375H27.625V19.7291H26.375V14.9375Z" fill="current"/>
<path d="M6.41699 26.1363V25.1203C6.41699 24.5658 6.70651 24.1104 7.28553 23.754C7.8647 23.3978 8.61956 23.2196 9.55012 23.2196C9.70387 23.2196 9.85873 23.2244 10.0147 23.234C10.1707 23.2436 10.3278 23.2623 10.486 23.2901C10.3236 23.5498 10.2031 23.8193 10.1245 24.0986C10.046 24.378 10.0068 24.6646 10.0068 24.9584V26.1363H6.41699ZM11.417 26.1363V24.9905C11.417 24.6003 11.5265 24.2437 11.7455 23.9207C11.9646 23.5975 12.2803 23.3157 12.6926 23.0755C13.105 22.8351 13.5922 22.6548 14.1543 22.5346C14.7162 22.4144 15.3305 22.3542 15.9972 22.3542C16.6766 22.3542 17.2973 22.4144 17.8593 22.5346C18.4212 22.6548 18.9084 22.8351 19.3207 23.0755C19.7332 23.3157 20.0469 23.5975 20.2616 23.9207C20.4763 24.2437 20.5837 24.6003 20.5837 24.9905V26.1363H11.417ZM21.9939 26.1363V24.9609C21.9939 24.6474 21.9568 24.352 21.8826 24.0746C21.8083 23.7974 21.6969 23.5359 21.5485 23.2901C21.7119 23.2623 21.8682 23.2436 22.0172 23.234C22.1662 23.2244 22.3134 23.2196 22.4587 23.2196C23.3892 23.2196 24.1427 23.3957 24.7191 23.7478C25.2955 24.0997 25.5837 24.5572 25.5837 25.1203V26.1363H21.9939ZM9.54783 22.4103C9.15505 22.4103 8.81949 22.2706 8.54116 21.9913C8.26283 21.712 8.12366 21.3762 8.12366 20.984C8.12366 20.5866 8.26338 20.251 8.54283 19.9769C8.82213 19.7029 9.1579 19.5659 9.55012 19.5659C9.94748 19.5659 10.2845 19.7029 10.5612 19.9769C10.838 20.251 10.9764 20.5875 10.9764 20.9865C10.9764 21.3737 10.8394 21.7078 10.5655 21.9888C10.2918 22.2698 9.95255 22.4103 9.54783 22.4103ZM22.4587 22.4103C22.0698 22.4103 21.7348 22.2698 21.4539 21.9888C21.1729 21.7078 21.0324 21.3737 21.0324 20.9865C21.0324 20.5875 21.1729 20.251 21.4539 19.9769C21.7348 19.7029 22.0703 19.5659 22.4601 19.5659C22.8619 19.5659 23.1998 19.7029 23.4739 19.9769C23.7479 20.251 23.8849 20.5866 23.8849 20.984C23.8849 21.3762 23.7482 21.712 23.4749 21.9913C23.2016 22.2706 22.8628 22.4103 22.4587 22.4103ZM16.0032 21.7292C15.403 21.7292 14.8919 21.5189 14.4699 21.0982C14.048 20.6776 13.837 20.1669 13.837 19.5659C13.837 18.9528 14.0473 18.439 14.4678 18.0244C14.8885 17.6097 15.3994 17.4023 16.0003 17.4023C16.6132 17.4023 17.1271 17.6094 17.5418 18.0236C17.9564 18.4376 18.1637 18.9507 18.1637 19.563C18.1637 20.1631 17.9566 20.6742 17.5426 21.0963C17.1285 21.5182 16.6153 21.7292 16.0032 21.7292Z" fill="current"/>
</svg>
