<svg width="24" height="25" viewBox="0 0 24 25" xmlns="http://www.w3.org/2000/svg">
<path d="M12 16.5893L7.73075 12.32L8.78475 11.2355L11.25 13.7008V5.30078H12.75V13.7008L15.2153 11.2355L16.2693 12.32L12 16.5893ZM6.30775 20.3008C5.80258 20.3008 5.375 20.1258 5.025 19.7758C4.675 19.4258 4.5 18.9982 4.5 18.493V15.7815H6V18.493C6 18.57 6.03208 18.6405 6.09625 18.7045C6.16025 18.7687 6.23075 18.8008 6.30775 18.8008H17.6923C17.7692 18.8008 17.8398 18.7687 17.9038 18.7045C17.9679 18.6405 18 18.57 18 18.493V15.7815H19.5V18.493C19.5 18.9982 19.325 19.4258 18.975 19.7758C18.625 20.1258 18.1974 20.3008 17.6923 20.3008H6.30775Z" fill="current"/>
</svg>
