<svg width="24" height="25" viewBox="0 0 24 25" xmlns="http://www.w3.org/2000/svg">
<path d="M1.79785 20.1077V17.8844C1.79785 17.3691 1.93085 16.9092 2.19685 16.5047C2.46285 16.1002 2.8181 15.7855 3.2626 15.5607C4.21294 15.0959 5.16852 14.7374 6.12935 14.4854C7.09035 14.2336 8.14644 14.1077 9.2976 14.1077C10.4489 14.1077 11.505 14.2336 12.4659 14.4854C13.4269 14.7374 14.3825 15.0959 15.3329 15.5607C15.7774 15.7855 16.1326 16.1002 16.3986 16.5047C16.6646 16.9092 16.7976 17.3691 16.7976 17.8844V20.1077H1.79785ZM18.7976 20.1077V17.7614C18.7976 17.1051 18.6369 16.4795 18.3156 15.8847C17.9941 15.29 17.5381 14.7798 16.9476 14.3539C17.6181 14.4539 18.2547 14.6087 18.8574 14.8182C19.4599 15.0279 20.0349 15.2756 20.5824 15.5614C21.099 15.8371 21.498 16.162 21.7794 16.5362C22.0607 16.9102 22.2014 17.3186 22.2014 17.7614V20.1077H18.7976ZM9.2976 12.4922C8.3351 12.4922 7.51119 12.1495 6.82585 11.4642C6.14052 10.7787 5.79785 9.95469 5.79785 8.99219C5.79785 8.02969 6.14052 7.20577 6.82585 6.52044C7.51119 5.83494 8.3351 5.49219 9.2976 5.49219C10.2601 5.49219 11.0841 5.83494 11.7696 6.52044C12.4549 7.20577 12.7976 8.02969 12.7976 8.99219C12.7976 9.95469 12.4549 10.7787 11.7696 11.4642C11.0841 12.1495 10.2601 12.4922 9.2976 12.4922ZM17.9321 8.99219C17.9321 9.95469 17.5894 10.7787 16.9041 11.4642C16.2188 12.1495 15.3949 12.4922 14.4324 12.4922C14.3195 12.4922 14.1759 12.4794 14.0016 12.4537C13.8271 12.428 13.6835 12.3999 13.5709 12.3692C13.9652 11.895 14.2683 11.369 14.4801 10.7912C14.6918 10.2134 14.7976 9.61335 14.7976 8.99119C14.7976 8.36885 14.6896 7.7711 14.4736 7.19794C14.2576 6.62494 13.9567 6.09744 13.5709 5.61544C13.7144 5.5641 13.8579 5.53077 14.0016 5.51544C14.1451 5.49994 14.2887 5.49219 14.4324 5.49219C15.3949 5.49219 16.2188 5.83494 16.9041 6.52044C17.5894 7.20577 17.9321 8.02969 17.9321 8.99219ZM3.2976 18.6077H15.2976V17.8844C15.2976 17.6756 15.2454 17.4898 15.1409 17.3269C15.0365 17.1641 14.8709 17.0218 14.6439 16.8999C13.8209 16.4756 12.9734 16.1541 12.1016 15.9354C11.2298 15.7169 10.2951 15.6077 9.2976 15.6077C8.30027 15.6077 7.36569 15.7169 6.49385 15.9354C5.62202 16.1541 4.7746 16.4756 3.9516 16.8999C3.7246 17.0218 3.55885 17.1641 3.45435 17.3269C3.34985 17.4898 3.2976 17.6756 3.2976 17.8844V18.6077ZM9.2976 10.9922C9.8476 10.9922 10.3184 10.7964 10.7101 10.4047C11.1018 10.013 11.2976 9.54219 11.2976 8.99219C11.2976 8.44219 11.1018 7.97135 10.7101 7.57969C10.3184 7.18802 9.8476 6.99219 9.2976 6.99219C8.7476 6.99219 8.27677 7.18802 7.8851 7.57969C7.49344 7.97135 7.2976 8.44219 7.2976 8.99219C7.2976 9.54219 7.49344 10.013 7.8851 10.4047C8.27677 10.7964 8.7476 10.9922 9.2976 10.9922Z" fill="current"/>
</svg>
