<svg width="24" height="25" viewBox="0 0 24 25" xmlns="http://www.w3.org/2000/svg">
<path d="M18.125 14.7081V11.7081H15.125V10.2081H18.125V7.20814H19.625V10.2081H22.625V11.7081H19.625V14.7081H18.125ZM9 12.6504C8.0375 12.6504 7.21358 12.3077 6.52825 11.6224C5.84275 10.9369 5.5 10.1129 5.5 9.15039C5.5 8.18789 5.84275 7.36397 6.52825 6.67864C7.21358 5.99314 8.0375 5.65039 9 5.65039C9.9625 5.65039 10.7864 5.99314 11.4718 6.67864C12.1573 7.36397 12.5 8.18789 12.5 9.15039C12.5 10.1129 12.1573 10.9369 11.4718 11.6224C10.7864 12.3077 9.9625 12.6504 9 12.6504ZM1.5 20.2659V18.0426C1.5 17.553 1.633 17.0995 1.899 16.6821C2.165 16.2648 2.5205 15.944 2.9655 15.7196C3.95383 15.2351 4.95092 14.8717 5.95675 14.6294C6.96258 14.3871 7.977 14.2659 9 14.2659C10.023 14.2659 11.0374 14.3871 12.0433 14.6294C13.0491 14.8717 14.0462 15.2351 15.0345 15.7196C15.4795 15.944 15.835 16.2648 16.101 16.6821C16.367 17.0995 16.5 17.553 16.5 18.0426V20.2659H1.5Z" fill="current"/>
</svg>
