<svg width="24" height="25" viewBox="0 0 24 25" fill="none" xmlns="http://www.w3.org/2000/svg">
<path d="M19.7611 22.3134L15.7151 18.2979C15.2023 18.4877 14.6339 18.6429 14.0101 18.7634C13.3864 18.8839 12.7163 18.9442 11.9996 18.9442C9.64959 18.9442 7.53617 18.298 5.65934 17.0057C3.78234 15.7133 2.40859 14.0262 1.53809 11.9442C1.90725 11.0608 2.38417 10.2368 2.96884 9.47216C3.5535 8.70732 4.19709 8.04416 4.89959 7.48266L2.13034 4.68266L3.18434 3.62891L20.8148 21.2594L19.7611 22.3134ZM11.9996 16.0212C12.2086 16.0212 12.4227 16.0032 12.6418 15.9672C12.8612 15.9313 13.0561 15.8787 13.2266 15.8094L8.13434 10.7172C8.065 10.9005 8.01242 11.1002 7.97659 11.3162C7.94059 11.5323 7.92259 11.7417 7.92259 11.9442C7.92259 13.0788 8.31842 14.042 9.11009 14.8337C9.90175 15.6253 10.8649 16.0212 11.9996 16.0212ZM18.9533 16.5287L15.8168 13.4172C15.895 13.2043 15.9578 12.9762 16.0053 12.7327C16.0528 12.489 16.0766 12.2262 16.0766 11.9442C16.0766 10.8095 15.6808 9.84632 14.8891 9.05466C14.0974 8.26299 13.1343 7.86716 11.9996 7.86716C11.7176 7.86716 11.458 7.89249 11.2208 7.94316C10.9837 7.99382 10.7554 8.06982 10.5361 8.17116L8.03434 5.67891C8.66634 5.42757 9.31184 5.24232 9.97084 5.12316C10.6298 5.00382 11.3061 4.94416 11.9996 4.94416C14.3431 4.94416 16.4565 5.59032 18.3398 6.88266C20.2232 8.17499 21.5969 9.86216 22.4611 11.9442C22.0906 12.8377 21.6121 13.6717 21.0256 14.4462C20.4389 15.2205 19.7482 15.9147 18.9533 16.5287ZM14.6841 12.2942L11.6746 9.29416C12.1156 9.21082 12.5319 9.24349 12.9236 9.39216C13.3153 9.54099 13.6528 9.76216 13.9361 10.0557C14.2259 10.3493 14.4381 10.6936 14.5726 11.0884C14.7073 11.4832 14.7444 11.8852 14.6841 12.2942Z" fill="#666666"/>
</svg>
