<svg width="20" height="20" viewBox="0 0 20 20"  xmlns="http://www.w3.org/2000/svg">
<path d="M9.58301 11.6667C8.99967 11.6667 8.50662 11.4653 8.10384 11.0625C7.70106 10.6597 7.49967 10.1667 7.49967 9.58333C7.49967 9 7.70106 8.50694 8.10384 8.10417C8.50662 7.70139 8.99967 7.5 9.58301 7.5C10.1663 7.5 10.6594 7.70139 11.0622 8.10417C11.465 8.50694 11.6663 9 11.6663 9.58333C11.6663 10.1667 11.465 10.6597 11.0622 11.0625C10.6594 11.4653 10.1663 11.6667 9.58301 11.6667ZM3.58947 16.25C3.16849 16.25 2.81217 16.1042 2.52051 15.8125C2.22884 15.5208 2.08301 15.1645 2.08301 14.7435V5.25646C2.08301 4.83549 2.22884 4.47917 2.52051 4.1875C2.81217 3.89583 3.16849 3.75 3.58947 3.75H16.4099C16.8309 3.75 17.1872 3.89583 17.4788 4.1875C17.7705 4.47917 17.9163 4.83549 17.9163 5.25646V14.7435C17.9163 15.0406 17.8388 15.3067 17.6838 15.5417C17.529 15.7767 17.3228 15.9545 17.0653 16.0752L12.3811 11.391C12.5756 11.1047 12.7134 10.8162 12.7945 10.5256C12.8757 10.2351 12.9163 9.92097 12.9163 9.58333C12.9163 8.65917 12.5918 7.87257 11.9428 7.22354C11.2938 6.57451 10.5072 6.25 9.58301 6.25C8.65884 6.25 7.87224 6.57451 7.22322 7.22354C6.57419 7.87257 6.24967 8.65917 6.24967 9.58333C6.24967 10.5075 6.57419 11.2941 7.22322 11.9431C7.87224 12.5922 8.65884 12.9167 9.58301 12.9167C9.94412 12.9167 10.2881 12.864 10.6151 12.7588C10.942 12.6535 11.2433 12.4956 11.5188 12.2852L15.4836 16.25H3.58947Z" fill="current"/>
</svg>
