<svg width="20" height="20" viewBox="0 0 20 20" fill="none" xmlns="http://www.w3.org/2000/svg">
<path d="M16.2852 17.1474L11.0513 11.9134C10.6346 12.2575 10.1554 12.5267 9.61377 12.7211C9.0721 12.9156 8.51174 13.0128 7.93269 13.0128C6.50838 13.0128 5.30295 12.5196 4.3164 11.5333C3.32984 10.547 2.83656 9.34191 2.83656 7.91798C2.83656 6.49403 3.32972 5.28847 4.31602 4.30129C5.30233 3.31412 6.50745 2.82054 7.9314 2.82054C9.35533 2.82054 10.5609 3.31382 11.5481 4.30038C12.5352 5.28693 13.0288 6.49236 13.0288 7.91667C13.0288 8.51175 12.9289 9.08012 12.7291 9.62179C12.5294 10.1635 12.2628 10.6346 11.9295 11.0352L17.1634 16.2692L16.2852 17.1474ZM7.93269 11.7628C9.00641 11.7628 9.91587 11.3902 10.6611 10.645C11.4063 9.89985 11.7789 8.99039 11.7789 7.91667C11.7789 6.84294 11.4063 5.93349 10.6611 5.18829C9.91587 4.4431 9.00641 4.0705 7.93269 4.0705C6.85897 4.0705 5.94951 4.4431 5.20431 5.18829C4.45913 5.93349 4.08654 6.84294 4.08654 7.91667C4.08654 8.99039 4.45913 9.89985 5.20431 10.645C5.94951 11.3902 6.85897 11.7628 7.93269 11.7628Z" fill="current"/>
</svg>
