<svg width="36" height="37" viewBox="0 0 36 37" fill="none" xmlns="http://www.w3.org/2000/svg">
<path d="M16.875 27.7018H19.125V21.05L21.9 23.825L23.4806 22.2211L18 16.7405L12.5194 22.2211L14.1233 23.8018L16.875 21.05V27.7018ZM9.46163 32.375C8.70387 32.375 8.0625 32.1125 7.5375 31.5875C7.0125 31.0625 6.75 30.4211 6.75 29.6634V6.58663C6.75 5.82887 7.0125 5.1875 7.5375 4.6625C8.0625 4.1375 8.70387 3.875 9.46163 3.875H21.375L29.25 11.75V29.6634C29.25 30.4211 28.9875 31.0625 28.4625 31.5875C27.9375 32.1125 27.2961 32.375 26.5384 32.375H9.46163ZM20.25 12.875V6.125H9.46163C9.34613 6.125 9.24038 6.17312 9.14438 6.26937C9.04813 6.36537 9 6.47113 9 6.58663V29.6634C9 29.7789 9.04813 29.8846 9.14438 29.9806C9.24038 30.0769 9.34613 30.125 9.46163 30.125H26.5384C26.6539 30.125 26.7596 30.0769 26.8556 29.9806C26.9519 29.8846 27 29.7789 27 29.6634V12.875H20.25Z" fill="#C4C4C4"/>
</svg>
