<svg width="20" height="20" viewBox="0 0 20 20" fill="none" xmlns="http://www.w3.org/2000/svg">
<path d="M10 17.9166C8.91453 17.9166 7.89023 17.7086 6.9271 17.2924C5.96396 16.8763 5.12395 16.3098 4.40706 15.5929C3.69019 14.876 3.12369 14.036 2.70756 13.0729C2.29142 12.1098 2.08335 11.0855 2.08335 10C2.08335 8.90599 2.29142 7.87955 2.70756 6.92069C3.12369 5.96183 3.69019 5.12395 4.40706 4.40706C5.12395 3.69019 5.96396 3.12369 6.9271 2.70756C7.89023 2.29142 8.91453 2.08335 10 2.08335C11.094 2.08335 12.1205 2.29142 13.0793 2.70756C14.0382 3.12369 14.876 3.69019 15.5929 4.40706C16.3098 5.12395 16.8763 5.96183 17.2924 6.92069C17.7086 7.87955 17.9166 8.90599 17.9166 10C17.9166 11.0855 17.7086 12.1098 17.2924 13.0729C16.8763 14.036 16.3098 14.876 15.5929 15.5929C14.876 16.3098 14.0382 16.8763 13.0793 17.2924C12.1205 17.7086 11.094 17.9166 10 17.9166ZM10 16.649C10.4252 16.0849 10.7831 15.516 11.0737 14.9423C11.3643 14.3686 11.601 13.7414 11.7837 13.0609H8.21633C8.40971 13.7628 8.64903 14.4006 8.93429 14.9744C9.21954 15.5481 9.57478 16.1063 10 16.649ZM8.38625 16.4199C8.06681 15.9615 7.77994 15.4404 7.52567 14.8566C7.27139 14.2727 7.07374 13.6741 6.93271 13.0609H4.10575C4.54593 13.9263 5.13621 14.6533 5.8766 15.242C6.61701 15.8307 7.45356 16.2233 8.38625 16.4199ZM11.6138 16.4199C12.5464 16.2233 13.383 15.8307 14.1234 15.242C14.8638 14.6533 15.4541 13.9263 15.8943 13.0609H13.0673C12.8996 13.6795 12.6885 14.2807 12.4343 14.8646C12.18 15.4485 11.9065 15.9669 11.6138 16.4199ZM3.58173 11.8109H6.6795C6.62715 11.5011 6.58923 11.1974 6.56573 10.8999C6.54223 10.6023 6.53048 10.3023 6.53048 10C6.53048 9.69765 6.54223 9.3977 6.56573 9.10015C6.58923 8.8026 6.62715 8.49892 6.6795 8.18908H3.58173C3.5016 8.47221 3.44017 8.76655 3.39744 9.0721C3.3547 9.37766 3.33333 9.68696 3.33333 10C3.33333 10.313 3.3547 10.6223 3.39744 10.9279C3.44017 11.2335 3.5016 11.5278 3.58173 11.8109ZM7.92948 11.8109H12.0705C12.1229 11.5011 12.1608 11.2001 12.1843 10.9079C12.2078 10.6157 12.2196 10.313 12.2196 10C12.2196 9.68696 12.2078 9.38434 12.1843 9.09215C12.1608 8.79994 12.1229 8.49892 12.0705 8.18908H7.92948C7.87713 8.49892 7.8392 8.79994 7.81569 9.09215C7.79219 9.38434 7.78044 9.68696 7.78044 10C7.78044 10.313 7.79219 10.6157 7.81569 10.9079C7.8392 11.2001 7.87713 11.5011 7.92948 11.8109ZM13.3205 11.8109H16.4183C16.4984 11.5278 16.5598 11.2335 16.6026 10.9279C16.6453 10.6223 16.6667 10.313 16.6667 10C16.6667 9.68696 16.6453 9.37766 16.6026 9.0721C16.5598 8.76655 16.4984 8.47221 16.4183 8.18908H13.3205C13.3728 8.49892 13.4108 8.8026 13.4343 9.10015C13.4578 9.3977 13.4695 9.69765 13.4695 10C13.4695 10.3023 13.4578 10.6023 13.4343 10.8999C13.4108 11.1974 13.3728 11.5011 13.3205 11.8109ZM13.0673 6.93913H15.8943C15.4487 6.06304 14.8624 5.336 14.1354 4.758C13.4084 4.18001 12.5678 3.78471 11.6138 3.5721C11.9332 4.05715 12.2174 4.5876 12.4663 5.16346C12.7153 5.73932 12.9156 6.33121 13.0673 6.93913ZM8.21633 6.93913H11.7837C11.5903 6.24254 11.347 5.60071 11.0537 5.01362C10.7604 4.42656 10.4092 3.87233 10 3.35096C9.59081 3.87233 9.23958 4.42656 8.94631 5.01362C8.65304 5.60071 8.40971 6.24254 8.21633 6.93913ZM4.10575 6.93913H6.93271C7.08442 6.33121 7.28474 5.73932 7.53369 5.16346C7.78262 4.5876 8.06681 4.05715 8.38625 3.5721C7.42685 3.78471 6.58496 4.18135 5.86058 4.76202C5.13622 5.34269 4.55128 6.06839 4.10575 6.93913Z" fill="#666666"/>
</svg>
