<svg width="18" height="19" viewBox="0 0 18 19"  xmlns="http://www.w3.org/2000/svg">
<path d="M9 12.6731C9.17163 12.6731 9.3155 12.615 9.43162 12.4989C9.54775 12.3828 9.60581 12.2389 9.60581 12.0673C9.60581 11.8956 9.54775 11.7518 9.43162 11.6356C9.3155 11.5196 9.17163 11.4616 9 11.4616C8.82838 11.4616 8.6845 11.5196 8.56838 11.6356C8.45225 11.7518 8.39419 11.8956 8.39419 12.0673C8.39419 12.2389 8.45225 12.3828 8.56838 12.4989C8.6845 12.615 8.82838 12.6731 9 12.6731ZM8.4375 9.93275H9.5625V5.43275H8.4375V9.93275ZM9.00131 16.25C8.01581 16.25 7.0895 16.063 6.22237 15.689C5.35525 15.315 4.601 14.8074 3.95963 14.1663C3.31825 13.5252 2.81044 12.7712 2.43619 11.9045C2.06206 11.0378 1.875 10.1117 1.875 9.12631C1.875 8.14081 2.062 7.2145 2.436 6.34737C2.81 5.48025 3.31756 4.726 3.95869 4.08463C4.59981 3.44325 5.35375 2.93544 6.2205 2.56119C7.08725 2.18706 8.01331 2 8.99869 2C9.98419 2 10.9105 2.187 11.7776 2.561C12.6448 2.935 13.399 3.44256 14.0404 4.08369C14.6818 4.72481 15.1896 5.47875 15.5638 6.3455C15.9379 7.21225 16.125 8.13831 16.125 9.12369C16.125 10.1092 15.938 11.0355 15.564 11.9026C15.19 12.7698 14.6824 13.524 14.0413 14.1654C13.4002 14.8068 12.6462 15.3146 11.7795 15.6888C10.9128 16.0629 9.98669 16.25 9.00131 16.25Z" />
</svg>
