<svg width="17" height="16" viewBox="0 0 17 16" fill="none" xmlns="http://www.w3.org/2000/svg">
<path d="M8.49413 0.316406C4.00569 0.316406 0.385986 3.21214 0.385986 6.7276C0.385986 9.00946 1.89178 11.0075 4.15048 12.1485L3.386 15.0037C3.37158 15.0465 3.36937 15.0924 3.3796 15.1364C3.38982 15.1804 3.41209 15.2207 3.44391 15.2527C3.49031 15.2936 3.55001 15.3163 3.61187 15.3164C3.66316 15.3123 3.71182 15.292 3.75086 15.2585L7.04045 13.0404C7.52604 13.1074 8.01552 13.1422 8.50571 13.1446C12.9883 13.1446 16.6138 10.2488 16.6138 6.7276C16.6138 3.20635 12.9768 0.316406 8.49413 0.316406Z" fill="#392020"/>
</svg>
