<svg width="100" height="71" viewBox="0 0 100 71" fill="none" xmlns="http://www.w3.org/2000/svg">
<ellipse cx="52" cy="66" rx="31" ry="5" fill="#0D9BDB"/>
<rect x="34.4004" y="20.8164" width="32.9999" height="32.9999" fill="#0D9BDB"/>
<g filter="url(#filter0_d_2516_121598)">
<path d="M38.8008 58.2167H69.6007V31.8168L63.0007 25.2168H38.8008V58.2167Z" fill="white"/>
</g>
<rect x="43.2012" y="33.0176" width="22" height="2.2" rx="1.1" fill="#E7E7E7"/>
<rect x="43.2012" y="38.5156" width="22" height="2.2" rx="1.1" fill="#E7E7E7"/>
<rect x="30" y="42.8008" width="43.9999" height="24.2" rx="2" fill="#38A0CC"/>
<path fill-rule="evenodd" clip-rule="evenodd" d="M69.6992 67.0027H71.9994C73.104 67.0027 73.9994 66.1073 73.9994 65.0027V44.8027C73.9994 43.6982 73.104 42.8027 71.9994 42.8027H69.6992C70.2515 42.8027 70.6992 43.2504 70.6992 43.8027V66.0027C70.6992 66.555 70.2515 67.0027 69.6992 67.0027Z" fill="#38A0CC"/>
<path d="M30 38.3008C30 37.1962 30.8954 36.3008 32 36.3008H45.8641C47.1426 36.3008 48.2806 37.111 48.6989 38.319L52 47.8508H30V38.3008Z" fill="#35A4D3"/>
<path fill-rule="evenodd" clip-rule="evenodd" d="M50.4129 42.7988L48.8608 38.3171C48.4424 37.109 47.3044 36.2988 46.026 36.2988H43.126C44.4044 36.2988 45.5424 37.109 45.9608 38.3171L47.5129 42.7988H50.4129Z" fill="#1691C6"/>
<path d="M79.292 26.2856V10.9491C79.292 10.486 79.4524 10.0941 79.7732 9.77324C80.0941 9.45241 80.486 9.29199 80.9491 9.29199H95.0516C95.5146 9.29199 95.9066 9.45241 96.2274 9.77324C96.5482 10.0941 96.7087 10.486 96.7087 10.9491V21.3849C96.7087 21.848 96.5482 22.2399 96.2274 22.5607C95.9066 22.8816 95.5146 23.042 95.0516 23.042H82.5356L79.292 26.2856ZM84.3337 16.9778C84.5581 16.9778 84.7494 16.8988 84.9075 16.7408C85.0655 16.5827 85.1445 16.3914 85.1445 16.167C85.1445 15.9426 85.0655 15.7513 84.9075 15.5932C84.7494 15.4352 84.5581 15.3562 84.3337 15.3562C84.1092 15.3562 83.918 15.4352 83.7598 15.5932C83.6019 15.7513 83.5229 15.9426 83.5229 16.167C83.5229 16.3914 83.6019 16.5827 83.7598 16.7408C83.918 16.8988 84.1092 16.9778 84.3337 16.9778ZM88.0003 16.9778C88.2248 16.9778 88.416 16.8988 88.5742 16.7408C88.7321 16.5827 88.8111 16.3914 88.8111 16.167C88.8111 15.9426 88.7321 15.7513 88.5742 15.5932C88.416 15.4352 88.2248 15.3562 88.0003 15.3562C87.7759 15.3562 87.5846 15.4352 87.4265 15.5932C87.2685 15.7513 87.1895 15.9426 87.1895 16.167C87.1895 16.3914 87.2685 16.5827 87.4265 16.7408C87.5846 16.8988 87.7759 16.9778 88.0003 16.9778ZM91.667 16.9778C91.8914 16.9778 92.0827 16.8988 92.2408 16.7408C92.3988 16.5827 92.4778 16.3914 92.4778 16.167C92.4778 15.9426 92.3988 15.7513 92.2408 15.5932C92.0827 15.4352 91.8914 15.3562 91.667 15.3562C91.4426 15.3562 91.2513 15.4352 91.0932 15.5932C90.9352 15.7513 90.8562 15.9426 90.8562 16.167C90.8562 16.3914 90.9352 16.5827 91.0932 16.7408C91.2513 16.8988 91.4426 16.9778 91.667 16.9778Z" fill="#0D9BDB"/>
<defs>
<filter id="filter0_d_2516_121598" x="37.8008" y="24.2168" width="34.7998" height="37" filterUnits="userSpaceOnUse" color-interpolation-filters="sRGB">
<feFlood flood-opacity="0" result="BackgroundImageFix"/>
<feColorMatrix in="SourceAlpha" type="matrix" values="0 0 0 0 0 0 0 0 0 0 0 0 0 0 0 0 0 0 127 0" result="hardAlpha"/>
<feOffset dx="1" dy="1"/>
<feGaussianBlur stdDeviation="1"/>
<feComposite in2="hardAlpha" operator="out"/>
<feColorMatrix type="matrix" values="0 0 0 0 0 0 0 0 0 0 0 0 0 0 0 0 0 0 0.08 0"/>
<feBlend mode="normal" in2="BackgroundImageFix" result="effect1_dropShadow_2516_121598"/>
<feBlend mode="normal" in="SourceGraphic" in2="effect1_dropShadow_2516_121598" result="shape"/>
</filter>
</defs>
</svg>
