<svg width="34" height="34" viewBox="0 0 34 34" fill="none" xmlns="http://www.w3.org/2000/svg">
<path d="M0 17C0 7.61116 7.61116 0 17 0C26.3888 0 34 7.61116 34 17C34 26.3888 26.3888 34 17 34C7.61116 34 0 26.3888 0 17Z" fill="#13A9E9"/>
<path d="M22.8652 17.7308C23.0781 17.7308 23.2563 17.6589 23.4 17.5153C23.5435 17.3717 23.6152 17.1936 23.6152 16.9808C23.6152 16.7679 23.5435 16.5898 23.4 16.4463C23.2563 16.3026 23.0781 16.2308 22.8652 16.2308H19.827C19.6142 16.2308 19.4359 16.3026 19.2923 16.4463C19.1488 16.5898 19.077 16.7679 19.077 16.9808C19.077 17.1936 19.1488 17.3717 19.2923 17.5153C19.4359 17.6589 19.6142 17.7308 19.827 17.7308H22.8652ZM22.8652 14.8462C23.0781 14.8462 23.2563 14.7744 23.4 14.6307C23.5435 14.4872 23.6152 14.3091 23.6152 14.0962C23.6152 13.8834 23.5435 13.7052 23.4 13.5615C23.2563 13.418 23.0781 13.3462 22.8652 13.3462H19.827C19.6142 13.3462 19.4359 13.418 19.2923 13.5615C19.1488 13.7052 19.077 13.8834 19.077 14.0962C19.077 14.3091 19.1488 14.4872 19.2923 14.6307C19.4359 14.7744 19.6142 14.8462 19.827 14.8462H22.8652ZM14.0385 18.1538C13.4642 18.1538 12.9609 18.1999 12.5287 18.2923C12.0967 18.3846 11.7134 18.5314 11.3787 18.7327C11.0738 18.9109 10.8424 19.1103 10.6848 19.3308C10.5269 19.5513 10.448 19.7878 10.448 20.0402C10.448 20.2147 10.515 20.3606 10.649 20.4777C10.783 20.5951 10.9488 20.6538 11.1463 20.6538H16.9308C17.1283 20.6538 17.2939 20.5909 17.4277 20.4653C17.5617 20.3397 17.6287 20.1847 17.6287 20C17.6287 19.7743 17.5515 19.5554 17.397 19.3433C17.2425 19.1311 17.0095 18.9276 16.698 18.7327C16.3635 18.5314 15.9802 18.3846 15.548 18.2923C15.116 18.1999 14.6128 18.1538 14.0385 18.1538ZM14.0385 16.8463C14.5243 16.8463 14.9374 16.676 15.2777 16.3355C15.6182 15.9952 15.7885 15.5821 15.7885 15.0962C15.7885 14.6102 15.6182 14.1971 15.2777 13.8568C14.9374 13.5164 14.5243 13.3462 14.0385 13.3462C13.5527 13.3462 13.1395 13.5164 12.799 13.8568C12.4587 14.1971 12.2885 14.6102 12.2885 15.0962C12.2885 15.5821 12.4587 15.9952 12.799 16.3355C13.1395 16.676 13.5527 16.8463 14.0385 16.8463ZM9.30775 24.5C8.80258 24.5 8.375 24.325 8.025 23.975C7.675 23.625 7.5 23.1974 7.5 22.6923V11.3077C7.5 10.8026 7.675 10.375 8.025 10.025C8.375 9.675 8.80258 9.5 9.30775 9.5H24.6923C25.1974 9.5 25.625 9.675 25.975 10.025C26.325 10.375 26.5 10.8026 26.5 11.3077V22.6923C26.5 23.1974 26.325 23.625 25.975 23.975C25.625 24.325 25.1974 24.5 24.6923 24.5H9.30775ZM9.30775 23H24.6923C24.7693 23 24.8398 22.9679 24.9038 22.9038C24.9679 22.8398 25 22.7692 25 22.6923V11.3077C25 11.2307 24.9679 11.1602 24.9038 11.0962C24.8398 11.0321 24.7693 11 24.6923 11H9.30775C9.23075 11 9.16025 11.0321 9.09625 11.0962C9.03208 11.1602 9 11.2307 9 11.3077V22.6923C9 22.7692 9.03208 22.8398 9.09625 22.9038C9.16025 22.9679 9.23075 23 9.30775 23Z" fill="white"/>
</svg>
