<svg width="19" height="17" viewBox="0 0 19 17" xmlns="http://www.w3.org/2000/svg">
<path d="M14.1058 16.0472L13.8828 14.7202C13.6442 14.6497 13.4198 14.5574 13.2095 14.4434C12.9993 14.3292 12.7993 14.1862 12.6095 14.0144L11.3422 14.4549L10.6308 13.2452L11.6655 12.3992C11.5937 12.1402 11.5577 11.885 11.5577 11.6337C11.5577 11.3825 11.5937 11.1274 11.6655 10.8684L10.6405 10.0029L11.352 8.79341L12.6095 9.24341C12.7928 9.07157 12.9913 8.93024 13.2048 8.81941C13.4183 8.70841 13.6442 8.61766 13.8828 8.54716L14.1058 7.22041H15.5288L15.7423 8.54716C15.9808 8.61766 16.2067 8.71099 16.4202 8.82716C16.6336 8.94316 16.8319 9.09216 17.0152 9.27416L18.273 8.79341L18.9845 10.0337L17.9595 10.8992C18.0313 11.1377 18.0673 11.3877 18.0673 11.6492C18.0673 11.9107 18.0313 12.1607 17.9595 12.3992L18.9943 13.2452L18.2828 14.4549L17.0152 14.0144C16.8256 14.1862 16.6256 14.3292 16.4152 14.4434C16.2051 14.5574 15.9808 14.6497 15.7423 14.7202L15.5288 16.0472H14.1058ZM0.5 15.3069V13.0837C0.5 12.5787 0.628833 12.1213 0.8865 11.7117C1.14417 11.302 1.50383 10.985 1.9655 10.7607C2.79617 10.3467 3.69358 10.0008 4.65775 9.72316C5.62175 9.44566 6.73583 9.30691 8 9.30691H8.29225C8.37942 9.30691 8.46658 9.31716 8.55375 9.33766C8.16658 10.3068 8.0035 11.327 8.0645 12.3982C8.12533 13.4693 8.43075 14.4389 8.98075 15.3069H0.5ZM14.8077 13.5377C15.3321 13.5377 15.7804 13.3514 16.1528 12.9789C16.5252 12.6064 16.7115 12.158 16.7115 11.6337C16.7115 11.1093 16.5252 10.661 16.1528 10.2887C15.7804 9.91616 15.3321 9.72991 14.8077 9.72991C14.2834 9.72991 13.835 9.91616 13.4625 10.2887C13.09 10.661 12.9038 11.1093 12.9038 11.6337C12.9038 12.158 13.09 12.6064 13.4625 12.9789C13.835 13.3514 14.2834 13.5377 14.8077 13.5377ZM8 7.69141C7.03467 7.69141 6.21 7.34941 5.526 6.66541C4.842 5.98157 4.5 5.15691 4.5 4.19141C4.5 3.22607 4.842 2.40141 5.526 1.71741C6.21 1.03341 7.03467 0.691406 8 0.691406C8.96533 0.691406 9.79 1.03341 10.474 1.71741C11.158 2.40141 11.5 3.22607 11.5 4.19141C11.5 5.15691 11.158 5.98157 10.474 6.66541C9.79 7.34941 8.96533 7.69141 8 7.69141Z" />
</svg>
