<svg width="20" height="21" viewBox="0 0 20 21" xmlns="http://www.w3.org/2000/svg">
<path d="M10.0016 18.4168C8.90662 18.4168 7.87891 18.2101 6.9185 17.7966C5.95794 17.3831 5.12037 16.8206 4.40579 16.1091C3.69134 15.3977 3.12565 14.5611 2.7087 13.5993C2.2919 12.6375 2.0835 11.6098 2.0835 10.5162H3.3335C3.3335 11.4329 3.50843 12.2961 3.85829 13.106C4.20815 13.9157 4.68516 14.6227 5.28933 15.2268C5.8935 15.831 6.601 16.3088 7.41183 16.6604C8.22266 17.0119 9.08544 17.1877 10.0002 17.1877C11.8613 17.1877 13.4377 16.5418 14.7293 15.2502C16.021 13.9585 16.6668 12.3821 16.6668 10.521C16.6668 8.65988 16.021 7.0835 14.7293 5.79183C13.4377 4.50016 11.8613 3.85433 10.0002 3.85433C8.7053 3.85433 7.53836 4.18315 6.49933 4.84079C5.4603 5.49829 4.66252 6.36447 4.106 7.43933H6.52266V8.68933H2.0835V4.25016H3.3335V6.32558C4.01725 5.19947 4.94218 4.29426 6.10829 3.60995C7.2744 2.92565 8.57169 2.5835 10.0002 2.5835C11.0953 2.5835 12.1245 2.79127 13.0877 3.20683C14.0509 3.62238 14.8887 4.18634 15.6012 4.8987C16.3137 5.61107 16.8777 6.44877 17.2933 7.41183C17.709 8.37488 17.9168 9.40384 17.9168 10.4987C17.9168 11.5937 17.7091 12.6229 17.2935 13.5864C16.8779 14.5499 16.314 15.3879 15.6016 16.1006C14.8893 16.8132 14.0516 17.3775 13.0885 17.7933C12.1254 18.209 11.0965 18.4168 10.0016 18.4168ZM8.3335 13.7372C8.111 13.7372 7.92447 13.662 7.77391 13.5116C7.6235 13.3611 7.54829 13.1745 7.54829 12.952V10.452C7.54829 10.2295 7.62815 10.0431 7.78787 9.89266C7.94759 9.74211 8.14551 9.66683 8.38162 9.66683V8.78537C8.38162 8.34023 8.54009 7.95919 8.85704 7.64225C9.17398 7.3253 9.55502 7.16683 10.0002 7.16683C10.4453 7.16683 10.8263 7.3253 11.1433 7.64225C11.4602 7.95919 11.6187 8.34023 11.6187 8.78537V9.66683C11.8548 9.66683 12.0527 9.74211 12.2125 9.89266C12.3722 10.0431 12.452 10.2295 12.452 10.452V12.952C12.452 13.1745 12.3768 13.3611 12.2264 13.5116C12.0759 13.662 11.8893 13.7372 11.6668 13.7372H8.3335ZM9.1187 9.66683H10.8816V8.7885C10.8816 8.53961 10.7964 8.32995 10.626 8.15954C10.4556 7.98912 10.247 7.90391 10.0002 7.90391C9.75336 7.90391 9.54475 7.98912 9.37433 8.15954C9.20391 8.32995 9.1187 8.53961 9.1187 8.7885V9.66683Z" fill="current"/>
</svg>
