<svg width="24" height="25" viewBox="0 0 24 25" xmlns="http://www.w3.org/2000/svg">
<path d="M9.6211 19.1621C8.15827 19.1621 6.90535 18.6724 5.86235 17.6929C4.81935 16.7134 4.29785 15.5076 4.29785 14.0756C4.29785 12.6436 4.81935 11.4394 5.86235 10.4631C6.90535 9.48678 8.15827 8.99861 9.6211 8.99861H16.6421L13.8596 6.21586L14.9134 5.16211L19.4999 9.74861L14.9134 14.3351L13.8596 13.2814L16.6421 10.4986H9.6211C8.57744 10.4986 7.67935 10.8415 6.92685 11.5274C6.17418 12.2134 5.79785 13.0628 5.79785 14.0756C5.79785 15.0884 6.17418 15.9394 6.92685 16.6284C7.67935 17.3175 8.57744 17.6621 9.6211 17.6621H16.7979V19.1621H9.6211Z" />
</svg>
