<svg width="20" height="20" viewBox="0 0 20 20" xmlns="http://www.w3.org/2000/svg">
<path d="M5.01933 14.4109C5.72766 13.8853 6.49933 13.4702 7.33433 13.1657C8.16919 12.8612 9.0578 12.709 10.0002 12.709C10.9425 12.709 11.8311 12.8612 12.666 13.1657C13.501 13.4702 14.2727 13.8853 14.981 14.4109C15.4991 13.8414 15.9095 13.1822 16.2125 12.4334C16.5154 11.6845 16.6668 10.8736 16.6668 10.0007C16.6668 8.15343 16.0175 6.58051 14.7189 5.2819C13.4203 3.98329 11.8474 3.33398 10.0002 3.33398C8.15294 3.33398 6.58002 3.98329 5.28141 5.2819C3.9828 6.58051 3.3335 8.15343 3.3335 10.0007C3.3335 10.8736 3.48495 11.6845 3.78787 12.4334C4.09079 13.1822 4.50127 13.8414 5.01933 14.4109ZM10.0002 10.6257C9.23947 10.6257 8.59794 10.3644 8.07558 9.8419C7.55308 9.31954 7.29183 8.67801 7.29183 7.91732C7.29183 7.15662 7.55308 6.5151 8.07558 5.99273C8.59794 5.47023 9.23947 5.20898 10.0002 5.20898C10.7609 5.20898 11.4024 5.47023 11.9247 5.99273C12.4472 6.5151 12.7085 7.15662 12.7085 7.91732C12.7085 8.67801 12.4472 9.31954 11.9247 9.8419C11.4024 10.3644 10.7609 10.6257 10.0002 10.6257ZM10.0002 17.9173C8.90086 17.9173 7.86961 17.7106 6.90641 17.2971C5.94322 16.8836 5.10537 16.3206 4.39287 15.6079C3.68023 14.8954 3.11718 14.0576 2.7037 13.0944C2.29023 12.1312 2.0835 11.1 2.0835 10.0007C2.0835 8.90135 2.29023 7.8701 2.7037 6.9069C3.11718 5.94371 3.68023 5.10586 4.39287 4.39336C5.10537 3.68072 5.94322 3.11767 6.90641 2.70419C7.86961 2.29072 8.90086 2.08398 10.0002 2.08398C11.0995 2.08398 12.1307 2.29072 13.0939 2.70419C14.0571 3.11767 14.895 3.68072 15.6075 4.39336C16.3201 5.10586 16.8831 5.94371 17.2966 6.9069C17.7101 7.8701 17.9168 8.90135 17.9168 10.0007C17.9168 11.1 17.7101 12.1312 17.2966 13.0944C16.8831 14.0576 16.3201 14.8954 15.6075 15.6079C14.895 16.3206 14.0571 16.8836 13.0939 17.2971C12.1307 17.7106 11.0995 17.9173 10.0002 17.9173Z" fill="current"/>
</svg>
