<svg width="19" height="19" viewBox="0 0 19 19" xmlns="http://www.w3.org/2000/svg">
<path d="M7.25 10.5508C5.495 10.5508 2 11.4283 2 13.1758V14.4883H12.5V13.1758C12.5 11.4283 9.005 10.5508 7.25 10.5508ZM3.755 12.9883C4.385 12.5533 5.9075 12.0508 7.25 12.0508C8.5925 12.0508 10.115 12.5533 10.745 12.9883H3.755ZM7.25 9.23828C8.6975 9.23828 9.875 8.06078 9.875 6.61328C9.875 5.16578 8.6975 3.98828 7.25 3.98828C5.8025 3.98828 4.625 5.16578 4.625 6.61328C4.625 8.06078 5.8025 9.23828 7.25 9.23828ZM7.25 5.48828C7.8725 5.48828 8.375 5.99078 8.375 6.61328C8.375 7.23578 7.8725 7.73828 7.25 7.73828C6.6275 7.73828 6.125 7.23578 6.125 6.61328C6.125 5.99078 6.6275 5.48828 7.25 5.48828ZM12.53 10.5958C13.4 11.2258 14 12.0658 14 13.1758V14.4883H17V13.1758C17 11.6608 14.375 10.7983 12.53 10.5958ZM11.75 9.23828C13.1975 9.23828 14.375 8.06078 14.375 6.61328C14.375 5.16578 13.1975 3.98828 11.75 3.98828C11.345 3.98828 10.97 4.08578 10.625 4.25078C11.0975 4.91828 11.375 5.73578 11.375 6.61328C11.375 7.49078 11.0975 8.30828 10.625 8.97578C10.97 9.14078 11.345 9.23828 11.75 9.23828Z" fill="current"/>
</svg>
