<svg width="19" height="19" viewBox="0 0 19 19" xmlns="http://www.w3.org/2000/svg">
<path d="M3.5 15.2383C3.0875 15.2383 2.73438 15.0914 2.44063 14.7977C2.14688 14.5039 2 14.1508 2 13.7383V4.73828C2 4.32578 2.14688 3.97266 2.44063 3.67891C2.73438 3.38516 3.0875 3.23828 3.5 3.23828H15.5C15.9125 3.23828 16.2656 3.38516 16.5594 3.67891C16.8531 3.97266 17 4.32578 17 4.73828V13.7383C17 14.1508 16.8531 14.5039 16.5594 14.7977C16.2656 15.0914 15.9125 15.2383 15.5 15.2383H3.5ZM9.5 9.98828L3.5 6.23828V13.7383H15.5V6.23828L9.5 9.98828ZM9.5 8.48828L15.5 4.73828H3.5L9.5 8.48828ZM3.5 6.23828V4.73828V13.7383V6.23828Z" fill="current"/>
</svg>
