<svg width="19" height="19" viewBox="0 0 19 19"  xmlns="http://www.w3.org/2000/svg">
<path d="M15.5 1.73828H3.5C2.75 1.73828 2 2.41328 2 3.23828V5.49578C2 6.03578 2.3225 6.50078 2.75 6.76328V15.2383C2.75 16.0633 3.575 16.7383 4.25 16.7383H14.75C15.425 16.7383 16.25 16.0633 16.25 15.2383V6.76328C16.6775 6.50078 17 6.03578 17 5.49578V3.23828C17 2.41328 16.25 1.73828 15.5 1.73828ZM14.75 15.2383H4.25V6.98828H14.75V15.2383ZM15.5 5.48828H3.5V3.23828H15.5V5.48828Z" fill="current"/>
<path d="M11.75 9.23828H7.25V10.7383H11.75V9.23828Z" fill="current"/>
</svg>
