<svg width="19" height="19" viewBox="0 0 19 19" xmlns="http://www.w3.org/2000/svg">
<path d="M2.75 7.36328H1.25V15.6133C1.25 16.4458 1.9175 17.1133 2.75 17.1133H15.5V15.6133H2.75V7.36328Z" fill="current"/>
<path d="M14 4.36328V2.86328C14 2.03828 13.325 1.36328 12.5 1.36328H9.5C8.675 1.36328 8 2.03828 8 2.86328V4.36328H4.25V12.6133C4.25 13.4383 4.925 14.1133 5.75 14.1133H16.25C17.075 14.1133 17.75 13.4383 17.75 12.6133V4.36328H14ZM9.5 2.86328H12.5V4.36328H9.5V2.86328ZM16.25 12.6133H5.75V5.86328H16.25V12.6133Z" fill="current"/>
</svg>
