<svg width="19" height="19" viewBox="0 0 19 19" xmlns="http://www.w3.org/2000/svg">
<path d="M14.75 2.48828H4.25C3.425 2.48828 2.75 3.16328 2.75 3.98828V14.4883C2.75 15.3133 3.425 15.9883 4.25 15.9883H14.75C15.575 15.9883 16.25 15.3133 16.25 14.4883V3.98828C16.25 3.16328 15.575 2.48828 14.75 2.48828ZM14.75 14.4883H4.25V3.98828H14.75V14.4883Z" fill="current"/>
<path d="M7.25 9.23828H5.75V12.9883H7.25V9.23828Z" fill="current"/>
<path d="M13.25 5.48828H11.75V12.9883H13.25V5.48828Z" fill="current"/>
<path d="M10.25 10.7383H8.75V12.9883H10.25V10.7383Z" fill="current"/>
<path d="M10.25 7.73828H8.75V9.23828H10.25V7.73828Z" fill="current"/>
</svg>
