<svg width="37" height="15" viewBox="0 0 37 15" fill="none" xmlns="http://www.w3.org/2000/svg">
<path d="M11.0099 0.327999V5.896H13.1859V7.144H11.0099V14.312H9.53794V0.327999H11.0099ZM0.0979375 10.568C3.61794 8.824 5.52194 6.312 5.84194 3.048H0.801938V1.8H7.36194C7.34594 5.848 5.55394 9.464 0.929938 11.72L0.0979375 10.568Z" fill="black"/>
<path d="M20.0367 13H18.2127L22.2767 1.672H24.2607L28.3567 13H26.5007L25.4767 10.024H21.0607L20.0367 13ZM21.5727 8.584H24.9807L23.3327 3.752H23.2367L21.5727 8.584ZM29.0114 10.6C29.0274 8.68 30.6754 8.168 32.1794 8.072C32.7554 8.024 34.0514 7.96 34.4194 7.944V7.272C34.4194 6.312 33.8434 5.752 32.6914 5.736C31.7154 5.752 31.1234 6.2 30.9634 6.824H29.2994C29.4434 5.432 30.7554 4.408 32.7554 4.392C34.1154 4.408 36.0834 4.904 36.0834 7.368V13H34.4514V11.848H34.3874C34.0834 12.472 33.2994 13.192 31.8914 13.192C30.2754 13.192 29.0274 12.264 29.0114 10.6ZM30.6434 10.632C30.6594 11.432 31.3314 11.848 32.2434 11.848C33.6194 11.848 34.4354 10.952 34.4194 9.928V9.16L32.4354 9.288C31.3474 9.368 30.6594 9.784 30.6434 10.632Z" fill="black"/>
</svg>
