<svg width="20" height="16" viewBox="0 0 20 16" fill="none" xmlns="http://www.w3.org/2000/svg">
<path d="M15.8652 8.73075C16.0781 8.73075 16.2563 8.65892 16.4 8.51525C16.5435 8.37175 16.6152 8.19358 16.6152 7.98075C16.6152 7.76792 16.5435 7.58975 16.4 7.44625C16.2563 7.30258 16.0781 7.23075 15.8652 7.23075H12.827C12.6142 7.23075 12.4359 7.30258 12.2923 7.44625C12.1488 7.58975 12.077 7.76792 12.077 7.98075C12.077 8.19358 12.1488 8.37175 12.2923 8.51525C12.4359 8.65892 12.6142 8.73075 12.827 8.73075H15.8652ZM15.8652 5.84625C16.0781 5.84625 16.2563 5.77442 16.4 5.63075C16.5435 5.48725 16.6152 5.30908 16.6152 5.09625C16.6152 4.88342 16.5435 4.70517 16.4 4.5615C16.2563 4.418 16.0781 4.34625 15.8652 4.34625H12.827C12.6142 4.34625 12.4359 4.418 12.2923 4.5615C12.1488 4.70517 12.077 4.88342 12.077 5.09625C12.077 5.30908 12.1488 5.48725 12.2923 5.63075C12.4359 5.77442 12.6142 5.84625 12.827 5.84625H15.8652ZM7.0385 9.15375C6.46417 9.15375 5.96092 9.19992 5.52875 9.29225C5.09675 9.38458 4.71342 9.53142 4.37875 9.73275C4.07375 9.91092 3.84242 10.1103 3.68475 10.3308C3.52692 10.5513 3.448 10.7878 3.448 11.0402C3.448 11.2147 3.515 11.3606 3.649 11.4777C3.783 11.5951 3.94875 11.6538 4.14625 11.6538H9.93075C10.1283 11.6538 10.2939 11.5909 10.4277 11.4653C10.5617 11.3397 10.6287 11.1847 10.6287 11C10.6287 10.7743 10.5515 10.5554 10.397 10.3433C10.2425 10.1311 10.0095 9.92758 9.698 9.73275C9.3635 9.53142 8.98017 9.38458 8.548 9.29225C8.116 9.19992 7.61283 9.15375 7.0385 9.15375ZM7.0385 7.84625C7.52433 7.84625 7.93742 7.676 8.27775 7.3355C8.61825 6.99517 8.7885 6.58208 8.7885 6.09625C8.7885 5.61025 8.61825 5.19708 8.27775 4.85675C7.93742 4.51642 7.52433 4.34625 7.0385 4.34625C6.55267 4.34625 6.1395 4.51642 5.799 4.85675C5.45867 5.19708 5.2885 5.61025 5.2885 6.09625C5.2885 6.58208 5.45867 6.99517 5.799 7.3355C6.1395 7.676 6.55267 7.84625 7.0385 7.84625ZM2.30775 15.5C1.80258 15.5 1.375 15.325 1.025 14.975C0.675 14.625 0.5 14.1974 0.5 13.6923V2.30775C0.5 1.80258 0.675 1.375 1.025 1.025C1.375 0.675 1.80258 0.5 2.30775 0.5H17.6923C18.1974 0.5 18.625 0.675 18.975 1.025C19.325 1.375 19.5 1.80258 19.5 2.30775V13.6923C19.5 14.1974 19.325 14.625 18.975 14.975C18.625 15.325 18.1974 15.5 17.6923 15.5H2.30775ZM2.30775 14H17.6923C17.7693 14 17.8398 13.9679 17.9038 13.9038C17.9679 13.8398 18 13.7692 18 13.6923V2.30775C18 2.23075 17.9679 2.16025 17.9038 2.09625C17.8398 2.03208 17.7693 2 17.6923 2H2.30775C2.23075 2 2.16025 2.03208 2.09625 2.09625C2.03208 2.16025 2 2.23075 2 2.30775V13.6923C2 13.7692 2.03208 13.8398 2.09625 13.9038C2.16025 13.9679 2.23075 14 2.30775 14Z" fill="#666666"/>
</svg>
