<svg width="26" height="26" viewBox="0 0 26 26" fill="none" xmlns="http://www.w3.org/2000/svg">
<path d="M8.9375 19.2279H17.0625V17.6029H8.9375V19.2279ZM8.9375 14.8945H17.0625V13.2695H8.9375V14.8945ZM6.8334 23.2904C6.28613 23.2904 5.82292 23.1008 5.44375 22.7216C5.06458 22.3424 4.875 21.8792 4.875 21.332V4.66543C4.875 4.11816 5.06458 3.65495 5.44375 3.27578C5.82292 2.89661 6.28613 2.70703 6.8334 2.70703H15.4375L21.125 8.39453V21.332C21.125 21.8792 20.9354 22.3424 20.5563 22.7216C20.1771 23.1008 19.7139 23.2904 19.1666 23.2904H6.8334ZM14.625 9.20703H19.5L14.625 4.33203V9.20703Z" fill="#666666"/>
</svg>
