<svg width="24" height="24" viewBox="0 0 24 24" fill="#fff" xmlns="http://www.w3.org/2000/svg">
<path d="M11.7432 12.9198H9.16811L8.61313 14.9621H7L9.54551 7H11.4102L13.9705 14.9473H12.3056L11.7432 12.9198ZM11.4028 11.684L11.166 10.8183C10.9219 9.98949 10.7073 9.07933 10.4705 8.21357H10.4261C10.2189 9.08673 9.98209 9.98949 9.7453 10.8183L9.5159 11.684H11.4028Z" fill="#0E73C3"/>
<path fill-rule="evenodd" clip-rule="evenodd" d="M2 3H19V11H20V3V2H19H2H1V3V20V21H2H13V20H2V3Z" fill="#666666"/>
<path d="M23 17.5C23 18.39 22.7361 19.26 22.2416 20.0001C21.7472 20.7401 21.0443 21.3169 20.2221 21.6575C19.3998 21.9981 18.495 22.0872 17.6221 21.9135C16.7492 21.7399 15.9474 21.3113 15.318 20.682C14.6887 20.0526 14.2601 19.2508 14.0865 18.3779C13.9128 17.505 14.0019 16.6002 14.3425 15.7779C14.6831 14.9557 15.2599 14.2528 15.9999 13.7584C16.74 13.2639 17.61 13 18.5 13C19.6924 13.0035 20.835 13.4787 21.6781 14.3219C22.5213 15.165 22.9965 16.3076 23 17.5V17.5Z" stroke="#0E73C3" stroke-width="1.03349" stroke-linejoin="round"/>
<path d="M18 17H19V20H18V17Z" fill="#0E73C3"/>
<path d="M18.0013 15.5006C17.9962 15.4338 18.006 15.3667 18.0299 15.3038C18.0539 15.241 18.0915 15.1839 18.1401 15.1365C18.1888 15.0891 18.2474 15.0525 18.3119 15.0292C18.3764 15.0058 18.4453 14.9963 18.514 15.0013C18.5806 14.9993 18.6469 15.011 18.7085 15.0358C18.7701 15.0606 18.8256 15.0978 18.8713 15.1449C18.9171 15.1921 18.952 15.2482 18.9739 15.3095C18.9958 15.3709 19.004 15.436 18.9982 15.5006C19.0016 15.5648 18.9917 15.6289 18.969 15.6892C18.9462 15.7495 18.9112 15.8046 18.8659 15.8513C18.8206 15.898 18.7661 15.9353 18.7056 15.9608C18.6451 15.9864 18.5799 15.9997 18.514 16C18.4466 16.0003 18.3798 15.9875 18.3175 15.9625C18.2552 15.9375 18.1985 15.9007 18.1509 15.8543C18.1032 15.8079 18.0655 15.7527 18.0398 15.692C18.0141 15.6313 18.0011 15.5663 18.0013 15.5006Z" fill="#0E73C3"/>
</svg>
