<svg width="16" height="16" viewBox="0 0 16 16" fill="none" xmlns="http://www.w3.org/2000/svg">
<path d="M0.916504 15.0827V12.2623L11.9086 1.27497C12.0346 1.16053 12.1737 1.07213 12.3259 1.00977C12.4782 0.947266 12.638 0.916016 12.805 0.916016C12.9721 0.916016 13.1339 0.945669 13.2905 1.00497C13.4471 1.06428 13.5858 1.15858 13.7065 1.28789L14.7242 2.31831C14.8535 2.439 14.9457 2.57789 15.0007 2.73497C15.0557 2.89206 15.0832 3.04914 15.0832 3.20622C15.0832 3.37386 15.0546 3.53379 14.9973 3.68602C14.9401 3.83838 14.8491 3.97754 14.7242 4.10352L3.73692 15.0827H0.916504ZM12.6265 4.41122L13.8332 3.21247L12.7867 2.16602L11.588 3.37268L12.6265 4.41122Z" fill="#666666"/>
</svg>
