<svg width="16" height="17" viewBox="0 0 16 17" fill="none" xmlns="http://www.w3.org/2000/svg">
<path d="M2 15.0008H5.34625V9.96234C5.34625 9.70634 5.43283 9.49168 5.606 9.31835C5.77933 9.14518 5.994 9.05859 6.25 9.05859H9.75C10.006 9.05859 10.2207 9.14518 10.394 9.31835C10.5672 9.49168 10.6538 9.70634 10.6538 9.96234V15.0008H14V6.15459C14 6.10343 13.9888 6.05701 13.9663 6.01534C13.9439 5.97368 13.9135 5.93676 13.875 5.90459L8.18275 1.62584C8.13142 1.58101 8.0705 1.55859 8 1.55859C7.9295 1.55859 7.86858 1.58101 7.81725 1.62584L2.125 5.90459C2.0865 5.93676 2.05608 5.97368 2.03375 6.01534C2.01125 6.05701 2 6.10343 2 6.15459V15.0008ZM0.5 15.0008V6.15459C0.5 5.86843 0.564 5.59734 0.692 5.34134C0.820166 5.08518 0.997167 4.87426 1.223 4.70859L6.9155 0.420094C7.23133 0.179094 7.59233 0.0585938 7.9985 0.0585938C8.40467 0.0585938 8.76667 0.179094 9.0845 0.420094L14.777 4.70859C15.0028 4.87426 15.1798 5.08518 15.308 5.34134C15.436 5.59734 15.5 5.86843 15.5 6.15459V15.0008C15.5 15.4098 15.3523 15.7621 15.0568 16.0576C14.7613 16.3531 14.409 16.5008 14 16.5008H10.0577C9.80158 16.5008 9.58692 16.4142 9.41375 16.2408C9.24042 16.0677 9.15375 15.853 9.15375 15.5968V10.5586H6.84625V15.5968C6.84625 15.853 6.75958 16.0677 6.58625 16.2408C6.41308 16.4142 6.19842 16.5008 5.94225 16.5008H2C1.591 16.5008 1.23875 16.3531 0.94325 16.0576C0.64775 15.7621 0.5 15.4098 0.5 15.0008Z" fill="#666666"/>
</svg>
