<svg width="26" height="26" viewBox="0 0 26 26" fill="none" xmlns="http://www.w3.org/2000/svg">
<path d="M19.6354 14.8946V11.6446H16.3854V10.0196H19.6354V6.76959H21.2604V10.0196H24.5104V11.6446H21.2604V14.8946H19.6354ZM9.75 12.6654C8.70729 12.6654 7.81471 12.2941 7.07227 11.5517C6.32965 10.8091 5.95833 9.91641 5.95833 8.8737C5.95833 7.83099 6.32965 6.93841 7.07227 6.19597C7.81471 5.45334 8.70729 5.08203 9.75 5.08203C10.7927 5.08203 11.6853 5.45334 12.4277 6.19597C13.1704 6.93841 13.5417 7.83099 13.5417 8.8737C13.5417 9.91641 13.1704 10.8091 12.4277 11.5517C11.6853 12.2941 10.7927 12.6654 9.75 12.6654ZM1.625 20.9155V18.507C1.625 17.9765 1.76908 17.4852 2.05725 17.0331C2.34542 16.581 2.73054 16.2334 3.21263 15.9904C4.28332 15.4655 5.36349 15.0718 6.45315 14.8093C7.5428 14.5468 8.64175 14.4155 9.75 14.4155C10.8582 14.4155 11.9572 14.5468 13.0469 14.8093C14.1365 15.0718 15.2167 15.4655 16.2874 15.9904C16.7695 16.2334 17.1546 16.581 17.4427 17.0331C17.7309 17.4852 17.875 17.9765 17.875 18.507V20.9155H1.625Z" fill="#666666"/>
</svg>
