<svg width="30" height="30" viewBox="0 0 30 30" fill="none" xmlns="http://www.w3.org/2000/svg">
<path d="M2 9.20688C2 7.21167 2.70229 5.51167 4.10688 4.10687C5.51167 2.70229 7.21167 2 9.20688 2L9.21875 3.89438C7.74771 3.89438 6.4925 4.41396 5.45313 5.45313C4.41396 6.4925 3.89438 7.74771 3.89438 9.21875L2 9.20688ZM6.8775 23.1178C5.09375 21.3341 4.20385 19.193 4.20781 16.6947C4.21198 14.1964 5.1099 12.0514 6.90156 10.2597L9.36531 7.77656L9.83656 8.2475C10.3686 8.77958 10.6427 9.42188 10.6588 10.1744C10.6748 10.9267 10.4207 11.5649 9.89656 12.0891L9.17063 12.8028C8.94479 13.0289 8.83188 13.2977 8.83188 13.6094C8.83188 13.921 8.94479 14.1899 9.17063 14.4159L9.92313 15.1681C10.4727 15.7179 10.7475 16.3822 10.7475 17.1609C10.7475 17.9399 10.4727 18.6042 9.92313 19.1538L9.68281 19.3941L10.75 20.4494L10.9903 20.2213C11.8349 19.3767 12.2572 18.3598 12.2572 17.1706C12.2572 15.9815 11.8285 14.9582 10.9713 14.1009L10.4759 13.5938L11.0409 13.0288C11.4384 12.6154 11.7236 12.1583 11.8966 11.6575C12.0697 11.1567 12.1515 10.6402 12.1419 10.1081L17.4109 4.82688C17.6049 4.63313 17.8277 4.53625 18.0794 4.53625C18.3308 4.53625 18.5535 4.63313 18.7475 4.82688C18.9415 5.02083 19.0384 5.24365 19.0384 5.49531C19.0384 5.74677 18.9415 5.96948 18.7475 6.16344L13.1441 11.7669L14.8053 13.4278L22.1203 6.12031C22.3141 5.92635 22.5335 5.82937 22.7788 5.82937C23.024 5.82937 23.2435 5.92635 23.4375 6.12031C23.6315 6.31427 23.7284 6.53375 23.7284 6.77875C23.7284 7.02396 23.6315 7.24354 23.4375 7.4375L16.1297 14.7525L17.7909 16.4134L24.2234 9.99281C24.4174 9.79886 24.6402 9.70188 24.8919 9.70188C25.1433 9.70188 25.366 9.79886 25.56 9.99281C25.754 10.1868 25.8509 10.4095 25.8509 10.6609C25.8509 10.9126 25.754 11.1354 25.56 11.3294L19.1275 17.75L20.8003 19.4231L25.5144 14.7213C25.7083 14.5273 25.931 14.4303 26.1825 14.4303C26.4342 14.4303 26.657 14.5273 26.8509 14.7213C27.0449 14.9152 27.1419 15.1379 27.1419 15.3894C27.1419 15.641 27.0449 15.8639 26.8509 16.0578L19.7597 23.1178C17.968 24.9095 15.8209 25.8053 13.3184 25.8053C10.8161 25.8053 8.66917 24.9095 6.8775 23.1178ZM20.7931 28L20.7813 26.1056C22.2523 26.1056 23.5075 25.586 24.5469 24.5469C25.586 23.5075 26.1056 22.2523 26.1056 20.7813L28 20.7931C28 22.7883 27.2977 24.4883 25.8931 25.8931C24.4883 27.2977 22.7883 28 20.7931 28Z" fill="#13A9E9"/>
</svg>
