<svg width="31" height="14" viewBox="0 0 31 14" fill="none" xmlns="http://www.w3.org/2000/svg">
<path d="M9.16432 1.704V6.228H10.9323V7.242H9.16432V13.066H7.96832V1.704H9.16432ZM0.298324 10.024C3.15832 8.607 4.70532 6.566 4.96532 3.914H0.870324V2.9H6.20032C6.18732 6.189 4.73132 9.127 0.974324 10.96L0.298324 10.024Z" fill="black"/>
<path d="M17.4361 12H15.9541L19.2561 2.796H20.8681L24.1961 12H22.6881L21.8561 9.582H18.2681L17.4361 12ZM18.6841 8.412H21.4531L20.1141 4.486H20.0361L18.6841 8.412ZM24.728 10.05C24.741 8.49 26.08 8.074 27.302 7.996C27.77 7.957 28.823 7.905 29.122 7.892V7.346C29.122 6.566 28.654 6.111 27.718 6.098C26.925 6.111 26.444 6.475 26.314 6.982H24.962C25.079 5.851 26.145 5.019 27.77 5.006C28.875 5.019 30.474 5.422 30.474 7.424V12H29.148V11.064H29.096C28.849 11.571 28.212 12.156 27.068 12.156C25.755 12.156 24.741 11.402 24.728 10.05ZM26.054 10.076C26.067 10.726 26.613 11.064 27.354 11.064C28.472 11.064 29.135 10.336 29.122 9.504V8.88L27.51 8.984C26.626 9.049 26.067 9.387 26.054 10.076Z" fill="black"/>
</svg>
