<svg width="25" height="14" viewBox="0 0 25 14" fill="none" xmlns="http://www.w3.org/2000/svg">
<path d="M7.31871 3.08V6.56H8.67871V7.34H7.31871V11.82H6.39871V3.08H7.31871ZM0.498711 9.48C2.69871 8.39 3.88871 6.82 4.08871 4.78H0.938711V4H5.03871C5.02871 6.53 3.90871 8.79 1.01871 10.2L0.498711 9.48Z" fill="black"/>
<path d="M14.3354 11H13.1954L15.7354 3.92H16.9754L19.5354 11H18.3754L17.7354 9.14H14.9754L14.3354 11ZM15.2954 8.24H17.4254L16.3954 5.22H16.3354L15.2954 8.24ZM19.9446 9.5C19.9546 8.3 20.9846 7.98 21.9246 7.92C22.2846 7.89 23.0946 7.85 23.3246 7.84V7.42C23.3246 6.82 22.9646 6.47 22.2446 6.46C21.6346 6.47 21.2646 6.75 21.1646 7.14H20.1246C20.2146 6.27 21.0346 5.63 22.2846 5.62C23.1346 5.63 24.3646 5.94 24.3646 7.48V11H23.3446V10.28H23.3046C23.1146 10.67 22.6246 11.12 21.7446 11.12C20.7346 11.12 19.9546 10.54 19.9446 9.5ZM20.9646 9.52C20.9746 10.02 21.3946 10.28 21.9646 10.28C22.8246 10.28 23.3346 9.72 23.3246 9.08V8.6L22.0846 8.68C21.4046 8.73 20.9746 8.99 20.9646 9.52Z" fill="black"/>
</svg>
