<svg width="20" height="20" viewBox="0 0 20 20" fill="none" xmlns="http://www.w3.org/2000/svg">
<path d="M7 12.25C6.65 12.25 6.35417 12.1292 6.1125 11.8875C5.87083 11.6458 5.75 11.35 5.75 11C5.75 10.65 5.87083 10.3542 6.1125 10.1125C6.35417 9.87083 6.65 9.75 7 9.75C7.35 9.75 7.64583 9.87083 7.8875 10.1125C8.12917 10.3542 8.25 10.65 8.25 11C8.25 11.35 8.12917 11.6458 7.8875 11.8875C7.64583 12.1292 7.35 12.25 7 12.25ZM13 12.25C12.65 12.25 12.3542 12.1292 12.1125 11.8875C11.8708 11.6458 11.75 11.35 11.75 11C11.75 10.65 11.8708 10.3542 12.1125 10.1125C12.3542 9.87083 12.65 9.75 13 9.75C13.35 9.75 13.6458 9.87083 13.8875 10.1125C14.1292 10.3542 14.25 10.65 14.25 11C14.25 11.35 14.1292 11.6458 13.8875 11.8875C13.6458 12.1292 13.35 12.25 13 12.25ZM10 18C12.2333 18 14.125 17.225 15.675 15.675C17.225 14.125 18 12.2333 18 10C18 9.6 17.975 9.2125 17.925 8.8375C17.875 8.4625 17.7833 8.1 17.65 7.75C17.3 7.83333 16.95 7.89583 16.6 7.9375C16.25 7.97917 15.8833 8 15.5 8C13.9833 8 12.55 7.675 11.2 7.025C9.85 6.375 8.7 5.46667 7.75 4.3C7.21667 5.6 6.45417 6.72917 5.4625 7.6875C4.47083 8.64583 3.31667 9.36667 2 9.85V10C2 12.2333 2.775 14.125 4.325 15.675C5.875 17.225 7.76667 18 10 18ZM10.0017 19.5C8.68775 19.5 7.45267 19.2507 6.2965 18.752C5.14033 18.2533 4.13467 17.5766 3.2795 16.7218C2.42433 15.8669 1.74725 14.8617 1.24825 13.706C0.749417 12.5503 0.5 11.3156 0.5 10.0017C0.5 8.68775 0.749333 7.45267 1.248 6.2965C1.74667 5.14033 2.42342 4.13467 3.27825 3.2795C4.13308 2.42433 5.13833 1.74725 6.294 1.24825C7.44967 0.749417 8.68442 0.5 9.99825 0.5C11.3123 0.5 12.5473 0.749333 13.7035 1.248C14.8597 1.74667 15.8653 2.42342 16.7205 3.27825C17.5757 4.13308 18.2528 5.13833 18.7518 6.294C19.2506 7.44967 19.5 8.68442 19.5 9.99825C19.5 11.3123 19.2507 12.5473 18.752 13.7035C18.2533 14.8597 17.5766 15.8653 16.7218 16.7205C15.8669 17.5757 14.8617 18.2528 13.706 18.7518C12.5503 19.2506 11.3156 19.5 10.0017 19.5ZM8.17875 2.22125C8.93642 3.61858 9.98742 4.68108 11.3318 5.40875C12.6759 6.13625 14.0653 6.5 15.5 6.5C15.7718 6.5 16.0369 6.48592 16.2952 6.45775C16.5536 6.42958 16.8154 6.38917 17.0807 6.3365C16.4127 5.00967 15.4452 3.95517 14.178 3.173C12.9107 2.391 11.518 2 10 2C9.66417 2 9.351 2.01892 9.0605 2.05675C8.77017 2.09458 8.47625 2.14942 8.17875 2.22125ZM2.28075 8.0905C3.22058 7.62 4.11292 6.9325 4.95775 6.028C5.80258 5.1235 6.34808 4.03917 6.59425 2.775C5.50058 3.27117 4.57625 3.98433 3.82125 4.9145C3.06608 5.84467 2.55258 6.90333 2.28075 8.0905Z" fill="#666666"/>
</svg>
