<svg width="24" height="24" viewBox="0 0 24 24" fill="none" xmlns="http://www.w3.org/2000/svg">
<path d="M13.5653 12.3885C14.9038 11.45 15.9564 10.416 16.7231 9.2865C17.4897 8.157 17.8731 7.0365 17.8731 5.925C17.8731 5.30833 17.7583 4.83333 17.5288 4.5C17.2993 4.16667 16.9929 4 16.6096 4C15.7301 4 14.9776 4.66567 14.3521 5.997C13.7264 7.3285 13.4136 8.9045 13.4136 10.725C13.4136 11.0482 13.4257 11.3475 13.4501 11.623C13.4744 11.8987 13.5128 12.1538 13.5653 12.3885ZM4.06156 16.127C3.92306 16.2653 3.75064 16.3329 3.54431 16.3298C3.33798 16.3266 3.16556 16.2558 3.02706 16.1173C2.88856 15.9788 2.81931 15.8042 2.81931 15.5935C2.81931 15.3828 2.88856 15.2093 3.02706 15.073L4.10006 14L3.01731 12.9173C2.87898 12.7788 2.81139 12.6047 2.81456 12.3953C2.81773 12.1856 2.88856 12.0115 3.02706 11.873C3.16556 11.7347 3.34014 11.6655 3.55081 11.6655C3.76148 11.6655 3.93498 11.7347 4.07131 11.873L5.14431 12.9558L6.22706 11.873C6.36339 11.7347 6.53689 11.6655 6.74756 11.6655C6.95823 11.6655 7.13281 11.7347 7.27131 11.873C7.40964 12.0115 7.47881 12.1861 7.47881 12.3968C7.47881 12.6074 7.40964 12.7809 7.27131 12.9173L6.18856 14L7.27131 15.0828C7.40964 15.2213 7.47881 15.3937 7.47881 15.6C7.47881 15.8063 7.40964 15.9788 7.27131 16.1173C7.13281 16.2558 6.95823 16.325 6.74756 16.325C6.53689 16.325 6.36339 16.2558 6.22706 16.1173L5.14431 15.0442L4.06156 16.127ZM15.1328 16C14.6328 16 14.1825 15.8929 13.7818 15.6788C13.3811 15.4648 13.0436 15.1314 12.7693 14.6788C12.476 14.8314 12.1735 14.984 11.8618 15.1365C11.5501 15.2892 11.2334 15.4385 10.9116 15.5845C10.7091 15.6692 10.5091 15.6733 10.3116 15.597C10.1141 15.5208 9.97814 15.3814 9.90381 15.1788C9.82948 14.9762 9.84006 14.7812 9.93556 14.5935C10.0312 14.406 10.1809 14.2684 10.3846 14.1808C10.7064 14.0346 11.0171 13.8875 11.3166 13.7395C11.6159 13.5915 11.9059 13.4386 12.1866 13.2808C12.0904 12.9141 12.0183 12.509 11.9703 12.0655C11.9221 11.622 11.8981 11.1444 11.8981 10.6328C11.8981 8.26475 12.3426 6.31733 13.2318 4.7905C14.1208 3.2635 15.2467 2.5 16.6096 2.5C17.4251 2.5 18.087 2.81125 18.5953 3.43375C19.1036 4.05608 19.3578 4.907 19.3578 5.9865C19.3578 7.38783 18.8892 8.77725 17.9521 10.1548C17.0147 11.5324 15.7281 12.7668 14.0923 13.8577C14.2346 14.0769 14.3971 14.2413 14.5798 14.351C14.7625 14.4607 14.9621 14.5155 15.1788 14.5155C15.5993 14.5155 16.0621 14.3126 16.5673 13.9067C17.0725 13.5009 17.5513 12.9474 18.0038 12.2463C18.1256 12.0706 18.2836 11.9513 18.4778 11.8885C18.6721 11.8257 18.8622 11.8362 19.0481 11.92C19.2341 12.0157 19.3726 12.159 19.4636 12.35C19.5546 12.541 19.5815 12.7429 19.5443 12.9558C19.5045 13.2776 19.4958 13.5606 19.5183 13.8048C19.5408 14.0491 19.6059 14.2738 19.7136 14.479C19.8352 14.42 19.9615 14.3466 20.0923 14.2587C20.2231 14.1709 20.3693 14.0494 20.5308 13.8942C20.686 13.7494 20.8658 13.6677 21.0703 13.649C21.2748 13.6305 21.4591 13.6848 21.6233 13.8118C21.8001 13.9514 21.8936 14.1209 21.9038 14.3203C21.9141 14.5196 21.8468 14.6917 21.7018 14.8365C21.325 15.207 20.9539 15.4936 20.5886 15.6962C20.2232 15.8987 19.8757 16 19.5461 16C19.2217 16 18.9365 15.8638 18.6903 15.5913C18.4443 15.3189 18.2552 14.9468 18.1231 14.475C17.6886 14.9558 17.2071 15.3302 16.6788 15.598C16.1506 15.866 15.6353 16 15.1328 16ZM4.35631 20.5C4.11114 20.5 3.90556 20.4171 3.73956 20.2512C3.57356 20.0854 3.49056 19.88 3.49056 19.635C3.49056 19.3898 3.57339 19.1842 3.73906 19.0182C3.90489 18.8522 4.11039 18.7693 4.35556 18.7693C4.60056 18.7693 4.80614 18.8522 4.97231 19.018C5.13831 19.1837 5.22131 19.3891 5.22131 19.6343C5.22131 19.8794 5.13839 20.085 4.97256 20.251C4.80673 20.417 4.60131 20.5 4.35631 20.5ZM8.17356 20.5C7.92839 20.5 7.72281 20.4171 7.55681 20.2512C7.39081 20.0854 7.30781 19.88 7.30781 19.635C7.30781 19.3898 7.39073 19.1842 7.55656 19.0182C7.72223 18.8522 7.92764 18.7693 8.17281 18.7693C8.41798 18.7693 8.62356 18.8522 8.78956 19.018C8.95556 19.1837 9.03856 19.3891 9.03856 19.6343C9.03856 19.8794 8.95564 20.085 8.78981 20.251C8.62398 20.417 8.41856 20.5 8.17356 20.5ZM11.9908 20.5C11.7456 20.5 11.5401 20.4171 11.3741 20.2512C11.2081 20.0854 11.1251 19.88 11.1251 19.635C11.1251 19.3898 11.208 19.1842 11.3738 19.0182C11.5396 18.8522 11.7451 18.7693 11.9901 18.7693C12.2352 18.7693 12.4408 18.8522 12.6068 19.018C12.7728 19.1837 12.8558 19.3891 12.8558 19.6343C12.8558 19.8794 12.7729 20.085 12.6071 20.251C12.4412 20.417 12.2358 20.5 11.9908 20.5ZM15.8081 20.5C15.5629 20.5 15.3573 20.4171 15.1913 20.2512C15.0253 20.0854 14.9423 19.88 14.9423 19.635C14.9423 19.3898 15.0252 19.1842 15.1911 19.0182C15.3569 18.8522 15.5623 18.7693 15.8073 18.7693C16.0525 18.7693 16.2581 18.8522 16.4241 19.018C16.5901 19.1837 16.6731 19.3891 16.6731 19.6343C16.6731 19.8794 16.5901 20.085 16.4243 20.251C16.2586 20.417 16.0532 20.5 15.8081 20.5ZM19.6253 20.5C19.3803 20.5 19.1748 20.4171 19.0088 20.2512C18.8426 20.0854 18.7596 19.88 18.7596 19.635C18.7596 19.3898 18.8425 19.1842 19.0083 19.0182C19.1741 18.8522 19.3796 18.7693 19.6248 18.7693C19.8698 18.7693 20.0753 18.8522 20.2413 19.018C20.4073 19.1837 20.4903 19.3891 20.4903 19.6343C20.4903 19.8794 20.4075 20.085 20.2418 20.251C20.076 20.417 19.8705 20.5 19.6253 20.5Z" fill="#666666"/>
</svg>
