<svg version="1.1" x="0px" y="0px" viewBox="0 0 256 256" enable-background="new 0 0 256 256" xml:space="preserve" width="24" height="24">
<g><g><path fill="#000000" d="M217.8,200.7v-28.3h-9.5v28.2H180v9.5h28.2v28.2h9.5v-28.2H246v-9.5H217.8z"/><path fill="#000000" d="M202.6,228.2H20.3c0.7-11.8,5.5-21.1,14.5-28.3c7.9-6.4,18.3-10.5,27.5-14.1h0c12.7-5,23.7-9.3,27.5-18.2l0.3-0.8l0.1-0.8c0.5-5.8,0.5-10.2,0.4-15.3v-0.1c0-0.6,0-1.3,0-1.9l0-2.5l-1.5-1.5c-3.9-3.9-8-12.7-9.5-20.1l-0.5-2.5l-2.2-1.1c-1-0.5-1.9-1.3-2.6-2.3c-1.9-2.4-3.1-6.1-3.7-10.9c-0.6-4.6,1.1-7.3,2.1-8.6l1.6-2l-0.6-2.6c-5.7-23.5-4.2-41.2,4.4-52.5C85,33,97,28.1,113.5,27.8h0.1c10.2,0,17.8,2.6,21.4,7.2l1.2,1.5l1.9,0.4c7.1,1.4,12.3,4.8,15.8,10.5c4,6.4,5.6,15.5,4.6,26.9c-0.7,8.4-2.5,15.8-3.9,20.5l-0.7,2.6l1.7,2.1c1,1.2,2.6,4,2,8.5c-0.6,4.8-1.9,8.5-3.7,10.9c-0.8,1-1.7,1.8-2.6,2.3l-2.2,1.2l-0.5,2.5c-1,5.3-3.1,10-4.2,12.3c-1.7,3.5-3.4,6.2-5.1,7.8l-1.5,1.5l0,2.1c0,0.8,0,1.5,0,2.3v0.1c0,5.1-0.1,9.5,0.4,15.4l0.1,0.8l0.3,0.8c3.9,8.9,14.8,13.2,27.4,18.2c6.6,2.6,13.8,5.4,20.2,9.2h17.2c-1.1-1.1-2.3-2.1-3.6-3.2c-9.1-7.4-20.2-11.8-30-15.6c-9.6-3.8-18.8-7.4-21.5-12.1c-0.4-4.9-0.3-8.9-0.3-13.4v-0.1c0-0.1,0-0.2,0-0.4c1.9-2.3,3.8-5.3,5.5-8.9c1.2-2.5,3.3-7.1,4.6-12.6c1.4-1,2.7-2.3,3.8-3.7c3.1-3.9,5-9.3,5.8-16c0.6-5-0.3-9.8-2.6-13.8c1.4-5.2,3-12.3,3.6-20.2c1.1-13.6-1-24.8-6.2-33.1c-4.7-7.6-11.7-12.6-20.8-14.8c-5.9-6.3-15.6-9.6-28.3-9.6c-0.1,0-0.2,0-0.2,0c-19.8,0.4-34.5,6.6-43.5,18.6c-10.2,13.5-12.5,33.3-6.7,58.8c-2.4,4-3.4,8.9-2.8,14.1c0.8,6.7,2.8,12.1,5.8,16c1.2,1.5,2.4,2.7,3.9,3.7c2,8,5.9,16.3,10.3,21.5c0,0.1,0,0.2,0,0.3v0.1c0,4.6,0.1,8.5-0.3,13.4c-2.7,4.7-11.8,8.3-21.5,12.1l1.9,4.8l-1.9-4.8c-9.9,3.9-21,8.3-30.1,15.6C16.9,201,10.9,212.8,10,227.8c-0.2,2.8,0.8,5.5,2.7,7.5c1.9,2,4.6,3.2,7.3,3.2h182.5L202.6,228.2L202.6,228.2z"/><path fill="#000000" d="M200.3,206.9v-6.3h-5.9C196.6,202.6,198.6,204.7,200.3,206.9z"/></g></g>
</svg>