<svg width="18" height="20" viewBox="0 0 18 20" fill="none" xmlns="http://www.w3.org/2000/svg">
<path d="M9 15.6345C7.96417 15.6345 6.96675 15.8124 6.00775 16.1683C5.04875 16.5241 4.16475 17.0642 3.35575 17.7885V17.9423C3.38142 17.9616 3.40708 17.976 3.43275 17.9855C3.45825 17.9952 3.48708 18 3.51925 18H14.4615C14.4937 18 14.5209 17.9952 14.5433 17.9855C14.5658 17.976 14.5898 17.9616 14.6155 17.9423V17.7885C13.8193 17.0642 12.9449 16.5241 11.9923 16.1683C11.0398 15.8124 10.0423 15.6345 9 15.6345ZM2 16.9848C2.9 16.1014 3.94583 15.4056 5.1375 14.8973C6.32917 14.3889 7.61667 14.1348 9 14.1348C10.3833 14.1348 11.6708 14.3889 12.8625 14.8973C14.0542 15.4056 15.1 16.1014 16 16.9848V4.30777C16 4.23077 15.9679 4.16026 15.9038 4.09626C15.8398 4.0321 15.7692 4.00002 15.6923 4.00002H2.30775C2.23075 4.00002 2.16025 4.0321 2.09625 4.09626C2.03208 4.16026 2 4.23077 2 4.30777V16.9848ZM9 11.75C8.0975 11.75 7.33017 11.434 6.698 10.802C6.066 10.1698 5.75 9.40252 5.75 8.50002C5.75 7.59752 6.066 6.83018 6.698 6.19801C7.33017 5.56601 8.0975 5.25002 9 5.25002C9.9025 5.25002 10.6698 5.56601 11.302 6.19801C11.934 6.83018 12.25 7.59752 12.25 8.50002C12.25 9.40252 11.934 10.1698 11.302 10.802C10.6698 11.434 9.9025 11.75 9 11.75ZM9 10.25C9.48083 10.25 9.89267 10.0785 10.2355 9.73552C10.5785 9.39268 10.75 8.98085 10.75 8.50002C10.75 8.01918 10.5785 7.60735 10.2355 7.26452C9.89267 6.92152 9.48083 6.75002 9 6.75002C8.51917 6.75002 8.10733 6.92152 7.7645 7.26452C7.4215 7.60735 7.25 8.01918 7.25 8.50002C7.25 8.98085 7.4215 9.39268 7.7645 9.73552C8.10733 10.0785 8.51917 10.25 9 10.25ZM2.30775 19.5C1.80258 19.5 1.375 19.325 1.025 18.975C0.675 18.625 0.5 18.1974 0.5 17.6923V4.30777C0.5 3.8026 0.675 3.37502 1.025 3.02502C1.375 2.67502 1.80258 2.50002 2.30775 2.50002H3.69225V1.15377C3.69225 0.934599 3.76567 0.751599 3.9125 0.604765C4.05933 0.458099 4.24233 0.384766 4.4615 0.384766C4.68083 0.384766 4.86383 0.458099 5.0105 0.604765C5.15733 0.751599 5.23075 0.934599 5.23075 1.15377V2.50002H12.8077V1.13477C12.8077 0.921932 12.8795 0.743682 13.023 0.600015C13.1667 0.456515 13.3449 0.384766 13.5577 0.384766C13.7706 0.384766 13.9488 0.456515 14.0922 0.600015C14.2359 0.743682 14.3077 0.921932 14.3077 1.13477V2.50002H15.6923C16.1974 2.50002 16.625 2.67502 16.975 3.02502C17.325 3.37502 17.5 3.8026 17.5 4.30777V17.6923C17.5 18.1974 17.325 18.625 16.975 18.975C16.625 19.325 16.1974 19.5 15.6923 19.5H2.30775ZM9 18H14.6155H3.35575H9Z" fill="#666666"/>
</svg>
