<svg width="26" height="26" viewBox="0 0 26 26" fill="none" xmlns="http://www.w3.org/2000/svg">
<path d="M6.50002 23.2904C5.74313 23.2904 5.10252 23.0282 4.57819 22.5039C4.05385 21.9795 3.79169 21.3389 3.79169 20.582V17.4572H7.04169V2.70703H22.2084V20.582C22.2084 21.3389 21.9462 21.9795 21.4219 22.5039C20.8975 23.0282 20.2569 23.2904 19.5 23.2904H6.50002ZM19.5 21.6654C19.807 21.6654 20.0643 21.5615 20.2719 21.3539C20.4795 21.1463 20.5834 20.889 20.5834 20.582V4.33203H8.66669V17.4572H18.4167V20.582C18.4167 20.889 18.5205 21.1463 18.7281 21.3539C18.9358 21.5615 19.1931 21.6654 19.5 21.6654ZM9.95829 9.4153V7.7903H19.2918V9.4153H9.95829ZM9.95829 12.5404V10.9154H19.2918V12.5404H9.95829Z" fill="#666666"/>
</svg>
