<svg width="20" height="21" viewBox="0 0 20 21" xmlns="http://www.w3.org/2000/svg">
<path d="M17.0837 6.51089V16.0782C17.0837 16.4992 16.9378 16.8555 16.6462 17.1471C16.3545 17.4388 15.9982 17.5846 15.5772 17.5846H4.42345C4.00248 17.5846 3.64616 17.4388 3.35449 17.1471C3.06283 16.8555 2.91699 16.4992 2.91699 16.0782V4.92443C2.91699 4.50345 3.06283 4.14714 3.35449 3.85547C3.64616 3.5638 4.00248 3.41797 4.42345 3.41797H13.9907L17.0837 6.51089ZM9.99845 14.8923C10.5766 14.8923 11.0687 14.69 11.4747 14.2853C11.8807 13.8805 12.0837 13.3891 12.0837 12.8109C12.0837 12.2327 11.8813 11.7406 11.4766 11.3346C11.0719 10.9287 10.5804 10.7257 10.0022 10.7257C9.42401 10.7257 8.93192 10.928 8.52595 11.3328C8.11998 11.7375 7.91699 12.2289 7.91699 12.8071C7.91699 13.3853 8.11935 13.8774 8.52408 14.2834C8.9288 14.6894 9.42026 14.8923 9.99845 14.8923ZM5.32095 8.73839H12.1637V5.82193H5.32095V8.73839Z" fill="current"/>
</svg>
