<svg version="1.1" xmlns="http://www.w3.org/2000/svg" xmlns:xlink="http://www.w3.org/1999/xlink" x="0px" y="0px" viewBox="0 0 256 256" enable-background="new 0 0 256 256" width="24" height="24">
<g><g><path fill="#000000" d="M74.7,107.7h106.7c1.5,0,3-0.6,4.1-1.6c1.1-1,1.7-2.5,1.7-3.9V29.3c0-1.5-0.6-2.9-1.7-3.9c-1.1-1-2.6-1.6-4.1-1.6H74.7c-1.5,0-3,0.6-4.1,1.6s-1.7,2.5-1.7,3.9v72.9c0,1.5,0.6,2.9,1.7,3.9C71.6,107.1,73.1,107.7,74.7,107.7z M80.4,34.9h95.2v61.7H80.4V34.9L80.4,34.9z"/><path fill="#000000" d="M71.4,181H15.8c-1.5,0-3,0.6-4.1,1.6c-1.1,1-1.7,2.5-1.7,3.9v40.1c0,1.5,0.6,2.9,1.7,3.9c1.1,1,2.6,1.6,4.1,1.6h55.7c1.5,0,3-0.6,4.1-1.6c1.1-1.1,1.7-2.5,1.7-3.9v-40.1c0-1.5-0.6-2.9-1.7-3.9C74.4,181.6,72.9,181,71.4,181z M65.7,221.1H21.5v-29h44.2L65.7,221.1L65.7,221.1z"/><path fill="#000000" d="M155.8,181h-55.7c-1.5,0-3,0.6-4.1,1.6c-1.1,1-1.7,2.5-1.7,3.9v40.1c0,1.5,0.6,2.9,1.7,3.9c1.1,1,2.6,1.6,4.1,1.6h55.7c1.5,0,3-0.6,4.1-1.6s1.7-2.5,1.7-3.9v-40.2c0-1.5-0.6-2.9-1.7-3.9C158.8,181.6,157.4,181,155.8,181z M105.9,221.1v-29h44.2v29H105.9z"/><path fill="#000000" d="M244.3,182.7c-1.1-1-2.6-1.6-4.1-1.6h-55.7c-1.5,0-3,0.6-4.1,1.6c-1.1,1-1.7,2.5-1.7,3.9v40.1c0,1.5,0.6,2.9,1.7,3.9c1.1,1,2.6,1.6,4.1,1.6h55.7c1.5,0,3-0.6,4.1-1.6s1.7-2.5,1.7-3.9v-40.1C246,185.1,245.4,183.7,244.3,182.7z M234.5,221.1h-44.2v-29h44.2V221.1z"/><path fill="#000000" d="M26.9,167.8c3.2,0,5.8-2.5,5.8-5.6v-10.7l88-0.1v11.8c0,3.1,2.6,5.6,5.8,5.6s5.8-2.5,5.8-5.6v-11.8l88,0.1v10.7c0,3.1,2.6,5.6,5.8,5.6c3.2,0,5.8-2.5,5.8-5.6v-16.3c0-3.1-2.6-5.6-5.8-5.6l-93.7-0.1v-13.5c0,0,0,0,0,0v-2.6c0-3.1-2.6-5.6-5.8-5.6c-3.2,0-5.8,2.5-5.8,5.6v16.2l-93.7,0.1c-3.2,0-5.7,2.5-5.7,5.6v16.3C21.2,165.3,23.8,167.8,26.9,167.8z"/><path fill="#000000" d="M150.8,60.1h-47.4c-3.2,0-5.8,2.5-5.8,5.6s2.6,5.6,5.8,5.6h47.4c3.2,0,5.8-2.5,5.8-5.6C156.6,62.6,154,60.1,150.8,60.1z"/><path fill="#000000" d="M150.8,78h-47.4c-3.2,0-5.8,2.5-5.8,5.6c0,3.1,2.6,5.6,5.8,5.6h47.4c3.2,0,5.8-2.5,5.8-5.6C156.6,80.4,154,78,150.8,78z"/><path fill="#000000" d="M150.8,43.2h-47.4c-3.2,0-5.8,2.5-5.8,5.6s2.6,5.6,5.8,5.6h47.4c3.2,0,5.8-2.5,5.8-5.6S154,43.2,150.8,43.2z"/></g></g>
</svg>