<svg width="24" height="24" viewBox="0 0 24 24" fill="none" xmlns="http://www.w3.org/2000/svg">
<path d="M4.30775 19.5C3.80258 19.5 3.375 19.325 3.025 18.975C2.675 18.625 2.5 18.1974 2.5 17.6923V6.30775C2.5 5.80258 2.675 5.375 3.025 5.025C3.375 4.675 3.80258 4.5 4.30775 4.5H19.6923C20.1974 4.5 20.625 4.675 20.975 5.025C21.325 5.375 21.5 5.80258 21.5 6.30775V17.6923C21.5 18.1974 21.325 18.625 20.975 18.975C20.625 19.325 20.1974 19.5 19.6923 19.5H4.30775ZM4.30775 18H19.6923C19.7821 18 19.8558 17.9712 19.9135 17.9135C19.9712 17.8558 20 17.7821 20 17.6923V6.30775C20 6.21792 19.9712 6.14417 19.9135 6.0865C19.8558 6.02883 19.7821 6 19.6923 6H4.30775C4.21792 6 4.14417 6.02883 4.0865 6.0865C4.02883 6.14417 4 6.21792 4 6.30775V17.6923C4 17.7821 4.02883 17.8558 4.0865 17.9135C4.14417 17.9712 4.21792 18 4.30775 18ZM7.0655 14.9423C7.2065 14.9423 7.32317 14.8961 7.4155 14.8038C7.50767 14.7116 7.55375 14.5949 7.55375 14.4537V9.62125C7.55375 9.46342 7.49933 9.33008 7.3905 9.22125C7.2815 9.11225 7.14817 9.05775 6.9905 9.05775C6.9135 9.05775 6.84233 9.06867 6.777 9.0905C6.7115 9.11217 6.64867 9.14483 6.5885 9.1885L5.44425 10.0078C5.34042 10.0782 5.27758 10.1722 5.25575 10.2895C5.23392 10.4068 5.2615 10.5225 5.3385 10.6365C5.409 10.7507 5.5055 10.8187 5.628 10.8405C5.75033 10.8622 5.86858 10.8377 5.98275 10.7673L6.577 10.3462V14.4537C6.577 14.5949 6.62317 14.7116 6.7155 14.8038C6.80767 14.8961 6.92433 14.9423 7.0655 14.9423ZM10.1192 14.9423H13C13.1205 14.9423 13.2243 14.8987 13.3115 14.8115C13.3987 14.7243 13.4423 14.6205 13.4423 14.5C13.4423 14.3795 13.3987 14.2757 13.3115 14.1885C13.2243 14.1013 13.1205 14.0577 13 14.0577H11.0153L10.9845 13.9885C11.309 13.6872 11.5885 13.415 11.823 13.172C12.0577 12.9292 12.2705 12.709 12.4615 12.5115C12.7487 12.218 12.9608 11.926 13.098 11.6355C13.2352 11.3452 13.3038 11.0333 13.3038 10.7C13.3038 10.2295 13.1301 9.83817 12.7828 9.526C12.4353 9.21383 11.991 9.05775 11.45 9.05775C11.1358 9.05775 10.8336 9.13367 10.5433 9.2855C10.2529 9.4375 10.0161 9.6455 9.83275 9.9095C9.75575 10.0135 9.74583 10.1257 9.803 10.2462C9.86 10.3667 9.94875 10.4488 10.0692 10.4922C10.1834 10.5359 10.3008 10.5375 10.4213 10.497C10.5417 10.4567 10.6456 10.3897 10.7327 10.2962C10.8289 10.1936 10.9376 10.1141 11.0588 10.0578C11.1799 10.0012 11.3103 9.973 11.45 9.973C11.7192 9.973 11.9378 10.0445 12.1058 10.1875C12.2738 10.3305 12.3577 10.518 12.3577 10.75C12.3577 10.9462 12.3212 11.1234 12.248 11.2817C12.175 11.4401 12.0218 11.6423 11.7885 11.8885C11.6603 12.0232 11.5232 12.1652 11.377 12.3145C11.2308 12.4638 11.0693 12.6269 10.8923 12.8038L9.798 13.8787C9.77117 13.9058 9.72442 14.016 9.65775 14.2095V14.4808C9.65775 14.6078 9.70292 14.7164 9.79325 14.8068C9.88358 14.8971 9.99225 14.9423 10.1192 14.9423ZM17 14.9423C17.568 14.9423 18.0273 14.7804 18.378 14.4567C18.7285 14.1331 18.9038 13.7142 18.9038 13.2C18.9038 12.868 18.8157 12.5869 18.6395 12.3568C18.4632 12.1266 18.2154 11.9577 17.8962 11.85V11.8C18.1551 11.6987 18.3544 11.5471 18.4943 11.3453C18.6339 11.1432 18.7038 10.891 18.7038 10.5885C18.7038 10.1385 18.54 9.77083 18.2125 9.4855C17.885 9.20033 17.4642 9.05775 16.95 9.05775C16.5975 9.05775 16.2892 9.13692 16.025 9.29525C15.7608 9.45358 15.5468 9.63975 15.3828 9.85375C15.3123 9.95125 15.3039 10.0519 15.3577 10.1557C15.4116 10.2596 15.4955 10.3384 15.6095 10.3923C15.7237 10.4359 15.8394 10.4433 15.9568 10.4145C16.0741 10.3857 16.1763 10.3244 16.2635 10.2307C16.3532 10.1346 16.456 10.0625 16.572 10.0145C16.6882 9.96633 16.8142 9.94225 16.95 9.94225C17.1858 9.94225 17.3794 10.0096 17.5307 10.1443C17.6821 10.2789 17.7578 10.4475 17.7578 10.65C17.7578 10.8962 17.668 11.0923 17.4885 11.2385C17.309 11.3847 17.0795 11.4577 16.8 11.4577C16.6795 11.4577 16.5757 11.5013 16.4885 11.5885C16.4013 11.6757 16.3577 11.7795 16.3577 11.9C16.3577 12.0205 16.4013 12.1243 16.4885 12.2115C16.5757 12.2987 16.6795 12.3423 16.8 12.3423C17.1525 12.3423 17.4336 12.4137 17.6432 12.5568C17.8529 12.6997 17.9578 12.8975 17.9578 13.15C17.9578 13.3858 17.8612 13.591 17.6683 13.7655C17.4752 13.9398 17.2525 14.027 17 14.027C16.7872 14.027 16.6077 13.9904 16.4615 13.9173C16.3153 13.8442 16.1858 13.7263 16.073 13.5635C16.0025 13.4597 15.9112 13.3901 15.799 13.3548C15.6868 13.3196 15.5737 13.3238 15.4595 13.3673C15.3352 13.4211 15.2445 13.5009 15.1875 13.6067C15.1305 13.7126 15.1289 13.8225 15.1827 13.9365C15.3661 14.257 15.6112 14.5048 15.9183 14.6798C16.2252 14.8548 16.5858 14.9423 17 14.9423Z" fill="#666666"/>
</svg>
