<svg width="24" height="25" viewBox="0 0 24 25" xmlns="http://www.w3.org/2000/svg">
<path d="M8.11518 19.6468C7.70268 19.6468 7.34951 19.4999 7.05568 19.2063C6.76201 18.9124 6.61518 18.5593 6.61518 18.1468V16.5508C6.61518 16.2946 6.70176 16.0799 6.87493 15.9068C7.04826 15.7336 7.26293 15.647 7.51893 15.647H9.49968V12.8968C8.97401 12.9341 8.43651 12.8813 7.88718 12.7383C7.33784 12.5953 6.8606 12.3424 6.45543 11.9795C6.36143 11.8887 6.28693 11.7865 6.23193 11.673C6.17709 11.5595 6.14968 11.4393 6.14968 11.3123V10.4545H5.24193C5.12426 10.4545 5.01026 10.4328 4.89993 10.3893C4.78959 10.3456 4.68793 10.2774 4.59493 10.1845L2.50518 8.09478C2.31951 7.90895 2.23143 7.69237 2.24093 7.44503C2.25059 7.19753 2.35226 6.98662 2.54593 6.81228C3.02926 6.39945 3.63118 6.09495 4.35168 5.89878C5.07218 5.70262 5.75484 5.60453 6.39968 5.60453C6.94518 5.60453 7.47543 5.66678 7.99043 5.79128C8.50559 5.91561 9.00868 6.1207 9.49968 6.40653V6.22378C9.49968 5.82712 9.63768 5.49078 9.91368 5.21478C10.1897 4.93878 10.526 4.80078 10.9227 4.80078H18.6964C19.1921 4.80078 19.6166 4.97778 19.9699 5.33178C20.3231 5.68578 20.4997 6.11136 20.4997 6.60853V17.1468C20.4997 17.8456 20.2577 18.4369 19.7737 18.9208C19.2897 19.4048 18.6983 19.6468 17.9997 19.6468H8.11518ZM10.9997 15.647H16.1152C16.36 15.647 16.5686 15.7332 16.7409 15.9055C16.9134 16.078 16.9997 16.2867 16.9997 16.5315V17.1468C16.9997 17.4301 17.0955 17.6676 17.2872 17.8593C17.4788 18.0509 17.7163 18.1468 17.9997 18.1468C18.283 18.1468 18.5205 18.0509 18.7122 17.8593C18.9038 17.6676 18.9997 17.4301 18.9997 17.1468V6.60853C18.9997 6.5187 18.9708 6.44495 18.9132 6.38728C18.8555 6.32962 18.7818 6.30078 18.6919 6.30078H11.3074C11.2176 6.30078 11.1438 6.32962 11.0862 6.38728C11.0285 6.44495 10.9997 6.5187 10.9997 6.60853V7.40078L16.5419 12.943C16.6564 13.0552 16.7264 13.1829 16.7519 13.3263C16.7773 13.4694 16.7586 13.6105 16.6959 13.7495C16.6331 13.8887 16.5451 13.9993 16.4319 14.0813C16.3189 14.1634 16.1744 14.2045 15.9984 14.2045C15.8979 14.2045 15.8008 14.1829 15.7072 14.1395C15.6133 14.0962 15.5352 14.0435 15.4727 13.9815L12.7497 11.2585L12.3669 11.641C12.1529 11.8552 11.9343 12.0411 11.7112 12.1988C11.4882 12.3564 11.251 12.4853 10.9997 12.5853V15.647ZM5.50343 8.95453H6.74593C7.00193 8.95453 7.21659 9.0412 7.38993 9.21453C7.56309 9.3877 7.64968 9.60236 7.64968 9.85853V11.0085C7.92018 11.1804 8.18301 11.2976 8.43818 11.3603C8.69335 11.4231 8.94851 11.4545 9.20368 11.4545C9.62284 11.4545 10.0026 11.3866 10.3429 11.2508C10.6833 11.1149 11.0098 10.8906 11.3227 10.5778L11.6959 10.2045L10.1227 8.63153C9.61368 8.12253 9.04318 7.74078 8.41118 7.48628C7.77918 7.23178 7.10868 7.10453 6.39968 7.10453C5.98934 7.10453 5.59418 7.14878 5.21418 7.23728C4.83401 7.32578 4.47784 7.4457 4.14568 7.59703L5.50343 8.95453ZM15.4997 17.1468H8.11518V18.1468H15.7267C15.6447 18.0033 15.5863 17.8471 15.5517 17.6783C15.517 17.5096 15.4997 17.3324 15.4997 17.1468Z" fill="current"/>
</svg>
