<svg width="18" height="19" viewBox="0 0 18 19" fill="none" xmlns="http://www.w3.org/2000/svg">
<path d="M5.48081 16.0003C5.10681 16.0003 4.78731 15.8679 4.52231 15.603C4.25744 15.338 4.125 15.0185 4.125 14.6445V5.12529H3.375V4.00029H6.75V3.33691H11.25V4.00029H14.625V5.12529H13.875V14.6445C13.875 15.0234 13.7438 15.344 13.4813 15.6065C13.2188 15.869 12.8981 16.0003 12.5192 16.0003H5.48081ZM12.75 5.12529H5.25V14.6445C5.25 14.7119 5.27162 14.7672 5.31487 14.8104C5.35812 14.8537 5.41344 14.8753 5.48081 14.8753H12.5192C12.5769 14.8753 12.6298 14.8512 12.6778 14.8031C12.7259 14.7551 12.75 14.7022 12.75 14.6445V5.12529ZM7.053 13.3753H8.17781V6.62529H7.053V13.3753ZM9.82219 13.3753H10.947V6.62529H9.82219V13.3753Z" fill="current"/>
</svg>
