<svg width="24" height="25" viewBox="0 0 24 25" xmlns="http://www.w3.org/2000/svg">
<path d="M12 12.7617C11.3013 12.7617 10.71 12.5197 10.226 12.0357C9.742 11.5517 9.5 10.9604 9.5 10.2617C9.5 9.56305 9.742 8.97172 10.226 8.48772C10.71 8.00372 11.3013 7.76172 12 7.76172C12.6987 7.76172 13.29 8.00372 13.774 8.48772C14.258 8.97172 14.5 9.56305 14.5 10.2617C14.5 10.9604 14.258 11.5517 13.774 12.0357C13.29 12.5197 12.6987 12.7617 12 12.7617ZM12 20.7425L7.68075 22.1097C7.38592 22.2136 7.11542 22.1742 6.86925 21.9917C6.62308 21.8092 6.5 21.5659 6.5 21.2617V15.3347C5.86667 14.6732 5.375 13.9078 5.025 13.0385C4.675 12.1693 4.5 11.2437 4.5 10.2617C4.5 8.16805 5.22642 6.39464 6.67925 4.94147C8.13208 3.4883 9.90517 2.76172 11.9985 2.76172C14.0918 2.76172 15.8654 3.4883 17.3193 4.94147C18.7731 6.39464 19.5 8.16805 19.5 10.2617C19.5 11.2437 19.325 12.1693 18.975 13.0385C18.625 13.9078 18.1333 14.6732 17.5 15.3347V21.2617C17.5 21.5659 17.3769 21.8092 17.1307 21.9917C16.8846 22.1742 16.6141 22.2136 16.3193 22.1097L12 20.7425ZM12 16.2617C13.6667 16.2617 15.0833 15.6784 16.25 14.5117C17.4167 13.3451 18 11.9284 18 10.2617C18 8.59505 17.4167 7.17839 16.25 6.01172C15.0833 4.84505 13.6667 4.26172 12 4.26172C10.3333 4.26172 8.91667 4.84505 7.75 6.01172C6.58333 7.17839 6 8.59505 6 10.2617C6 11.9284 6.58333 13.3451 7.75 14.5117C8.91667 15.6784 10.3333 16.2617 12 16.2617ZM8 20.2962L12 19.2232L16 20.2962V16.581C15.4295 16.9528 14.8044 17.2426 14.1248 17.4502C13.4452 17.6579 12.7363 17.7617 11.998 17.7617C11.2597 17.7617 10.5513 17.6579 9.873 17.4502C9.19483 17.2426 8.5705 16.9528 8 16.581V20.2962Z" fill="current"/>
</svg>
