<svg width="24" height="25" viewBox="0 0 24 25" xmlns="http://www.w3.org/2000/svg">
<path d="M12 18.4012C13.223 18.4012 14.2692 17.9667 15.1385 17.0975C16.0077 16.2282 16.4423 15.182 16.4423 13.959C16.4423 12.736 16.0077 11.6898 15.1385 10.8205C14.2692 9.95132 13.223 9.51673 12 9.51673C11.3282 9.51673 10.7237 9.65265 10.1865 9.92448C9.64933 10.1962 9.18333 10.532 8.7885 10.932V9.30523H7.59625V13.0552H11.3463V11.8627H9.56525C9.83592 11.5307 10.184 11.2555 10.6095 11.037C11.0352 10.8183 11.4987 10.709 12 10.709C12.9 10.709 13.6667 11.0257 14.3 11.659C14.9333 12.2923 15.25 13.059 15.25 13.959C15.25 14.859 14.9333 15.6257 14.3 16.259C13.6667 16.8923 12.9 17.209 12 17.209C11.2667 17.209 10.625 16.9965 10.075 16.5715C9.525 16.1465 9.13333 15.609 8.9 14.959H7.65775C7.91025 15.9847 8.43525 16.8147 9.23275 17.4492C10.0301 18.0839 10.9525 18.4012 12 18.4012ZM6.30775 22.459C5.80258 22.459 5.375 22.284 5.025 21.934C4.675 21.584 4.5 21.1564 4.5 20.6512V5.26673C4.5 4.76157 4.675 4.33398 5.025 3.98398C5.375 3.63398 5.80258 3.45898 6.30775 3.45898H13.7885L19.5 9.17049V20.6512C19.5 21.1564 19.325 21.584 18.975 21.934C18.625 22.284 18.1974 22.459 17.6923 22.459H6.30775Z" fill="current"/>
</svg>
