<svg width="16" height="16" viewBox="0 0 16 16" xmlns="http://www.w3.org/2000/svg">
<path d="M0.333252 11.8583V11.0454C0.333252 10.6019 0.564863 10.2375 1.02809 9.95243C1.49142 9.66743 2.09531 9.52493 2.83975 9.52493C2.96275 9.52493 3.08664 9.52876 3.21142 9.53643C3.3362 9.54409 3.46186 9.55904 3.58842 9.58126C3.45853 9.78904 3.36214 10.0046 3.29925 10.2281C3.23647 10.4516 3.20509 10.6809 3.20509 10.9159V11.8583H0.333252ZM4.33325 11.8583V10.9416C4.33325 10.6295 4.42086 10.3442 4.59609 10.0858C4.77131 9.82721 5.02386 9.60182 5.35375 9.40959C5.68364 9.21726 6.07342 9.07304 6.52309 8.97693C6.97264 8.88071 7.46409 8.83259 7.99742 8.83259C8.54097 8.83259 9.03753 8.88071 9.48709 8.97693C9.93664 9.07304 10.3264 9.21726 10.6563 9.40959C10.9863 9.60182 11.2371 9.82721 11.4089 10.0858C11.5807 10.3442 11.6666 10.6295 11.6666 10.9416V11.8583H4.33325ZM12.7948 11.8583V10.9179C12.7948 10.6671 12.7651 10.4308 12.7058 10.2089C12.6463 9.98715 12.5572 9.77793 12.4384 9.58126C12.5692 9.55904 12.6942 9.54409 12.8134 9.53643C12.9326 9.52876 13.0504 9.52493 13.1666 9.52493C13.911 9.52493 14.5138 9.66576 14.9749 9.94743C15.436 10.229 15.6666 10.595 15.6666 11.0454V11.8583H12.7948ZM5.38459 10.8583H10.6256V10.7878C10.5573 10.5185 10.2735 10.292 9.77425 10.1083C9.27514 9.92448 8.6837 9.83259 7.99992 9.83259C7.31614 9.83259 6.7247 9.92448 6.22559 10.1083C5.72636 10.292 5.44603 10.5185 5.38459 10.7878V10.8583ZM2.83792 8.87743C2.5237 8.87743 2.25525 8.7657 2.03259 8.54226C1.80992 8.31882 1.69859 8.05021 1.69859 7.73643C1.69859 7.41854 1.81036 7.14998 2.03392 6.93076C2.25736 6.71154 2.52597 6.60193 2.83975 6.60193C3.15764 6.60193 3.42725 6.71154 3.64859 6.93076C3.87003 7.14998 3.98075 7.41921 3.98075 7.73843C3.98075 8.04821 3.8712 8.31548 3.65209 8.54026C3.43309 8.76504 3.1617 8.87743 2.83792 8.87743ZM13.1666 8.87743C12.8555 8.87743 12.5875 8.76504 12.3628 8.54026C12.138 8.31548 12.0256 8.04821 12.0256 7.73843C12.0256 7.41921 12.138 7.14998 12.3628 6.93076C12.5875 6.71154 12.8559 6.60193 13.1678 6.60193C13.4892 6.60193 13.7595 6.71154 13.9788 6.93076C14.198 7.14998 14.3076 7.41854 14.3076 7.73643C14.3076 8.05021 14.1983 8.31882 13.9796 8.54226C13.7609 8.7657 13.4899 8.87743 13.1666 8.87743ZM8.00225 8.33259C7.52203 8.33259 7.11314 8.16432 6.77559 7.82776C6.43803 7.49132 6.26925 7.0827 6.26925 6.60193C6.26925 6.11148 6.43747 5.70043 6.77392 5.36876C7.11047 5.03698 7.51914 4.87109 7.99992 4.87109C8.49025 4.87109 8.90131 5.03676 9.23309 5.36809C9.56475 5.69932 9.73059 6.10982 9.73059 6.59959C9.73059 7.07971 9.56497 7.48859 9.23375 7.82626C8.90242 8.16382 8.49192 8.33259 8.00225 8.33259ZM8.00309 7.33259C8.20697 7.33259 8.3792 7.26126 8.51975 7.11859C8.66042 6.97582 8.73075 6.80248 8.73075 6.59859C8.73075 6.39482 8.6607 6.22259 8.52059 6.08193C8.38047 5.94137 8.20692 5.87109 7.99992 5.87109C7.79825 5.87109 7.62603 5.94115 7.48325 6.08126C7.34047 6.22126 7.26909 6.39482 7.26909 6.60193C7.26909 6.80359 7.34047 6.97582 7.48325 7.11859C7.62603 7.26126 7.79931 7.33259 8.00309 7.33259Z" fill="current"/>
</svg>
