<svg width="18" height="19" viewBox="0 0 18 19" fill="none" xmlns="http://www.w3.org/2000/svg">
<path d="M6.1875 13.9375H11.8125V12.8125H6.1875V13.9375ZM6.1875 10.9375H11.8125V9.8125H6.1875V10.9375ZM4.73081 16.75C4.35194 16.75 4.03125 16.6188 3.76875 16.3563C3.50625 16.0938 3.375 15.7731 3.375 15.3942V3.85581C3.375 3.47694 3.50625 3.15625 3.76875 2.89375C4.03125 2.63125 4.35194 2.5 4.73081 2.5H10.6875L14.625 6.4375V15.3942C14.625 15.7731 14.4938 16.0938 14.2313 16.3563C13.9688 16.6188 13.6481 16.75 13.2692 16.75H4.73081ZM10.125 7V3.625H4.73081C4.67306 3.625 4.62019 3.64906 4.57219 3.69719C4.52406 3.74519 4.5 3.79806 4.5 3.85581V15.3942C4.5 15.4519 4.52406 15.5048 4.57219 15.5528C4.62019 15.6009 4.67306 15.625 4.73081 15.625H13.2692C13.3269 15.625 13.3798 15.6009 13.4278 15.5528C13.4759 15.5048 13.5 15.4519 13.5 15.3942V7H10.125Z" fill="current"/>
</svg>
