<svg width="14" height="13" viewBox="0 0 14 13"  xmlns="http://www.w3.org/2000/svg">
<path d="M4.77934 12.346L0.987004 8.55366C0.880226 8.44632 0.800115 8.32827 0.746671 8.19949C0.693226 8.0706 0.666504 7.93671 0.666504 7.79782C0.666504 7.65893 0.693226 7.52543 0.746671 7.39732C0.800115 7.2691 0.880226 7.15155 0.987004 7.04466L4.75634 3.28566L2.91267 1.46782L3.6895 0.660156L10.0748 7.05166C10.1813 7.1581 10.2595 7.27555 10.3095 7.40399C10.3595 7.53243 10.3845 7.66627 10.3845 7.80549C10.3845 7.9446 10.3595 8.07838 10.3095 8.20682C10.2595 8.33527 10.1811 8.45305 10.0742 8.56016L6.28834 12.346C6.18145 12.4528 6.06389 12.5329 5.93567 12.5863C5.80756 12.6398 5.67406 12.6665 5.53517 12.6665C5.39628 12.6665 5.26239 12.6398 5.1335 12.5863C5.00473 12.5329 4.88667 12.4528 4.77934 12.346ZM5.53067 4.05999L1.9255 7.66516C1.89984 7.69082 1.88273 7.71649 1.87417 7.74216C1.86562 7.76782 1.86134 7.79343 1.86134 7.81899H9.19984C9.19984 7.79343 9.19556 7.76782 9.187 7.74216C9.17845 7.71649 9.16134 7.69082 9.13567 7.66516L5.53067 4.05999ZM12.0395 12.6665C11.6823 12.6665 11.3819 12.5409 11.1383 12.2898C10.8947 12.0386 10.7728 11.7308 10.7728 11.3665C10.7728 11.0964 10.8361 10.8387 10.9627 10.5933C11.0891 10.3481 11.2404 10.1127 11.4165 9.88699L12.0395 9.10232L12.696 9.88699C12.8652 10.1127 13.0148 10.3481 13.1447 10.5933C13.2746 10.8387 13.3395 11.0964 13.3395 11.3665C13.3395 11.7308 13.2122 12.0386 12.9575 12.2898C12.7028 12.5409 12.3968 12.6665 12.0395 12.6665Z" />
</svg>
