<svg width="24" height="25" viewBox="0 0 24 25" xmlns="http://www.w3.org/2000/svg">
<path d="M12.0001 19.3738L10.4001 20.591C10.2193 20.7282 10.0401 20.7324 9.86263 20.6035C9.68513 20.4747 9.63163 20.3032 9.70213 20.089L10.3309 18.0968L8.75588 16.9795C8.57522 16.859 8.52172 16.6934 8.59538 16.4825C8.66905 16.2715 8.81297 16.166 9.02713 16.166H10.9349L11.6539 13.8275L8.18088 11.7853C7.86805 11.6019 7.62513 11.3555 7.45213 11.046C7.27897 10.7364 7.19238 10.393 7.19238 10.016V4.35853C7.19238 3.8597 7.36905 3.4337 7.72238 3.08053C8.07555 2.72736 8.50147 2.55078 9.00013 2.55078H15.0001C15.4988 2.55078 15.9247 2.72736 16.2779 3.08053C16.6312 3.4337 16.8079 3.8597 16.8079 4.35853V10.016C16.8079 10.3865 16.7181 10.7234 16.5386 11.0268C16.3591 11.3299 16.113 11.5764 15.8001 11.766L12.3464 13.8275L13.0654 16.166H14.9731C15.1873 16.166 15.3312 16.2715 15.4049 16.4825C15.4785 16.6934 15.4251 16.859 15.2444 16.9795L13.6694 18.0968L14.2981 20.089C14.3686 20.3032 14.3151 20.4747 14.1376 20.6035C13.9601 20.7324 13.781 20.7282 13.6001 20.591L12.0001 19.3738ZM8.69238 4.35853V10.016C8.69238 10.1122 8.71647 10.2004 8.76463 10.2805C8.81263 10.3607 8.8783 10.4264 8.96163 10.4778L11.2501 11.8315V4.05078H9.00013C8.9103 4.05078 8.83655 4.07962 8.77888 4.13728C8.72122 4.19495 8.69238 4.2687 8.69238 4.35853ZM15.0001 4.05078H12.7501V11.8315L15.0386 10.4778C15.122 10.4264 15.1876 10.3607 15.2356 10.2805C15.2838 10.2004 15.3079 10.1122 15.3079 10.016V4.35853C15.3079 4.2687 15.279 4.19495 15.2214 4.13728C15.1637 4.07962 15.09 4.05078 15.0001 4.05078Z" fill="current"/>
</svg>
