<svg width="22" height="23" viewBox="0 0 22 23" xmlns="http://www.w3.org/2000/svg">
<path d="M11 10.8014C10.1177 10.8014 9.36245 10.4873 8.73423 9.8591C8.10585 9.23072 7.79167 8.47539 7.79167 7.5931C7.79167 6.71081 8.10585 5.95555 8.73423 5.32733C9.36245 4.69895 10.1177 4.38477 11 4.38477C11.8823 4.38477 12.6375 4.69895 13.2658 5.32733C13.8941 5.95555 14.2083 6.71081 14.2083 7.5931C14.2083 8.47539 13.8941 9.23072 13.2658 9.8591C12.6375 10.4873 11.8823 10.8014 11 10.8014ZM4.125 17.7823V15.7443C4.125 15.2955 4.24692 14.8798 4.49075 14.4972C4.73458 14.1146 5.06046 13.8205 5.46837 13.6149C6.37435 13.1708 7.28834 12.8377 8.21035 12.6155C9.13237 12.3934 10.0623 12.2823 11 12.2823C11.9378 12.2823 12.8676 12.3934 13.7896 12.6155C14.7117 12.8377 15.6257 13.1708 16.5316 13.6149C16.9395 13.8205 17.2654 14.1146 17.5092 14.4972C17.7531 14.8798 17.875 15.2955 17.875 15.7443V17.7823H4.125ZM5.5 16.4073H16.5V15.7443C16.5 15.5587 16.4462 15.3868 16.3387 15.2287C16.2311 15.0707 16.0851 14.9418 15.9007 14.8419C15.1109 14.4529 14.3056 14.1582 13.4849 13.9577C12.664 13.7575 11.8357 13.6573 11 13.6573C10.1643 13.6573 9.33602 13.7575 8.51515 13.9577C7.69442 14.1582 6.88913 14.4529 6.09927 14.8419C5.91487 14.9418 5.76889 15.0707 5.66133 15.2287C5.55378 15.3868 5.5 15.5587 5.5 15.7443V16.4073ZM11 9.42643C11.5042 9.42643 11.9358 9.24692 12.2948 8.88789C12.6538 8.52886 12.8333 8.09727 12.8333 7.5931C12.8333 7.08893 12.6538 6.65734 12.2948 6.29831C11.9358 5.93928 11.5042 5.75977 11 5.75977C10.4958 5.75977 10.0642 5.93928 9.70521 6.29831C9.34618 6.65734 9.16667 7.08893 9.16667 7.5931C9.16667 8.09727 9.34618 8.52886 9.70521 8.88789C10.0642 9.24692 10.4958 9.42643 11 9.42643Z" fill="current"/>
</svg>
