<svg width="20" height="21" viewBox="0 0 20 21" xmlns="http://www.w3.org/2000/svg">
<path d="M3.58971 17.0664C3.16874 17.0664 2.81242 16.9206 2.52075 16.6289C2.22909 16.3372 2.08325 15.9809 2.08325 15.5599V6.07286C2.08325 5.65189 2.22909 5.29557 2.52075 5.00391C2.81242 4.71224 3.16874 4.56641 3.58971 4.56641H16.4101C16.8311 4.56641 17.1874 4.71224 17.4791 5.00391C17.7708 5.29557 17.9166 5.65189 17.9166 6.07286V15.5599C17.9166 15.9809 17.7708 16.3372 17.4791 16.6289C17.1874 16.9206 16.8311 17.0664 16.4101 17.0664H3.58971ZM3.58971 15.8164H12.2916V12.7395H3.33325V15.5599C3.33325 15.6241 3.35999 15.6829 3.41346 15.7362C3.46679 15.7897 3.52554 15.8164 3.58971 15.8164ZM13.5416 15.8164H16.4101C16.4743 15.8164 16.533 15.7897 16.5864 15.7362C16.6398 15.6829 16.6666 15.6241 16.6666 15.5599V8.41266H13.5416V15.8164ZM3.33325 11.4895H12.2916V8.41266H3.33325V11.4895Z" fill="current"/>
</svg>
