<svg width="24" height="25" viewBox="0 0 24 25"  xmlns="http://www.w3.org/2000/svg">
<path d="M10.95 17.6945L16.2538 12.3905L15.1693 11.306L10.9345 15.5405L8.8155 13.4215L7.74625 14.4905L10.95 17.6945ZM6.30775 21.7617C5.80258 21.7617 5.375 21.5867 5.025 21.2367C4.675 20.8867 4.5 20.4591 4.5 19.954V4.56947C4.5 4.0643 4.675 3.63672 5.025 3.28672C5.375 2.93672 5.80258 2.76172 6.30775 2.76172H14.25L19.5 8.01172V19.954C19.5 20.4591 19.325 20.8867 18.975 21.2367C18.625 21.5867 18.1974 21.7617 17.6923 21.7617H6.30775ZM13.5 8.76172V4.26172H6.30775C6.23075 4.26172 6.16025 4.2938 6.09625 4.35797C6.03208 4.42197 6 4.49247 6 4.56947V19.954C6 20.031 6.03208 20.1015 6.09625 20.1655C6.16025 20.2296 6.23075 20.2617 6.30775 20.2617H17.6923C17.7692 20.2617 17.8398 20.2296 17.9038 20.1655C17.9679 20.1015 18 20.031 18 19.954V8.76172H13.5Z" fill="current"/>
</svg>
