<svg width="24" height="25" viewBox="0 0 24 25" xmlns="http://www.w3.org/2000/svg">
<path d="M15.7726 13.4172L14.6496 12.2942C14.7996 11.466 14.5633 10.7214 13.9408 10.0604C13.3185 9.39957 12.5548 9.14416 11.6496 9.29416L10.5266 8.17116C10.7523 8.06982 10.9837 7.99382 11.2208 7.94316C11.458 7.89249 11.7176 7.86716 11.9996 7.86716C13.1343 7.86716 14.0974 8.26299 14.8891 9.05466C15.6808 9.84632 16.0766 10.8095 16.0766 11.9442C16.0766 12.2262 16.0513 12.489 16.0006 12.7327C15.9499 12.9762 15.8739 13.2043 15.7726 13.4172ZM18.9533 16.5287L17.8496 15.4942C18.4829 15.0108 19.0454 14.4817 19.5371 13.9067C20.0288 13.3317 20.4496 12.6775 20.7996 11.9442C19.9663 10.2608 18.7704 8.92332 17.2121 7.93166C15.6538 6.93999 13.9163 6.44416 11.9996 6.44416C11.5163 6.44416 11.0413 6.47749 10.5746 6.54416C10.1079 6.61082 9.64959 6.71082 9.19959 6.84416L8.03434 5.67891C8.66634 5.42757 9.31184 5.24232 9.97084 5.12316C10.6298 5.00382 11.3061 4.94416 11.9996 4.94416C14.3431 4.94416 16.4565 5.59032 18.3398 6.88266C20.2232 8.17499 21.5969 9.86216 22.4611 11.9442C22.0906 12.8377 21.6121 13.6717 21.0256 14.4462C20.4389 15.2205 19.7482 15.9147 18.9533 16.5287ZM19.7611 22.3134L15.7151 18.2979C15.2023 18.4877 14.6339 18.6429 14.0101 18.7634C13.3864 18.8839 12.7163 18.9442 11.9996 18.9442C9.64959 18.9442 7.53617 18.298 5.65934 17.0057C3.78234 15.7133 2.40859 14.0262 1.53809 11.9442C1.90725 11.0608 2.38417 10.2368 2.96884 9.47216C3.5535 8.70732 4.19709 8.04416 4.89959 7.48266L2.13034 4.68266L3.18434 3.62891L20.8148 21.2594L19.7611 22.3134ZM5.95359 8.53641C5.42525 8.95691 4.91142 9.46241 4.41209 10.0529C3.91275 10.6432 3.50859 11.2737 3.19959 11.9442C4.03292 13.6275 5.22875 14.965 6.78709 15.9567C8.34542 16.9483 10.0829 17.4442 11.9996 17.4442C12.4548 17.4442 12.908 17.4057 13.3593 17.3287C13.8105 17.2518 14.1932 17.1724 14.5073 17.0904L13.2418 15.7942C13.0713 15.8633 12.8739 15.9184 12.6496 15.9594C12.4253 16.0006 12.2086 16.0212 11.9996 16.0212C10.8649 16.0212 9.90175 15.6253 9.11009 14.8337C8.31842 14.042 7.92259 13.0788 7.92259 11.9442C7.92259 11.7417 7.94317 11.5298 7.98434 11.3087C8.02534 11.0875 8.08042 10.8852 8.14959 10.7019L5.95359 8.53641Z" fill="current"/>
</svg>
