<svg width="24" height="25" viewBox="0 0 24 25"  xmlns="http://www.w3.org/2000/svg">
<path d="M19 7.42578V5.42578H17V3.92578H19V1.92578H20.5V3.92578H22.5V5.42578H20.5V7.42578H19ZM11 17.541C12.1475 17.541 13.1202 17.142 13.9183 16.344C14.7162 15.546 15.1152 14.5733 15.1152 13.4258C15.1152 12.2783 14.7162 11.3055 13.9183 10.5075C13.1202 9.70953 12.1475 9.31053 11 9.31053C9.8525 9.31053 8.87975 9.70953 8.08175 10.5075C7.28375 11.3055 6.88475 12.2783 6.88475 13.4258C6.88475 14.5733 7.28375 15.546 8.08175 16.344C8.87975 17.142 9.8525 17.541 11 17.541ZM11 16.0413C10.2615 16.0413 9.641 15.7899 9.1385 15.2873C8.63583 14.7848 8.3845 14.1643 8.3845 13.4258C8.3845 12.6873 8.63583 12.0668 9.1385 11.5643C9.641 11.0616 10.2615 10.8103 11 10.8103C11.7385 10.8103 12.359 11.0616 12.8615 11.5643C13.3642 12.0668 13.6155 12.6873 13.6155 13.4258C13.6155 14.1643 13.3642 14.7848 12.8615 15.2873C12.359 15.7899 11.7385 16.0413 11 16.0413ZM3.30775 20.9258C2.80258 20.9258 2.375 20.7508 2.025 20.4008C1.675 20.0508 1.5 19.6232 1.5 19.118V7.73353C1.5 7.22836 1.675 6.80078 2.025 6.45078C2.375 6.10078 2.80258 5.92578 3.30775 5.92578H6.3615L8.2115 3.92578H14.8077V7.61803H16.8077V9.61803H20.5V19.118C20.5 19.6232 20.325 20.0508 19.975 20.4008C19.625 20.7508 19.1974 20.9258 18.6923 20.9258H3.30775Z" fill="current"/>
</svg>
