<svg width="24" height="21" viewBox="0 0 24 21" xmlns="http://www.w3.org/2000/svg">
<path d="M16.2813 20.0691L12.4016 16.1894L13.7188 14.8722L16.2813 17.4347L22.5938 11.1222L23.911 12.4394L16.2813 20.0691ZM9.46411 9.61719C8.26099 9.61719 7.23099 9.18885 6.37411 8.33219C5.51744 7.47531 5.08911 6.44531 5.08911 5.24219C5.08911 4.03906 5.51744 3.00917 6.37411 2.1525C7.23099 1.29563 8.26099 0.867188 9.46411 0.867188C10.6672 0.867188 11.6971 1.29563 12.5538 2.1525C13.4105 3.00917 13.8388 4.03906 13.8388 5.24219C13.8388 6.44531 13.4105 7.47531 12.5538 8.33219C11.6971 9.18885 10.6672 9.61719 9.46411 9.61719ZM12.7141 11.9394L8.46411 16.1894L11.4232 19.1366H0.0891113V16.3575C0.0891113 15.6942 0.256195 15.1145 0.590361 14.6184C0.92432 14.1224 1.36776 13.7342 1.92067 13.4537C2.98317 12.9121 4.10494 12.4739 5.28599 12.1391C6.46724 11.8041 7.85994 11.6366 9.46411 11.6366C10.0891 11.6366 10.6704 11.6618 11.2079 11.7122C11.7456 11.7626 12.2477 11.8383 12.7141 11.9394Z" fill="current"/>
</svg>
