<svg width="24" height="25" viewBox="0 0 24 25" xmlns="http://www.w3.org/2000/svg">
<path d="M8 9.16547C8.25133 9.16547 8.46483 9.07772 8.6405 8.90222C8.816 8.72655 8.90375 8.51305 8.90375 8.26172C8.90375 8.01039 8.816 7.79689 8.6405 7.62122C8.46483 7.44572 8.25133 7.35797 8 7.35797C7.74867 7.35797 7.53517 7.44572 7.3595 7.62122C7.184 7.79689 7.09625 8.01039 7.09625 8.26172C7.09625 8.51305 7.184 8.72655 7.3595 8.90222C7.53517 9.07772 7.74867 9.16547 8 9.16547ZM8 13.1655C8.25133 13.1655 8.46483 13.0777 8.6405 12.9022C8.816 12.7266 8.90375 12.5131 8.90375 12.2617C8.90375 12.0104 8.816 11.7969 8.6405 11.6212C8.46483 11.4457 8.25133 11.358 8 11.358C7.74867 11.358 7.53517 11.4457 7.3595 11.6212C7.184 11.7969 7.09625 12.0104 7.09625 12.2617C7.09625 12.5131 7.184 12.7266 7.3595 12.9022C7.53517 13.0777 7.74867 13.1655 8 13.1655ZM8 17.1655C8.25133 17.1655 8.46483 17.0777 8.6405 16.9022C8.816 16.7266 8.90375 16.5131 8.90375 16.2617C8.90375 16.0104 8.816 15.7969 8.6405 15.6212C8.46483 15.4457 8.25133 15.358 8 15.358C7.74867 15.358 7.53517 15.4457 7.3595 15.6212C7.184 15.7969 7.09625 16.0104 7.09625 16.2617C7.09625 16.5131 7.184 16.7266 7.3595 16.9022C7.53517 17.0777 7.74867 17.1655 8 17.1655ZM5.30775 20.7617C4.80258 20.7617 4.375 20.5867 4.025 20.2367C3.675 19.8867 3.5 19.4591 3.5 18.954V5.56947C3.5 5.0643 3.675 4.63672 4.025 4.28672C4.375 3.93672 4.80258 3.76172 5.30775 3.76172H15.0402C15.2814 3.76172 15.5132 3.80855 15.7355 3.90222C15.958 3.99572 16.1512 4.12455 16.3152 4.28872L19.973 7.94647C20.1372 8.11047 20.266 8.30372 20.3595 8.52622C20.4532 8.74855 20.5 8.9803 20.5 9.22147V18.954C20.5 19.4591 20.325 19.8867 19.975 20.2367C19.625 20.5867 19.1974 20.7617 18.6923 20.7617H5.30775ZM5.30775 19.2617H18.6923C18.7821 19.2617 18.8558 19.2329 18.9135 19.1752C18.9712 19.1176 19 19.0438 19 18.954V9.26172H15.9038C15.6461 9.26172 15.4311 9.17547 15.2587 9.00297C15.0862 8.83064 15 8.61563 15 8.35797V5.26172H5.30775C5.21792 5.26172 5.14417 5.29055 5.0865 5.34822C5.02883 5.40589 5 5.47964 5 5.56947V18.954C5 19.0438 5.02883 19.1176 5.0865 19.1752C5.14417 19.2329 5.21792 19.2617 5.30775 19.2617Z" fill="current"/>
</svg>
