<svg width="20" height="20" viewBox="0 0 20 20" fill="none" xmlns="http://www.w3.org/2000/svg">
<path d="M0.416748 14.8238V13.8078C0.416748 13.2533 0.706262 12.7979 1.28529 12.4415C1.86446 12.0853 2.61932 11.9071 3.54987 11.9071C3.70362 11.9071 3.85848 11.9119 4.01446 11.9215C4.17043 11.9311 4.32751 11.9498 4.48571 11.9776C4.32335 12.2373 4.20286 12.5068 4.12425 12.7861C4.04578 13.0655 4.00654 13.3521 4.00654 13.6459V14.8238H0.416748ZM5.41675 14.8238V13.678C5.41675 13.2878 5.52626 12.9312 5.74529 12.6082C5.96432 12.285 6.28001 12.0032 6.69237 11.763C7.10473 11.5226 7.59196 11.3423 8.15404 11.2221C8.71598 11.1019 9.33029 11.0417 9.99696 11.0417C10.6764 11.0417 11.2971 11.1019 11.859 11.2221C12.421 11.3423 12.9081 11.5226 13.3205 11.763C13.733 12.0032 14.0466 12.285 14.2613 12.6082C14.4761 12.9312 14.5834 13.2878 14.5834 13.678V14.8238H5.41675ZM15.9936 14.8238V13.6484C15.9936 13.3349 15.9565 13.0395 15.8824 12.7621C15.8081 12.4849 15.6967 12.2234 15.5482 11.9776C15.7117 11.9498 15.8679 11.9311 16.017 11.9215C16.166 11.9119 16.3131 11.9071 16.4584 11.9071C17.389 11.9071 18.1424 12.0832 18.7188 12.4353C19.2952 12.7872 19.5834 13.2447 19.5834 13.8078V14.8238H15.9936ZM6.73091 13.5738H13.2822V13.4857C13.1967 13.1491 12.842 12.866 12.218 12.6363C11.5941 12.4066 10.8548 12.2917 10.0001 12.2917C9.14536 12.2917 8.40605 12.4066 7.78217 12.6363C7.15814 12.866 6.80772 13.1491 6.73091 13.4857V13.5738ZM3.54758 11.0978C3.1548 11.0978 2.81925 10.9581 2.54091 10.6788C2.26258 10.3995 2.12341 10.0637 2.12341 9.67151C2.12341 9.27415 2.26314 8.93846 2.54258 8.66443C2.82189 8.3904 3.15765 8.25339 3.54987 8.25339C3.94723 8.25339 4.28425 8.3904 4.56091 8.66443C4.83772 8.93846 4.97612 9.27498 4.97612 9.67401C4.97612 10.0612 4.83918 10.3953 4.56529 10.6763C4.29154 10.9573 3.9523 11.0978 3.54758 11.0978ZM16.4584 11.0978C16.0695 11.0978 15.7346 10.9573 15.4536 10.6763C15.1727 10.3953 15.0322 10.0612 15.0322 9.67401C15.0322 9.27498 15.1727 8.93846 15.4536 8.66443C15.7346 8.3904 16.07 8.25339 16.4599 8.25339C16.8617 8.25339 17.1996 8.3904 17.4736 8.66443C17.7477 8.93846 17.8847 9.27415 17.8847 9.67151C17.8847 10.0637 17.748 10.3995 17.4747 10.6788C17.2013 10.9581 16.8626 11.0978 16.4584 11.0978ZM10.003 10.4167C9.40272 10.4167 8.89161 10.2064 8.46967 9.78568C8.04772 9.36512 7.83675 8.85436 7.83675 8.25339C7.83675 7.64033 8.04703 7.12651 8.46758 6.71193C8.88828 6.2972 9.39911 6.08984 10.0001 6.08984C10.613 6.08984 11.1268 6.29693 11.5415 6.71109C11.9561 7.12512 12.1634 7.63825 12.1634 8.25047C12.1634 8.85061 11.9564 9.36172 11.5424 9.7838C11.1282 10.2057 10.6151 10.4167 10.003 10.4167ZM10.004 9.16672C10.2589 9.16672 10.4742 9.07755 10.6499 8.89922C10.8257 8.72075 10.9136 8.50408 10.9136 8.24922C10.9136 7.9945 10.8261 7.77922 10.6509 7.60339C10.4758 7.42769 10.2588 7.33984 10.0001 7.33984C9.748 7.33984 9.53272 7.42741 9.35425 7.60255C9.17578 7.77755 9.08654 7.9945 9.08654 8.25339C9.08654 8.50547 9.17578 8.72075 9.35425 8.89922C9.53272 9.07755 9.74932 9.16672 10.004 9.16672Z" fill="#7C7C7C"/>
</svg>
