<svg width="24" height="25" viewBox="0 0 24 25" xmlns="http://www.w3.org/2000/svg">
<path d="M17.323 18.6175L16.7828 18.0772C16.6648 17.9592 16.524 17.9002 16.3605 17.9002C16.1972 17.9002 16.0565 17.9592 15.9385 18.0772C15.8205 18.1951 15.7615 18.3331 15.7615 18.4915C15.7615 18.6498 15.8205 18.788 15.9385 18.906L16.8558 19.8232C16.9929 19.9604 17.1503 20.029 17.328 20.029C17.5055 20.029 17.6628 19.9604 17.8 19.8232L20.0615 17.6022C20.1795 17.4842 20.2401 17.3451 20.2432 17.1847C20.2464 17.0246 20.1858 16.8823 20.0615 16.758C19.9435 16.64 19.8012 16.581 19.6345 16.581C19.4678 16.581 19.3256 16.64 19.2078 16.758L17.323 18.6175ZM7.13475 9.12697H16.8652C17.0781 9.12697 17.2563 9.05522 17.4 8.91172C17.5435 8.76805 17.6152 8.58989 17.6152 8.37722C17.6152 8.15789 17.5435 7.97805 17.4 7.83772C17.2563 7.69738 17.0781 7.62722 16.8652 7.62722H7.13475C6.92192 7.62722 6.74367 7.69897 6.6 7.84247C6.4565 7.98614 6.38475 8.16439 6.38475 8.37722C6.38475 8.58989 6.4565 8.76805 6.6 8.91172C6.74367 9.05522 6.92192 9.12697 7.13475 9.12697ZM18 22.8195C16.7513 22.8195 15.6892 22.3816 14.8135 21.506C13.9378 20.6303 13.5 19.5681 13.5 18.3195C13.5 17.0708 13.9378 16.0086 14.8135 15.133C15.6892 14.2573 16.7513 13.8195 18 13.8195C19.2487 13.8195 20.3108 14.2573 21.1865 15.133C22.0622 16.0086 22.5 17.0708 22.5 18.3195C22.5 19.5681 22.0622 20.6303 21.1865 21.506C20.3108 22.3816 19.2487 22.8195 18 22.8195ZM3.5 5.56947C3.5 5.0708 3.67658 4.6448 4.02975 4.29147C4.38308 3.9383 4.80908 3.76172 5.30775 3.76172H18.6923C19.1909 3.76172 19.6169 3.9383 19.9703 4.29147C20.3234 4.6448 20.5 5.0708 20.5 5.56947V10.9155C20.5 11.1283 20.4282 11.3066 20.2845 11.4502C20.141 11.5937 19.9628 11.6655 19.75 11.6655C19.5372 11.6655 19.359 11.5937 19.2155 11.4502C19.0718 11.3066 19 11.1283 19 10.9155V5.56947C19 5.49247 18.9679 5.42197 18.9038 5.35797C18.8398 5.2938 18.7692 5.26172 18.6923 5.26172H5.30775C5.23075 5.26172 5.16025 5.2938 5.09625 5.35797C5.03208 5.42197 5 5.49247 5 5.56947V19.3117H11.2098C11.2366 19.5041 11.2738 19.6964 11.3213 19.8887C11.3686 20.0809 11.4243 20.2681 11.4885 20.4502C11.5525 20.6014 11.5208 20.7231 11.3933 20.8155C11.2658 20.9078 11.1449 20.9033 11.0308 20.802L10.8692 20.679C10.7821 20.6046 10.6847 20.5675 10.577 20.5675C10.4693 20.5675 10.3719 20.6046 10.2848 20.679L9.44625 21.3827C9.35908 21.4572 9.26158 21.4945 9.15375 21.4945C9.04608 21.4945 8.94867 21.4572 8.8615 21.3827L8.023 20.679C7.93583 20.6046 7.83842 20.5675 7.73075 20.5675C7.62308 20.5675 7.52567 20.6046 7.4385 20.679L6.6 21.3827C6.51283 21.4572 6.41542 21.4945 6.30775 21.4945C6.20008 21.4945 6.10267 21.4572 6.0155 21.3827L5.177 20.679C5.08983 20.6046 4.99242 20.5675 4.88475 20.5675C4.77692 20.5675 4.67942 20.6046 4.59225 20.679L3.5 21.656V5.56947ZM7.13475 16.8962H10.7598C10.9724 16.8962 11.1506 16.8245 11.2943 16.681C11.4379 16.5373 11.5098 16.3591 11.5098 16.1462C11.5098 15.9336 11.4379 15.7554 11.2943 15.6117C11.1506 15.4682 10.9724 15.3965 10.7598 15.3965H7.13475C6.92192 15.3965 6.74367 15.4682 6.6 15.6117C6.4565 15.7554 6.38475 15.9336 6.38475 16.1462C6.38475 16.3591 6.4565 16.5373 6.6 16.681C6.74367 16.8245 6.92192 16.8962 7.13475 16.8962ZM7.13475 13.0117H14.0115C14.2243 13.0117 14.4026 12.9399 14.5462 12.7962C14.6897 12.6527 14.7615 12.4746 14.7615 12.2617C14.7615 12.0489 14.6897 11.8707 14.5462 11.7272C14.4026 11.5836 14.2243 11.5117 14.0115 11.5117H7.13475C6.92192 11.5117 6.74367 11.5836 6.6 11.7272C6.4565 11.8707 6.38475 12.0489 6.38475 12.2617C6.38475 12.4746 6.4565 12.6527 6.6 12.7962C6.74367 12.9399 6.92192 13.0117 7.13475 13.0117Z" fill="current"/>
</svg>
