<svg width="16" height="16" viewBox="0 0 16 16" xmlns="http://www.w3.org/2000/svg">
<path d="M3.01884 12.4089C3.72717 11.8834 4.49884 11.4683 5.33384 11.1637C6.1687 10.8593 7.05731 10.707 7.99967 10.707C8.94203 10.707 9.83065 10.8593 10.6655 11.1637C11.5005 11.4683 12.2722 11.8834 12.9805 12.4089C13.4986 11.8395 13.909 11.1803 14.212 10.4314C14.5149 9.68252 14.6663 8.87161 14.6663 7.9987C14.6663 6.15148 14.017 4.57856 12.7184 3.27995C11.4198 1.98134 9.8469 1.33203 7.99967 1.33203C6.15245 1.33203 4.57954 1.98134 3.28092 3.27995C1.98231 4.57856 1.33301 6.15148 1.33301 7.9987C1.33301 8.87161 1.48447 9.68252 1.78738 10.4314C2.0903 11.1803 2.50079 11.8395 3.01884 12.4089ZM7.99988 8.6237C7.23905 8.6237 6.59745 8.36259 6.07509 7.84036C5.55259 7.318 5.29134 6.67641 5.29134 5.91557C5.29134 5.15474 5.55245 4.51314 6.07467 3.99078C6.59704 3.46828 7.23863 3.20703 7.99947 3.20703C8.7603 3.20703 9.4019 3.46814 9.92426 3.99036C10.4468 4.51272 10.708 5.15432 10.708 5.91516C10.708 6.67599 10.4469 7.31759 9.92467 7.83995C9.40231 8.36245 8.76072 8.6237 7.99988 8.6237ZM7.99967 15.9154C6.90037 15.9154 5.86912 15.7086 4.90592 15.2952C3.94273 14.8817 3.10488 14.3186 2.39238 13.606C1.67974 12.8935 1.11669 12.0556 0.703216 11.0924C0.289744 10.1293 0.0830078 9.098 0.0830078 7.9987C0.0830078 6.89939 0.289744 5.86814 0.703216 4.90495C1.11669 3.94175 1.67974 3.10391 2.39238 2.39141C3.10488 1.67877 3.94273 1.11571 4.90592 0.70224C5.86912 0.288768 6.90037 0.0820312 7.99967 0.0820312C9.09898 0.0820312 10.1302 0.288768 11.0934 0.70224C12.0566 1.11571 12.8945 1.67877 13.607 2.39141C14.3196 3.10391 14.8827 3.94175 15.2961 4.90495C15.7096 5.86814 15.9163 6.89939 15.9163 7.9987C15.9163 9.098 15.7096 10.1293 15.2961 11.0924C14.8827 12.0556 14.3196 12.8935 13.607 13.606C12.8945 14.3186 12.0566 14.8817 11.0934 15.2952C10.1302 15.7086 9.09898 15.9154 7.99967 15.9154ZM7.99967 14.6654C8.75176 14.6654 9.4769 14.5444 10.1751 14.3024C10.8733 14.0604 11.4932 13.722 12.0349 13.2872C11.4932 12.8683 10.8813 12.542 10.1993 12.3081C9.51704 12.074 8.78384 11.957 7.99967 11.957C7.21551 11.957 6.48099 12.0727 5.79613 12.3039C5.11127 12.5353 4.50072 12.8631 3.96447 13.2872C4.50613 13.722 5.12606 14.0604 5.82426 14.3024C6.52245 14.5444 7.24759 14.6654 7.99967 14.6654ZM7.99967 7.3737C8.41426 7.3737 8.76092 7.23425 9.03967 6.95536C9.31856 6.67661 9.45801 6.32995 9.45801 5.91536C9.45801 5.50078 9.31856 5.15411 9.03967 4.87536C8.76092 4.59648 8.41426 4.45703 7.99967 4.45703C7.58509 4.45703 7.23842 4.59648 6.95967 4.87536C6.68078 5.15411 6.54134 5.50078 6.54134 5.91536C6.54134 6.32995 6.68078 6.67661 6.95967 6.95536C7.23842 7.23425 7.58509 7.3737 7.99967 7.3737Z"/>
</svg>
