<svg width="21" height="21" viewBox="0 0 21 21" xmlns="http://www.w3.org/2000/svg">
<path d="M10.2408 10.9289L13.4891 7.68039C13.6601 7.50956 13.8677 7.42275 14.1118 7.41997C14.3559 7.41734 14.5661 7.50414 14.7425 7.68039C14.9187 7.85678 15.0068 8.06567 15.0068 8.30706C15.0068 8.54845 14.9187 8.75733 14.7425 8.93372L10.9556 12.7206C10.8498 12.8263 10.7397 12.9021 10.6254 12.9481C10.5111 12.9941 10.3829 13.0171 10.2408 13.0171C10.0987 13.0171 9.97052 12.9941 9.85621 12.9481C9.7419 12.9021 9.63183 12.8263 9.526 12.7206L5.73913 8.93372C5.56829 8.76275 5.48149 8.55518 5.47871 8.31102C5.47607 8.06699 5.56288 7.85678 5.73913 7.68039C5.91551 7.50414 6.1244 7.41602 6.36579 7.41602C6.60718 7.41602 6.81607 7.50414 6.99246 7.68039L10.2408 10.9289Z" fill="current"/>
</svg>
