<svg width="24" height="25" viewBox="0 0 24 25" xmlns="http://www.w3.org/2000/svg">
<path d="M6.44459 17.0935C6.14976 16.9295 5.91868 16.7082 5.75134 16.4295C5.58401 16.1508 5.50034 15.8383 5.50034 15.4918V11.1533L3.50434 10.0495C3.34018 9.95583 3.21968 9.84192 3.14284 9.70775C3.06584 9.57375 3.02734 9.42475 3.02734 9.26075C3.02734 9.09675 3.06584 8.94783 3.14284 8.814C3.21968 8.68 3.34018 8.56617 3.50434 8.4725L11.1393 4.3125C11.2748 4.23717 11.4144 4.18183 11.5581 4.1465C11.7018 4.11133 11.8492 4.09375 12.0003 4.09375C12.1515 4.09375 12.2989 4.11133 12.4426 4.1465C12.5863 4.18183 12.726 4.23708 12.8618 4.31225L21.4848 9.00525C21.6387 9.08858 21.7567 9.20125 21.8388 9.34325C21.9208 9.48542 21.9618 9.63875 21.9618 9.80325V15.7032C21.9618 15.9158 21.8899 16.0939 21.7461 16.2378C21.6023 16.3814 21.4241 16.4532 21.2116 16.4532C20.9989 16.4532 20.8208 16.3814 20.6773 16.2378C20.5337 16.0939 20.4618 15.9158 20.4618 15.7032V10.0917L18.5003 11.1533V15.4918C18.5003 15.8383 18.4167 16.1508 18.2493 16.4295C18.082 16.7082 17.8509 16.9295 17.5561 17.0935L12.8638 19.6303C12.7267 19.7071 12.5863 19.7632 12.4426 19.7985C12.2989 19.8337 12.1515 19.8512 12.0003 19.8512C11.8492 19.8512 11.7018 19.8337 11.5581 19.7985C11.4144 19.7632 11.274 19.7071 11.1368 19.6303L6.44459 17.0935ZM11.8848 12.9033C11.9298 12.9289 11.9699 12.9418 12.0051 12.9418C12.0404 12.9418 12.0805 12.9289 12.1253 12.9033L18.8408 9.261L12.1253 5.62825C12.0805 5.60258 12.0404 5.58975 12.0051 5.58975C11.9699 5.58975 11.9298 5.60258 11.8848 5.62825L5.15984 9.261L11.8848 12.9033ZM11.8753 18.332C11.9202 18.3577 11.9618 18.3705 12.0003 18.3705C12.0388 18.3705 12.0805 18.3577 12.1253 18.332L16.8561 15.7762C16.9074 15.7443 16.9443 15.7074 16.9666 15.6658C16.9891 15.6241 17.0003 15.5712 17.0003 15.507V11.9533L12.8791 14.2168C12.7419 14.2936 12.5997 14.3497 12.4523 14.385C12.3048 14.4203 12.1542 14.438 12.0003 14.438C11.8465 14.438 11.6958 14.4203 11.5483 14.385C11.401 14.3497 11.2588 14.2936 11.1216 14.2168L7.00034 11.9533V15.507C7.00034 15.5583 7.01159 15.6081 7.03409 15.6562C7.05643 15.7043 7.09326 15.7443 7.14459 15.7762L11.8753 18.332Z" fill="current"/>
</svg>
