<svg width="24" height="25" viewBox="0 0 24 25" xmlns="http://www.w3.org/2000/svg">
<path d="M6.023 17.7923C6.873 17.1616 7.799 16.6635 8.801 16.298C9.80283 15.9327 10.8692 15.75 12 15.75C13.1308 15.75 14.1972 15.9327 15.199 16.298C16.201 16.6635 17.127 17.1616 17.977 17.7923C18.5987 17.1089 19.0912 16.3179 19.4548 15.4192C19.8183 14.5206 20 13.5475 20 12.5C20 10.2833 19.2208 8.39583 17.6625 6.8375C16.1042 5.27917 14.2167 4.5 12 4.5C9.78333 4.5 7.89583 5.27917 6.3375 6.8375C4.77917 8.39583 4 10.2833 4 12.5C4 13.5475 4.18175 14.5206 4.54525 15.4192C4.90875 16.3179 5.40133 17.1089 6.023 17.7923ZM12 13.25C11.0872 13.25 10.3173 12.9365 9.6905 12.3095C9.0635 11.6827 8.75 10.9128 8.75 10C8.75 9.08717 9.0635 8.31733 9.6905 7.6905C10.3173 7.0635 11.0872 6.75 12 6.75C12.9128 6.75 13.6827 7.0635 14.3095 7.6905C14.9365 8.31733 15.25 9.08717 15.25 10C15.25 10.9128 14.9365 11.6827 14.3095 12.3095C13.6827 12.9365 12.9128 13.25 12 13.25ZM12 22C10.6808 22 9.44333 21.7519 8.2875 21.2558C7.13167 20.7596 6.12625 20.0839 5.27125 19.2288C4.41608 18.3738 3.74042 17.3683 3.24425 16.2125C2.74808 15.0567 2.5 13.8192 2.5 12.5C2.5 11.1808 2.74808 9.94333 3.24425 8.7875C3.74042 7.63167 4.41608 6.62625 5.27125 5.77125C6.12625 4.91608 7.13167 4.24042 8.2875 3.74425C9.44333 3.24808 10.6808 3 12 3C13.3192 3 14.5567 3.24808 15.7125 3.74425C16.8683 4.24042 17.8738 4.91608 18.7288 5.77125C19.5839 6.62625 20.2596 7.63167 20.7558 8.7875C21.2519 9.94333 21.5 11.1808 21.5 12.5C21.5 13.8192 21.2519 15.0567 20.7558 16.2125C20.2596 17.3683 19.5839 18.3738 18.7288 19.2288C17.8738 20.0839 16.8683 20.7596 15.7125 21.2558C14.5567 21.7519 13.3192 22 12 22Z" />
</svg>
