<svg width="24" height="25" viewBox="0 0 24 25" xmlns="http://www.w3.org/2000/svg">
<path d="M7.202 19.1621V17.6621H14.3788C15.4224 17.6621 16.3205 17.3175 17.073 16.6284C17.8257 15.9394 18.202 15.0884 18.202 14.0756C18.202 13.0628 17.8257 12.2134 17.073 11.5274C16.3205 10.8415 15.4224 10.4986 14.3788 10.4986H7.35775L10.1402 13.2814L9.0865 14.3351L4.5 9.74861L9.0865 5.16211L10.1402 6.21586L7.35775 8.99861H14.3788C15.8416 8.99861 17.0945 9.48678 18.1375 10.4631C19.1805 11.4394 19.702 12.6436 19.702 14.0756C19.702 15.5076 19.1805 16.7134 18.1375 17.6929C17.0945 18.6724 15.8416 19.1621 14.3788 19.1621H7.202Z" />
</svg>
