<svg width="20" height="21" viewBox="0 0 20 21" fill="none" xmlns="http://www.w3.org/2000/svg">
<path d="M12.8943 14.5681L13.7727 13.6897L10.6252 10.5422V6.62891H9.37516V11.0487L12.8943 14.5681ZM10.0016 18.7122C8.90662 18.7122 7.87738 18.5045 6.91391 18.0889C5.95044 17.6734 5.11238 17.1094 4.39975 16.397C3.68711 15.6847 3.12287 14.847 2.70704 13.8839C2.29134 12.9208 2.0835 11.8919 2.0835 10.797C2.0835 9.70203 2.29127 8.67279 2.70683 7.70932C3.12238 6.74585 3.68634 5.90779 4.3987 5.19516C5.11107 4.48252 5.94877 3.91828 6.91183 3.50245C7.87488 3.08675 8.90384 2.87891 9.9987 2.87891C11.0937 2.87891 12.1229 3.08668 13.0864 3.50224C14.0499 3.91779 14.8879 4.48175 15.6006 5.19411C16.3132 5.90648 16.8775 6.74418 17.2933 7.70724C17.709 8.67029 17.9168 9.69925 17.9168 10.7941C17.9168 11.8891 17.7091 12.9184 17.2935 13.8818C16.8779 14.8453 16.314 15.6834 15.6016 16.396C14.8893 17.1086 14.0516 17.6729 13.0885 18.0887C12.1254 18.5044 11.0965 18.7122 10.0016 18.7122ZM10.0002 17.4622C11.8474 17.4622 13.4203 16.8129 14.7189 15.5143C16.0175 14.2157 16.6668 12.6428 16.6668 10.7956C16.6668 8.94835 16.0175 7.37543 14.7189 6.07682C13.4203 4.77821 11.8474 4.12891 10.0002 4.12891C8.15294 4.12891 6.58002 4.77821 5.28141 6.07682C3.9828 7.37543 3.3335 8.94835 3.3335 10.7956C3.3335 12.6428 3.9828 14.2157 5.28141 15.5143C6.58002 16.8129 8.15294 17.4622 10.0002 17.4622Z" fill="#666666"/>
</svg>
