<svg width="24" height="24" viewBox="0 0 24 24" xmlns="http://www.w3.org/2000/svg">
<path d="M0.5 17.7893V16.5701C0.5 15.9048 0.847417 15.3583 1.54225 14.9306C2.23725 14.5031 3.14308 14.2893 4.25975 14.2893C4.44425 14.2893 4.63008 14.2951 4.81725 14.3066C5.00442 14.3181 5.19292 14.3405 5.38275 14.3738C5.18792 14.6855 5.04333 15.0089 4.949 15.3441C4.85483 15.6794 4.80775 16.0233 4.80775 16.3758V17.7893H0.5ZM6.5 17.7893V16.4143C6.5 15.9462 6.63142 15.5183 6.89425 15.1306C7.15708 14.7428 7.53592 14.4047 8.03075 14.1163C8.52558 13.8278 9.11025 13.6115 9.78475 13.4673C10.4591 13.323 11.1962 13.2508 11.9963 13.2508C12.8116 13.2508 13.5564 13.323 14.2308 13.4673C14.9051 13.6115 15.4897 13.8278 15.9845 14.1163C16.4795 14.4047 16.8558 14.7428 17.1135 15.1306C17.3712 15.5183 17.5 15.9462 17.5 16.4143V17.7893H6.5ZM19.1923 17.7893V16.3788C19.1923 16.0027 19.1477 15.6482 19.0588 15.3153C18.9696 14.9827 18.8359 14.6688 18.6578 14.3738C18.8539 14.3405 19.0414 14.3181 19.2203 14.3066C19.3991 14.2951 19.5757 14.2893 19.75 14.2893C20.8667 14.2893 21.7708 14.5006 22.4625 14.9231C23.1542 15.3454 23.5 15.8944 23.5 16.5701V17.7893H19.1923ZM4.257 13.3181C3.78567 13.3181 3.383 13.1505 3.049 12.8153C2.715 12.4802 2.548 12.0773 2.548 11.6066C2.548 11.1298 2.71567 10.7269 3.051 10.3981C3.38617 10.0693 3.78908 9.90484 4.25975 9.90484C4.73658 9.90484 5.141 10.0693 5.473 10.3981C5.80517 10.7269 5.97125 11.1308 5.97125 11.6096C5.97125 12.0743 5.80692 12.4752 5.47825 12.8123C5.14975 13.1495 4.74267 13.3181 4.257 13.3181ZM19.75 13.3181C19.2833 13.3181 18.8814 13.1495 18.5443 12.8123C18.2071 12.4752 18.0385 12.0743 18.0385 11.6096C18.0385 11.1308 18.2071 10.7269 18.5443 10.3981C18.8814 10.0693 19.2839 9.90484 19.7518 9.90484C20.2339 9.90484 20.6394 10.0693 20.9683 10.3981C21.2971 10.7269 21.4615 11.1298 21.4615 11.6066C21.4615 12.0773 21.2975 12.4802 20.9695 12.8153C20.6415 13.1505 20.235 13.3181 19.75 13.3181ZM12.0035 12.5008C11.2832 12.5008 10.6698 12.2484 10.1635 11.7436C9.65717 11.2389 9.404 10.626 9.404 9.90484C9.404 9.16918 9.65633 8.55259 10.161 8.05509C10.6658 7.55743 11.2788 7.30859 12 7.30859C12.7355 7.30859 13.3521 7.55709 13.8497 8.05409C14.3472 8.55093 14.596 9.16668 14.596 9.90134C14.596 10.6215 14.3476 11.2348 13.8508 11.7413C13.3538 12.2477 12.738 12.5008 12.0035 12.5008Z" fill="current"/>
</svg>
