<svg width="24" height="25" viewBox="0 0 24 25" xmlns="http://www.w3.org/2000/svg">
<path d="M12 3.76172C13.1858 3.76172 14.2958 3.98222 15.3298 4.42322C16.3638 4.86422 17.2667 5.47063 18.0385 6.24247C18.4295 6.63347 18.7769 7.05622 19.0807 7.51072C19.3846 7.96522 19.6467 8.4463 19.8673 8.95397C20.1006 9.50397 20.2708 10.0723 20.3778 10.659C20.4849 11.2455 20.5321 11.8355 20.5193 12.429C20.5193 12.6418 20.4382 12.8226 20.276 12.9712C20.1138 13.1201 19.9263 13.1945 19.7135 13.1945C19.5108 13.1945 19.3428 13.1226 19.2095 12.979C19.0762 12.8355 19.0128 12.6573 19.0193 12.4445C19.0321 12.2136 19.0327 11.9845 19.0212 11.757C19.0096 11.5293 18.9775 11.3033 18.925 11.079H15.6193C15.6423 11.3098 15.657 11.5374 15.6635 11.7617C15.6698 11.9861 15.6698 12.2136 15.6635 12.4445C15.6635 12.6573 15.5875 12.8355 15.4355 12.979C15.2837 13.1226 15.1013 13.1945 14.8885 13.1945C14.6757 13.1945 14.5016 13.1226 14.3663 12.979C14.2311 12.8355 14.1635 12.6573 14.1635 12.4445C14.1635 12.2136 14.1593 11.9861 14.151 11.7617C14.1427 11.5374 14.1269 11.3098 14.1038 11.079H9.9115C9.8885 11.3098 9.87283 11.5374 9.8645 11.7617C9.85617 11.9861 9.852 12.2136 9.852 12.4445C9.852 12.6573 9.78433 12.8355 9.649 12.979C9.51383 13.1226 9.33983 13.1945 9.127 13.1945C8.91417 13.1945 8.73175 13.1226 8.57975 12.979C8.42792 12.8355 8.352 12.6573 8.352 12.4445C8.3455 12.2136 8.3455 11.9861 8.352 11.7617C8.35833 11.5374 8.37308 11.3098 8.39625 11.079H5.1C5.05383 11.3098 5.02342 11.5374 5.00875 11.7617C4.99392 11.9861 4.99292 12.2136 5.00575 12.4445C5.01225 12.6573 4.94717 12.8355 4.8105 12.979C4.674 13.1226 4.50767 13.1945 4.3115 13.1945C4.09867 13.1945 3.91117 13.1226 3.749 12.979C3.58683 12.8355 3.50575 12.6573 3.50575 12.4445C3.49292 11.8508 3.54008 11.2581 3.64725 10.6665C3.75425 10.0748 3.92442 9.50397 4.15775 8.95397C4.37825 8.4463 4.64042 7.96522 4.94425 7.51072C5.24808 7.05622 5.5955 6.63347 5.9865 6.24247C6.75833 5.47063 7.65708 4.86422 8.68275 4.42322C9.70842 3.98222 10.8142 3.76172 12 3.76172ZM5.54625 9.57897H8.5635C8.716 8.6828 8.92592 7.9088 9.19325 7.25697C9.46058 6.60497 9.77825 6.04564 10.1463 5.57897C9.11542 5.81497 8.19167 6.2868 7.375 6.99447C6.55833 7.70214 5.94875 8.56364 5.54625 9.57897ZM10.1192 9.57897H13.8807C13.7269 8.80464 13.5026 8.05497 13.2078 7.32997C12.9129 6.60497 12.5103 5.94763 12 5.35797C11.4897 5.95413 11.0862 6.61305 10.7895 7.33472C10.4927 8.05655 10.2692 8.80464 10.1192 9.57897ZM15.452 9.57897H18.4788C18.0763 8.55714 17.4577 7.69397 16.623 6.98947C15.7883 6.28514 14.8524 5.81497 13.8152 5.57897C14.1961 6.07264 14.5259 6.64505 14.8048 7.29622C15.0836 7.94755 15.2993 8.70847 15.452 9.57897ZM12 20.7617C11.7872 20.7617 11.609 20.6899 11.4655 20.5462C11.3218 20.4027 11.25 20.2246 11.25 20.0117C11.25 19.1912 10.9439 18.4652 10.3317 17.8337C9.71958 17.2024 8.97758 16.8867 8.10575 16.8867H3.25C3.03717 16.8867 2.859 16.8149 2.7155 16.6712C2.57183 16.5277 2.5 16.3496 2.5 16.1367C2.5 15.9239 2.57183 15.7457 2.7155 15.6022C2.859 15.4586 3.03717 15.3867 3.25 15.3867H8.10575C8.91225 15.3867 9.6565 15.5761 10.3385 15.955C11.0205 16.3338 11.5743 16.856 12 17.5215C12.4257 16.856 12.9795 16.3338 13.6615 15.955C14.3435 15.5761 15.0845 15.3867 15.8845 15.3867H20.75C20.9628 15.3867 21.141 15.4586 21.2845 15.6022C21.4282 15.7457 21.5 15.9239 21.5 16.1367C21.5 16.3496 21.4282 16.5277 21.2845 16.6712C21.141 16.8149 20.9628 16.8867 20.75 16.8867H15.8845C15.0128 16.8867 14.2725 17.2024 13.6635 17.8337C13.0545 18.4652 12.75 19.1912 12.75 20.0117C12.75 20.2246 12.6782 20.4027 12.5345 20.5462C12.391 20.6899 12.2128 20.7617 12 20.7617Z" fill="current"/>
</svg>
