<svg width="24" height="24" viewBox="0 0 24 24" xmlns="http://www.w3.org/2000/svg">
<path d="M3.25 20.5762V7.07617H7.25V3.07617H16.75V11.0762H20.75V20.5762H13.25V16.5762H10.75V20.5762H3.25ZM4.75 19.0762H7.25V16.5762H4.75V19.0762ZM4.75 15.0762H7.25V12.5762H4.75V15.0762ZM4.75 11.0762H7.25V8.57617H4.75V11.0762ZM8.75 15.0762H11.25V12.5762H8.75V15.0762ZM8.75 11.0762H11.25V8.57617H8.75V11.0762ZM8.75 7.07617H11.25V4.57617H8.75V7.07617ZM12.75 15.0762H15.25V12.5762H12.75V15.0762ZM12.75 11.0762H15.25V8.57617H12.75V11.0762ZM12.75 7.07617H15.25V4.57617H12.75V7.07617ZM16.75 19.0762H19.25V16.5762H16.75V19.0762ZM16.75 15.0762H19.25V12.5762H16.75V15.0762Z" />
</svg>
