<svg width="16" height="16" viewBox="0 0 16 16"  xmlns="http://www.w3.org/2000/svg">
<path d="M7.99175 12.2114C8.20588 12.2114 8.38675 12.1376 8.53438 11.9898C8.682 11.8419 8.75581 11.6609 8.75581 11.4466C8.75581 11.2325 8.68188 11.0516 8.534 10.904C8.38613 10.7565 8.20512 10.6827 7.991 10.6827C7.77688 10.6827 7.596 10.7567 7.44838 10.9046C7.30075 11.0524 7.22694 11.2334 7.22694 11.4476C7.22694 11.6617 7.30088 11.8426 7.44875 11.9902C7.59663 12.1377 7.77763 12.2114 7.99175 12.2114ZM7.46056 9.52588H8.51638C8.526 9.15675 8.58006 8.86181 8.67856 8.64106C8.77719 8.42044 9.01638 8.12794 9.39613 7.76356C9.726 7.43369 9.97863 7.12906 10.154 6.84969C10.3295 6.57044 10.4172 6.24063 10.4172 5.86025C10.4172 5.21463 10.1853 4.71031 9.72144 4.34731C9.25744 3.98444 8.70863 3.803 8.075 3.803C7.449 3.803 6.931 3.97006 6.521 4.30419C6.11088 4.63831 5.81831 5.03181 5.64331 5.48469L6.60669 5.87113C6.69806 5.62213 6.85431 5.37956 7.07544 5.14344C7.29656 4.90744 7.62494 4.78944 8.06056 4.78944C8.50381 4.78944 8.83144 4.91081 9.04344 5.15356C9.25556 5.39644 9.36163 5.6635 9.36163 5.95475C9.36163 6.20962 9.289 6.44281 9.14375 6.65431C8.99863 6.86581 8.81356 7.07013 8.58856 7.26725C8.09619 7.7115 7.78513 8.06588 7.65538 8.33038C7.5255 8.59475 7.46056 8.99325 7.46056 9.52588ZM8.00131 15.125C7.01581 15.125 6.0895 14.938 5.22237 14.564C4.35525 14.19 3.601 13.6824 2.95963 13.0413C2.31825 12.4002 1.81044 11.6462 1.43619 10.7795C1.06206 9.91275 0.875 8.98669 0.875 8.00131C0.875 7.01581 1.062 6.0895 1.436 5.22237C1.81 4.35525 2.31756 3.601 2.95869 2.95963C3.59981 2.31825 4.35375 1.81044 5.2205 1.43619C6.08725 1.06206 7.01331 0.875 7.99869 0.875C8.98419 0.875 9.9105 1.062 10.7776 1.436C11.6448 1.81 12.399 2.31756 13.0404 2.95869C13.6818 3.59981 14.1896 4.35375 14.5638 5.2205C14.9379 6.08725 15.125 7.01331 15.125 7.99869C15.125 8.98419 14.938 9.9105 14.564 10.7776C14.19 11.6448 13.6824 12.399 13.0413 13.0404C12.4002 13.6818 11.6462 14.1896 10.7795 14.5638C9.91275 14.9379 8.98669 15.125 8.00131 15.125ZM8 14C9.675 14 11.0938 13.4188 12.2563 12.2563C13.4188 11.0938 14 9.675 14 8C14 6.325 13.4188 4.90625 12.2563 3.74375C11.0938 2.58125 9.675 2 8 2C6.325 2 4.90625 2.58125 3.74375 3.74375C2.58125 4.90625 2 6.325 2 8C2 9.675 2.58125 11.0938 3.74375 12.2563C4.90625 13.4188 6.325 14 8 14Z" fill="current"/>
</svg>
