<svg width="20" height="20" viewBox="0 0 20 20" fill="none" xmlns="http://www.w3.org/2000/svg">
<path d="M8.81745 13.5454L14.42 7.94294L13.5418 7.06482L8.81745 11.7892L6.44245 9.41419L5.56433 10.2923L8.81745 13.5454ZM10.0016 17.9173C8.90662 17.9173 7.87738 17.7095 6.91391 17.294C5.95044 16.8784 5.11238 16.3145 4.39975 15.6021C3.68711 14.8897 3.12287 14.052 2.70704 13.089C2.29134 12.1259 2.0835 11.097 2.0835 10.0021C2.0835 8.90711 2.29127 7.87787 2.70683 6.9144C3.12238 5.95093 3.68634 5.11287 4.3987 4.40023C5.11107 3.6876 5.94877 3.12336 6.91183 2.70753C7.87488 2.29183 8.90384 2.08398 9.9987 2.08398C11.0937 2.08398 12.1229 2.29176 13.0864 2.70732C14.0499 3.12287 14.8879 3.68683 15.6006 4.39919C16.3132 5.11155 16.8775 5.94926 17.2933 6.91232C17.709 7.87537 17.9168 8.90433 17.9168 9.99919C17.9168 11.0942 17.7091 12.1234 17.2935 13.0869C16.8779 14.0504 16.314 14.8884 15.6016 15.6011C14.8893 16.3137 14.0516 16.8779 13.0885 17.2938C12.1254 17.7095 11.0965 17.9173 10.0016 17.9173Z" fill="current"/>
</svg>
