<svg width="62" height="48" viewBox="0 0 62 48" fill="none" xmlns="http://www.w3.org/2000/svg">
<ellipse cx="31" cy="42.5225" rx="31" ry="5" fill="current"/>
<rect x="11" y="0.522461" width="37" height="42" fill="current"/>
<g filter="url(#filter0_d_2743_140681)">
<path d="M16.7998 42.5225H50.7998V12.9225L43.5141 5.52246H16.7998V42.5225Z" fill="white"/>
</g>
<rect x="20.7998" y="14.5225" width="25" height="3" rx="1.5" fill="#E7E7E7"/>
<rect x="20.7998" y="20.5225" width="25" height="3" rx="1.5" fill="#E7E7E7"/>
<path d="M42.1007 39.7887L45.4007 36.4887L48.7007 39.7887L49.6667 38.8228L46.3667 35.5228L49.6667 32.2228L48.7007 31.2568L45.4007 34.5568L42.1007 31.2568L41.1348 32.2228L44.4348 35.5228L41.1348 38.8228L42.1007 39.7887ZM45.4023 44.2311C44.1978 44.2311 43.0657 44.0026 42.0058 43.5455C40.946 43.0883 40.0242 42.468 39.2403 41.6844C38.4564 40.9008 37.8357 39.9793 37.3783 38.92C36.921 37.8606 36.6924 36.7287 36.6924 35.5244C36.6924 34.3199 36.9209 33.1877 37.378 32.1279C37.8352 31.0681 38.4555 30.1462 39.2391 29.3623C40.0227 28.5784 40.9442 27.9578 42.0036 27.5003C43.0629 27.0431 44.1948 26.8145 45.3991 26.8145C46.6036 26.8145 47.7358 27.043 48.7956 27.5001C49.8554 27.9572 50.7773 28.5776 51.5612 29.3612C52.3451 30.1448 52.9657 31.0663 53.4232 32.1256C53.8804 33.185 54.1091 34.3168 54.1091 35.5212C54.1091 36.7257 53.8805 37.8578 53.4234 38.9177C52.9663 39.9775 52.3459 40.8993 51.5623 41.6832C50.7787 42.4671 49.8572 43.0878 48.7979 43.5452C47.7385 44.0025 46.6067 44.2311 45.4023 44.2311Z" fill="current"/>
<defs>
<filter id="filter0_d_2743_140681" x="15.7998" y="4.52246" width="38" height="41" filterUnits="userSpaceOnUse" color-interpolation-filters="sRGB">
<feFlood flood-opacity="0" result="BackgroundImageFix"/>
<feColorMatrix in="SourceAlpha" type="matrix" values="0 0 0 0 0 0 0 0 0 0 0 0 0 0 0 0 0 0 127 0" result="hardAlpha"/>
<feOffset dx="1" dy="1"/>
<feGaussianBlur stdDeviation="1"/>
<feComposite in2="hardAlpha" operator="out"/>
<feColorMatrix type="matrix" values="0 0 0 0 0 0 0 0 0 0 0 0 0 0 0 0 0 0 0.08 0"/>
<feBlend mode="normal" in2="BackgroundImageFix" result="effect1_dropShadow_2743_140681"/>
<feBlend mode="normal" in="SourceGraphic" in2="effect1_dropShadow_2743_140681" result="shape"/>
</filter>
</defs>
</svg>
