<svg width="12" height="12" viewBox="0 0 12 12" fill="none" xmlns="http://www.w3.org/2000/svg">
<path d="M5.99383 11.6654V10.6654H10.4617C10.513 10.6654 10.56 10.644 10.6027 10.6012C10.6454 10.5585 10.6668 10.5115 10.6668 10.4602V1.5372C10.6668 1.48586 10.6454 1.43886 10.6027 1.3962C10.56 1.35342 10.513 1.33203 10.4617 1.33203H5.99383V0.332031H10.4617C10.7984 0.332031 11.0835 0.448698 11.3168 0.682031C11.5502 0.915365 11.6668 1.20042 11.6668 1.5372V10.4602C11.6668 10.797 11.5502 11.082 11.3168 11.3154C11.0835 11.5487 10.7984 11.6654 10.4617 11.6654H5.99383ZM5.09 8.84486L4.39766 8.1217L6.02066 6.4987H0.333496V5.4987H6.02066L4.39766 3.8757L5.09 3.15253L7.936 5.9987L5.09 8.84486Z" fill="#1CAC70"/>
</svg>
