<svg width="24" height="25" viewBox="0 0 24 25" xmlns="http://www.w3.org/2000/svg">
<path d="M7.30775 22.7617C6.80258 22.7617 6.375 22.5867 6.025 22.2367C5.675 21.8867 5.5 21.4591 5.5 20.954V3.56947C5.5 3.0643 5.675 2.63672 6.025 2.28672C6.375 1.93672 6.80258 1.76172 7.30775 1.76172H16.6923C17.1974 1.76172 17.625 1.93672 17.975 2.28672C18.325 2.63672 18.5 3.0643 18.5 3.56947V20.954C18.5 21.4591 18.325 21.8867 17.975 22.2367C17.625 22.5867 17.1974 22.7617 16.6923 22.7617H7.30775ZM7 18.031V20.954C7 21.031 7.03208 21.1015 7.09625 21.1655C7.16025 21.2296 7.23075 21.2617 7.30775 21.2617H16.6923C16.7692 21.2617 16.8398 21.2296 16.9038 21.1655C16.9679 21.1015 17 21.031 17 20.954V18.031H7ZM12 20.531C12.2448 20.531 12.4535 20.4447 12.626 20.2722C12.7983 20.0999 12.8845 19.8912 12.8845 19.6462C12.8845 19.4014 12.7983 19.1928 12.626 19.0205C12.4535 18.848 12.2448 18.7617 12 18.7617C11.7552 18.7617 11.5465 18.848 11.374 19.0205C11.2017 19.1928 11.1155 19.4014 11.1155 19.6462C11.1155 19.8912 11.2017 20.0999 11.374 20.2722C11.5465 20.4447 11.7552 20.531 12 20.531ZM7 16.531H17V6.01172H7V16.531ZM7 4.51172H17V3.56947C17 3.49247 16.9679 3.42197 16.9038 3.35797C16.8398 3.2938 16.7692 3.26172 16.6923 3.26172H7.30775C7.23075 3.26172 7.16025 3.2938 7.09625 3.35797C7.03208 3.42197 7 3.49247 7 3.56947V4.51172Z" fill="current"/>
</svg>
