<svg width="24" height="25" viewBox="0 0 24 25" xmlns="http://www.w3.org/2000/svg">
<path d="M9 18.0117H15C15.2128 18.0117 15.391 17.9399 15.5345 17.7962C15.6782 17.6527 15.75 17.4746 15.75 17.2617C15.75 17.0489 15.6782 16.8707 15.5345 16.7272C15.391 16.5836 15.2128 16.5117 15 16.5117H9C8.78717 16.5117 8.609 16.5836 8.4655 16.7272C8.32183 16.8707 8.25 17.0489 8.25 17.2617C8.25 17.4746 8.32183 17.6527 8.4655 17.7962C8.609 17.9399 8.78717 18.0117 9 18.0117ZM9 14.0117H15C15.2128 14.0117 15.391 13.9399 15.5345 13.7962C15.6782 13.6527 15.75 13.4746 15.75 13.2617C15.75 13.0489 15.6782 12.8707 15.5345 12.7272C15.391 12.5836 15.2128 12.5117 15 12.5117H9C8.78717 12.5117 8.609 12.5836 8.4655 12.7272C8.32183 12.8707 8.25 13.0489 8.25 13.2617C8.25 13.4746 8.32183 13.6527 8.4655 13.7962C8.609 13.9399 8.78717 14.0117 9 14.0117ZM6.30775 21.7617C5.80258 21.7617 5.375 21.5867 5.025 21.2367C4.675 20.8867 4.5 20.4591 4.5 19.954V4.56947C4.5 4.0643 4.675 3.63672 5.025 3.28672C5.375 2.93672 5.80258 2.76172 6.30775 2.76172H13.502C13.743 2.76172 13.9748 2.80855 14.1973 2.90222C14.4196 2.99572 14.6128 3.12455 14.777 3.28872L18.973 7.48472C19.1372 7.64889 19.266 7.84213 19.3595 8.06447C19.4532 8.28697 19.5 8.51872 19.5 8.75972V19.954C19.5 20.4591 19.325 20.8867 18.975 21.2367C18.625 21.5867 18.1974 21.7617 17.6923 21.7617H6.30775ZM13.5 7.85772V4.26172H6.30775C6.23075 4.26172 6.16025 4.2938 6.09625 4.35797C6.03208 4.42197 6 4.49247 6 4.56947V19.954C6 20.031 6.03208 20.1015 6.09625 20.1655C6.16025 20.2296 6.23075 20.2617 6.30775 20.2617H17.6923C17.7692 20.2617 17.8398 20.2296 17.9038 20.1655C17.9679 20.1015 18 20.031 18 19.954V8.76172H14.404C14.1462 8.76172 13.9311 8.67547 13.7587 8.50297C13.5862 8.33064 13.5 8.11555 13.5 7.85772Z" fill="current"/>
</svg>
