<svg width="24" height="25" viewBox="0 0 24 25" fill="none" xmlns="http://www.w3.org/2000/svg">
<path d="M7.30775 23C6.80258 23 6.375 22.825 6.025 22.475C5.675 22.125 5.5 21.6974 5.5 21.1923V3.80775C5.5 3.30258 5.675 2.875 6.025 2.525C6.375 2.175 6.80258 2 7.30775 2H16.6923C17.1974 2 17.625 2.175 17.975 2.525C18.325 2.875 18.5 3.30258 18.5 3.80775V21.1923C18.5 21.6974 18.325 22.125 17.975 22.475C17.625 22.825 17.1974 23 16.6923 23H7.30775ZM12 20.7693C12.2448 20.7693 12.4535 20.683 12.626 20.5105C12.7983 20.3382 12.8845 20.1295 12.8845 19.8845C12.8845 19.6397 12.7983 19.4311 12.626 19.2587C12.4535 19.0863 12.2448 19 12 19C11.7552 19 11.5465 19.0863 11.374 19.2587C11.2017 19.4311 11.1155 19.6397 11.1155 19.8845C11.1155 20.1295 11.2017 20.3382 11.374 20.5105C11.5465 20.683 11.7552 20.7693 12 20.7693ZM7 16.7693H17V6.25H7V16.7693Z" fill="#666666"/>
</svg>
