<svg width="24" height="25" viewBox="0 0 24 25" xmlns="http://www.w3.org/2000/svg">
<path d="M11 21.231C9.12433 20.9873 7.57208 20.1611 6.34325 18.7522C5.11442 17.3432 4.5 15.6926 4.5 13.8002C4.5 12.7836 4.70067 11.8096 5.102 10.8782C5.50333 9.94673 6.0655 9.1284 6.7885 8.42323L7.85775 9.49249C7.24358 10.0528 6.78042 10.7032 6.46825 11.4435C6.15608 12.1838 6 12.9694 6 13.8002C6 15.2669 6.46825 16.5596 7.40475 17.6782C8.34125 18.7967 9.53967 19.481 11 19.731V21.231ZM13 21.2502V19.7502C14.4437 19.4579 15.6379 18.7582 16.5828 17.6512C17.5276 16.5442 18 15.2606 18 13.8002C18 12.1336 17.4167 10.7169 16.25 9.55024C15.0833 8.38357 13.6667 7.80024 12 7.80024H11.6463L12.9962 9.15024L11.9423 10.204L8.7885 7.05024L11.9423 3.89648L12.9962 4.95024L11.6463 6.30024H12C14.0923 6.30024 15.8654 7.02715 17.3193 8.48098C18.7731 9.93482 19.5 11.7079 19.5 13.8002C19.5 15.6822 18.884 17.3246 17.652 18.7272C16.4198 20.1297 14.8692 20.9707 13 21.2502Z" fill="current"/>
</svg>
