<svg width="24" height="25" viewBox="0 0 24 25" xmlns="http://www.w3.org/2000/svg">
<path d="M19 8.76172C19.2833 8.76172 19.5208 8.66589 19.7125 8.47422C19.9042 8.28255 20 8.04505 20 7.76172C20 7.47839 19.9042 7.24089 19.7125 7.04922C19.5208 6.85755 19.2833 6.76172 19 6.76172C18.7167 6.76172 18.4792 6.85755 18.2875 7.04922C18.0958 7.24089 18 7.47839 18 7.76172C18 8.04505 18.0958 8.28255 18.2875 8.47422C18.4792 8.66589 18.7167 8.76172 19 8.76172ZM18.9993 10.2617C18.2907 10.2617 17.6971 10.0224 17.2182 9.54372C16.7394 9.06489 16.5 8.47164 16.5 7.76397C16.5 7.07014 16.7394 6.47964 17.2182 5.99247C17.6969 5.5053 18.2901 5.26172 18.9977 5.26172C19.6916 5.26172 20.2821 5.50489 20.7693 5.99122C21.2564 6.47739 21.5 7.0678 21.5 7.76247C21.5 8.47097 21.2568 9.06464 20.7705 9.54347C20.2843 10.0223 19.6939 10.2617 18.9993 10.2617ZM12 7.76172C12.4167 7.76172 12.7708 7.62005 13.0625 7.33672C13.3542 7.05339 13.5 6.69505 13.5 6.26172C13.5 5.84505 13.3542 5.49089 13.0625 5.19922C12.7708 4.90755 12.4167 4.76172 12 4.76172C11.5667 4.76172 11.2083 4.90755 10.925 5.19922C10.6417 5.49089 10.5 5.84505 10.5 6.26172C10.5 6.69505 10.6417 7.05339 10.925 7.33672C11.2083 7.62005 11.5667 7.76172 12 7.76172ZM12.0005 9.26172C11.1578 9.26172 10.4471 8.97272 9.86825 8.39472C9.28942 7.81672 9 7.1068 9 6.26497C9 5.43714 9.289 4.72963 9.867 4.14247C10.445 3.5553 11.155 3.26172 11.997 3.26172C12.8247 3.26172 13.5321 3.55455 14.1193 4.14022C14.7064 4.72572 15 5.43272 15 6.26122C15 7.10388 14.7072 7.81464 14.1215 8.39347C13.536 8.9723 12.829 9.26172 12.0005 9.26172ZM7.73075 13.6367C7.73075 14.1881 8.00383 14.8099 8.55 15.5022C9.09617 16.1944 10.1853 17.2816 11.8173 18.7637L12 18.9272L12.202 18.7347C13.7687 17.3181 14.8382 16.2558 15.4105 15.548C15.983 14.8401 16.2693 14.2031 16.2693 13.6367C16.2693 13.1784 16.1183 12.7897 15.8165 12.4707C15.5148 12.1519 15.1427 11.9925 14.7 11.9925C14.4275 11.9925 14.1697 12.0521 13.9265 12.1712C13.6832 12.2906 13.4788 12.4547 13.3135 12.6637L12.2 13.9925H11.7848L10.6615 12.6637C10.4962 12.4547 10.2933 12.2906 10.053 12.1712C9.8125 12.0521 9.5615 11.9925 9.3 11.9925C8.83733 11.9925 8.46008 12.1519 8.16825 12.4707C7.87658 12.7897 7.73075 13.1784 7.73075 13.6367ZM6.23075 13.6367C6.23075 12.8176 6.51958 12.0887 7.09725 11.4502C7.67475 10.8117 8.409 10.4925 9.3 10.4925C9.80383 10.4925 10.2804 10.6091 10.7298 10.8425C11.1791 11.0758 11.5608 11.3861 11.875 11.7732L12 11.9175L12.125 11.7637C12.4455 11.3829 12.8263 11.0758 13.2673 10.8425C13.7083 10.6091 14.1858 10.4925 14.7 10.4925C15.5847 10.4925 16.3173 10.8146 16.898 11.459C17.4788 12.1035 17.7693 12.8294 17.7693 13.6367C17.7693 14.4687 17.4564 15.3027 16.8307 16.1387C16.2051 16.9746 14.9551 18.2496 13.0807 19.9637L12 20.954L10.9385 19.9925C9.018 18.2361 7.75325 16.9474 7.14425 16.1262C6.53525 15.3051 6.23075 14.4752 6.23075 13.6367ZM5 8.76172C5.28333 8.76172 5.52083 8.66589 5.7125 8.47422C5.90417 8.28255 6 8.04505 6 7.76172C6 7.47839 5.90417 7.24089 5.7125 7.04922C5.52083 6.85755 5.28333 6.76172 5 6.76172C4.71667 6.76172 4.47917 6.85755 4.2875 7.04922C4.09583 7.24089 4 7.47839 4 7.76172C4 8.04505 4.09583 8.28255 4.2875 8.47422C4.47917 8.66589 4.71667 8.76172 5 8.76172ZM12.075 21.7617V20.2617H20V13.5695C20 13.4861 19.9696 13.414 19.9088 13.353C19.8477 13.2921 19.7756 13.2617 19.6923 13.2617H17.0885V11.7617H19.6923C20.1894 11.7617 20.615 11.9387 20.969 12.2927C21.323 12.6467 21.5 13.0723 21.5 13.5695V20.8572C21.5 21.1154 21.4133 21.3306 21.24 21.503C21.0668 21.6755 20.8522 21.7617 20.596 21.7617H12.075ZM4 20.2617H12.075V21.7617H3.404C3.14783 21.7617 2.93317 21.6751 2.76 21.5017C2.58667 21.3286 2.5 21.1139 2.5 20.8577V13.5727C2.5 13.0719 2.67325 12.6448 3.01975 12.2915C3.36625 11.9383 3.79558 11.7617 4.30775 11.7617H6.9115V13.2617H4.30775C4.21792 13.2617 4.14417 13.2921 4.0865 13.353C4.02883 13.414 4 13.4861 4 13.5695V20.2617ZM4.99925 10.2617C4.29075 10.2617 3.69708 10.0224 3.21825 9.54372C2.73942 9.06489 2.5 8.47164 2.5 7.76397C2.5 7.07014 2.73942 6.47964 3.21825 5.99247C3.69692 5.5053 4.29008 5.26172 4.99775 5.26172C5.69158 5.26172 6.28208 5.50489 6.76925 5.99122C7.25642 6.47739 7.5 7.0678 7.5 7.76247C7.5 8.47097 7.25683 9.06464 6.7705 9.54347C6.28433 10.0223 5.69392 10.2617 4.99925 10.2617Z" fill="current"/>
</svg>
