<svg width="24" height="24" viewBox="0 0 24 24" xmlns="http://www.w3.org/2000/svg">
<path d="M18.8843 16.1045L17.7498 14.9393C18.4228 14.7559 18.9661 14.3954 19.3796 13.8575C19.7931 13.3197 19.9998 12.7008 19.9998 12.0008C19.9998 11.1611 19.705 10.4448 19.1153 9.85178C18.5255 9.25878 17.8139 8.96228 16.9806 8.96228H13.1728V7.46228H16.9806C18.2293 7.46228 19.2947 7.90495 20.1768 8.79028C21.0588 9.67545 21.4998 10.7456 21.4998 12.0008C21.4998 12.8866 21.262 13.6959 20.7863 14.4285C20.3107 15.1614 19.6767 15.72 18.8843 16.1045ZM15.5806 12.7508L14.0806 11.2508H15.7306V12.7508H15.5806ZM20.1461 22.2545L1.74609 3.85453L2.79984 2.80078L21.1998 21.2008L20.1461 22.2545ZM10.8268 16.5393H7.03834C5.78318 16.5393 4.71301 16.0966 3.82784 15.2113C2.94251 14.3261 2.49984 13.2559 2.49984 12.0008C2.49984 10.8893 2.85784 9.91395 3.57384 9.07478C4.28984 8.23578 5.18826 7.72911 6.26909 7.55478H6.49984L7.90759 8.96228H7.03834C6.19851 8.96228 5.48218 9.25878 4.88934 9.85178C4.29634 10.4448 3.99984 11.1611 3.99984 12.0008C3.99984 12.8404 4.29634 13.5568 4.88934 14.1498C5.48218 14.7428 6.19851 15.0393 7.03834 15.0393H10.8268V16.5393ZM8.26909 12.7508V11.2508H10.2113L11.6863 12.7508H8.26909Z" />
</svg>
