<svg width="24" height="24" viewBox="0 0 24 24" fill="none" xmlns="http://www.w3.org/2000/svg">
<path d="M11.9995 10.453L7.92652 14.5263C7.78802 14.6646 7.61394 14.7354 7.40427 14.7388C7.19477 14.7419 7.01752 14.6711 6.87252 14.5263C6.72769 14.3813 6.65527 14.2056 6.65527 13.9993C6.65527 13.7929 6.72769 13.6173 6.87252 13.4723L11.3668 8.97803C11.5476 8.79737 11.7585 8.70703 11.9995 8.70703C12.2405 8.70703 12.4514 8.79737 12.6323 8.97803L17.1265 13.4723C17.2649 13.6108 17.3357 13.7849 17.339 13.9945C17.3422 14.204 17.2714 14.3813 17.1265 14.5263C16.9815 14.6711 16.8059 14.7435 16.5995 14.7435C16.3932 14.7435 16.2175 14.6711 16.0725 14.5263L11.9995 10.453Z" fill="current"/>
</svg>
