<svg width="18" height="19" viewBox="0 0 18 19" fill="none" xmlns="http://www.w3.org/2000/svg">
<path d="M9 12.7531C9.17163 12.7531 9.3155 12.6951 9.43162 12.579C9.54775 12.4628 9.60581 12.319 9.60581 12.1473C9.60581 11.9757 9.54775 11.8318 9.43162 11.7157C9.3155 11.5997 9.17163 11.5417 9 11.5417C8.82838 11.5417 8.6845 11.5997 8.56838 11.7157C8.45225 11.8318 8.39419 11.9757 8.39419 12.1473C8.39419 12.319 8.45225 12.4628 8.56838 12.579C8.6845 12.6951 8.82838 12.7531 9 12.7531ZM8.4375 10.0128H9.5625V5.51283H8.4375V10.0128ZM9.00131 16.3301C8.01581 16.3301 7.0895 16.1431 6.22237 15.7691C5.35525 15.3951 4.601 14.8875 3.95963 14.2464C3.31825 13.6053 2.81044 12.8513 2.43619 11.9846C2.06206 11.1178 1.875 10.1918 1.875 9.20639C1.875 8.22089 2.062 7.29458 2.436 6.42745C2.81 5.56033 3.31756 4.80608 3.95869 4.1647C4.59981 3.52333 5.35375 3.01552 6.2205 2.64127C7.08725 2.26714 8.01331 2.08008 8.99869 2.08008C9.98419 2.08008 10.9105 2.26708 11.7776 2.64108C12.6448 3.01508 13.399 3.52264 14.0404 4.16377C14.6818 4.80489 15.1896 5.55883 15.5638 6.42558C15.9379 7.29233 16.125 8.21839 16.125 9.20377C16.125 10.1893 15.938 11.1156 15.564 11.9827C15.19 12.8498 14.6824 13.6041 14.0413 14.2455C13.4002 14.8868 12.6462 15.3946 11.7795 15.7689C10.9128 16.143 9.98669 16.3301 9.00131 16.3301ZM9 15.2051C10.675 15.2051 12.0938 14.6238 13.2563 13.4613C14.4188 12.2988 15 10.8801 15 9.20508C15 7.53008 14.4188 6.11133 13.2563 4.94883C12.0938 3.78633 10.675 3.20508 9 3.20508C7.325 3.20508 5.90625 3.78633 4.74375 4.94883C3.58125 6.11133 3 7.53008 3 9.20508C3 10.8801 3.58125 12.2988 4.74375 13.4613C5.90625 14.6238 7.325 15.2051 9 15.2051Z" fill="current"/>
</svg>
