<svg width="24" height="25" viewBox="0 0 24 25" xmlns="http://www.w3.org/2000/svg">
<path d="M4 19.2617V8.26172V18.954V18.853V19.2617ZM4.30775 20.7617C3.80258 20.7617 3.375 20.5867 3.025 20.2367C2.675 19.8867 2.5 19.4591 2.5 18.954V8.56947C2.5 8.0643 2.675 7.63672 3.025 7.28672C3.375 6.93672 3.80258 6.76172 4.30775 6.76172H8.5V5.06947C8.5 4.5643 8.675 4.13672 9.025 3.78672C9.375 3.43672 9.80258 3.26172 10.3078 3.26172H13.6923C14.1974 3.26172 14.625 3.43672 14.975 3.78672C15.325 4.13672 15.5 4.5643 15.5 5.06947V6.76172H19.6923C20.1974 6.76172 20.625 6.93672 20.975 7.28672C21.325 7.63672 21.5 8.0643 21.5 8.56947V11.829C21.5 12.0418 21.4282 12.2159 21.2845 12.3512C21.141 12.4864 20.9628 12.554 20.75 12.554C20.5372 12.554 20.359 12.4822 20.2155 12.3387C20.0718 12.1951 20 12.0168 20 11.804V8.56947C20 8.47964 19.9712 8.40589 19.9135 8.34822C19.8558 8.29055 19.7821 8.26172 19.6923 8.26172H4.30775C4.21792 8.26172 4.14417 8.29055 4.0865 8.34822C4.02883 8.40589 4 8.47964 4 8.56947V18.954C4 19.0438 4.02883 19.1176 4.0865 19.1752C4.14417 19.2329 4.21792 19.2617 4.30775 19.2617H11.154C11.3667 19.2617 11.5448 19.3336 11.6885 19.4772C11.8322 19.6207 11.904 19.7989 11.904 20.0117C11.904 20.2246 11.8322 20.4027 11.6885 20.5462C11.5448 20.6899 11.3667 20.7617 11.154 20.7617H4.30775ZM10 6.76172H14V5.06947C14 4.9798 13.9712 4.90605 13.9135 4.84822C13.8558 4.79055 13.7821 4.76172 13.6923 4.76172H10.3078C10.2179 4.76172 10.1442 4.79055 10.0865 4.84822C10.0288 4.90605 10 4.9798 10 5.06947V6.76172ZM18 22.7617C16.7513 22.7617 15.6892 22.3239 14.8135 21.4482C13.9378 20.5726 13.5 19.5104 13.5 18.2617C13.5 17.0131 13.9378 15.9509 14.8135 15.0752C15.6892 14.1996 16.7513 13.7617 18 13.7617C19.2487 13.7617 20.3108 14.1996 21.1865 15.0752C22.0622 15.9509 22.5 17.0131 22.5 18.2617C22.5 19.5104 22.0622 20.5726 21.1865 21.4482C20.3108 22.3239 19.2487 22.7617 18 22.7617ZM18.4423 18.081V15.7617C18.4423 15.6412 18.3987 15.5374 18.3115 15.4502C18.2243 15.3631 18.1205 15.3195 18 15.3195C17.8795 15.3195 17.7757 15.3631 17.6885 15.4502C17.6013 15.5374 17.5577 15.6412 17.5577 15.7617V18.0655C17.5577 18.186 17.5795 18.3007 17.623 18.4097C17.6667 18.5187 17.7353 18.6201 17.8288 18.7137L19.3385 20.2232C19.4257 20.3104 19.5279 20.3556 19.6453 20.3587C19.7626 20.3621 19.868 20.3169 19.9615 20.2232C20.0552 20.1297 20.102 20.0259 20.102 19.9117C20.102 19.7976 20.0552 19.6937 19.9615 19.6002L18.4423 18.081Z" fill="current"/>
</svg>
