<svg width="20" height="21" viewBox="0 0 20 21" xmlns="http://www.w3.org/2000/svg">
<path d="M16.5032 18.7853L14.3078 16.5899H3.75005V14.7372C3.75005 14.3292 3.86089 13.9512 4.08255 13.6035C4.30422 13.2557 4.60047 12.9883 4.9713 12.8014C5.64964 12.466 6.33311 12.2037 7.02172 12.0145C7.71033 11.8255 8.40401 11.701 9.10276 11.6412H9.23484C9.28026 11.6412 9.32436 11.6438 9.36714 11.6491L1.71484 3.997L2.60589 3.10596L17.3942 17.8943L16.5032 18.7853ZM15.2053 12.8895C15.453 13.0092 15.6496 13.1909 15.7948 13.4345C15.9401 13.678 16.0171 13.9408 16.0257 14.2228L14.3078 12.5049C14.4616 12.5648 14.6134 12.6246 14.763 12.6845C14.9124 12.7444 15.0598 12.8127 15.2053 12.8895ZM11.6169 9.75804L7.56901 5.71012C7.84568 5.29665 8.19637 4.97665 8.62109 4.75012C9.04582 4.5236 9.50547 4.41033 10.0001 4.41033C10.8045 4.41033 11.4917 4.69533 12.0617 5.26533C12.6317 5.83533 12.9167 6.52255 12.9167 7.327C12.9167 7.82172 12.8035 8.28137 12.5769 8.70596C12.3504 9.13068 12.0304 9.48137 11.6169 9.75804Z" fill="current"/>
</svg>
