<svg width="24" height="25" viewBox="0 0 24 25" xmlns="http://www.w3.org/2000/svg">
<path d="M17.8652 12.9925C18.0781 12.9925 18.2563 12.9206 18.4 12.777C18.5435 12.6335 18.6152 12.4553 18.6152 12.2425C18.6152 12.0296 18.5435 11.8515 18.4 11.708C18.2563 11.5643 18.0781 11.4925 17.8652 11.4925H14.827C14.6142 11.4925 14.4359 11.5643 14.2923 11.708C14.1488 11.8515 14.077 12.0296 14.077 12.2425C14.077 12.4553 14.1488 12.6335 14.2923 12.777C14.4359 12.9206 14.6142 12.9925 14.827 12.9925H17.8652ZM17.8652 10.108C18.0781 10.108 18.2563 10.0361 18.4 9.89247C18.5435 9.74897 18.6152 9.5708 18.6152 9.35797C18.6152 9.14513 18.5435 8.96689 18.4 8.82322C18.2563 8.67972 18.0781 8.60797 17.8652 8.60797H14.827C14.6142 8.60797 14.4359 8.67972 14.2923 8.82322C14.1488 8.96689 14.077 9.14513 14.077 9.35797C14.077 9.5708 14.1488 9.74897 14.2923 9.89247C14.4359 10.0361 14.6142 10.108 14.827 10.108H17.8652ZM9.0385 13.4155C8.46417 13.4155 7.96092 13.4616 7.52875 13.554C7.09675 13.6463 6.71342 13.7931 6.37875 13.9945C6.07375 14.1726 5.84242 14.372 5.68475 14.5925C5.52692 14.813 5.448 15.0495 5.448 15.302C5.448 15.4765 5.515 15.6223 5.649 15.7395C5.783 15.8568 5.94875 15.9155 6.14625 15.9155H11.9308C12.1283 15.9155 12.2939 15.8526 12.4277 15.727C12.5617 15.6015 12.6287 15.4464 12.6287 15.2617C12.6287 15.0361 12.5515 14.8171 12.397 14.605C12.2425 14.3928 12.0095 14.1893 11.698 13.9945C11.3635 13.7931 10.9802 13.6463 10.548 13.554C10.116 13.4616 9.61283 13.4155 9.0385 13.4155ZM9.0385 12.108C9.52433 12.108 9.93742 11.9377 10.2777 11.5972C10.6182 11.2569 10.7885 10.8438 10.7885 10.358C10.7885 9.87197 10.6182 9.4588 10.2777 9.11847C9.93742 8.77814 9.52433 8.60797 9.0385 8.60797C8.55267 8.60797 8.1395 8.77814 7.799 9.11847C7.45867 9.4588 7.2885 9.87197 7.2885 10.358C7.2885 10.8438 7.45867 11.2569 7.799 11.5972C8.1395 11.9377 8.55267 12.108 9.0385 12.108ZM4.30775 19.7617C3.80258 19.7617 3.375 19.5867 3.025 19.2367C2.675 18.8867 2.5 18.4591 2.5 17.954V6.56947C2.5 6.0643 2.675 5.63672 3.025 5.28672C3.375 4.93672 3.80258 4.76172 4.30775 4.76172H19.6923C20.1974 4.76172 20.625 4.93672 20.975 5.28672C21.325 5.63672 21.5 6.0643 21.5 6.56947V17.954C21.5 18.4591 21.325 18.8867 20.975 19.2367C20.625 19.5867 20.1974 19.7617 19.6923 19.7617H4.30775ZM4.30775 18.2617H19.6923C19.7693 18.2617 19.8398 18.2296 19.9038 18.1655C19.9679 18.1015 20 18.031 20 17.954V6.56947C20 6.49247 19.9679 6.42197 19.9038 6.35797C19.8398 6.2938 19.7693 6.26172 19.6923 6.26172H4.30775C4.23075 6.26172 4.16025 6.2938 4.09625 6.35797C4.03208 6.42197 4 6.49247 4 6.56947V17.954C4 18.031 4.03208 18.1015 4.09625 18.1655C4.16025 18.2296 4.23075 18.2617 4.30775 18.2617Z" fill="current"/>
</svg>
