<svg width="20" height="21" viewBox="0 0 20 21" xmlns="http://www.w3.org/2000/svg">
<path d="M15.1042 11.9583V9.45828H12.6042V8.20828H15.1042V5.70828H16.3542V8.20828H18.8542V9.45828H16.3542V11.9583H15.1042ZM7.5 10.2435C6.69792 10.2435 6.01132 9.95793 5.44021 9.38682C4.86896 8.81557 4.58333 8.12891 4.58333 7.32682C4.58333 6.52474 4.86896 5.83814 5.44021 5.26703C6.01132 4.69578 6.69792 4.41016 7.5 4.41016C8.30208 4.41016 8.98868 4.69578 9.55979 5.26703C10.131 5.83814 10.4167 6.52474 10.4167 7.32682C10.4167 8.12891 10.131 8.81557 9.55979 9.38682C8.98868 9.95793 8.30208 10.2435 7.5 10.2435ZM1.25 16.5897V14.737C1.25 14.329 1.36083 13.9511 1.5825 13.6033C1.80417 13.2555 2.10042 12.9881 2.47125 12.8012C3.29486 12.3974 4.12576 12.0946 4.96396 11.8927C5.80215 11.6907 6.6475 11.5897 7.5 11.5897C8.3525 11.5897 9.19785 11.6907 10.036 11.8927C10.8742 12.0946 11.7051 12.3974 12.5287 12.8012C12.8996 12.9881 13.1958 13.2555 13.4175 13.6033C13.6392 13.9511 13.75 14.329 13.75 14.737V16.5897H1.25Z" fill="current"/>
</svg>
