<svg width="24" height="25" viewBox="0 0 24 25" fill="none" xmlns="http://www.w3.org/2000/svg">
<path d="M12 17.0257C12.2288 17.0257 12.4207 16.9483 12.5755 16.7934C12.7303 16.6386 12.8077 16.4468 12.8077 16.2179C12.8077 15.9891 12.7303 15.7973 12.5755 15.6424C12.4207 15.4878 12.2288 15.4104 12 15.4104C11.7712 15.4104 11.5793 15.4878 11.4245 15.6424C11.2697 15.7973 11.1923 15.9891 11.1923 16.2179C11.1923 16.4468 11.2697 16.6386 11.4245 16.7934C11.5793 16.9483 11.7712 17.0257 12 17.0257ZM11.25 13.3719H12.75V7.37192H11.25V13.3719ZM12.0017 21.7949C10.6877 21.7949 9.45267 21.5456 8.2965 21.0469C7.14033 20.5483 6.13467 19.8715 5.2795 19.0167C4.42433 18.1618 3.74725 17.1566 3.24825 16.0009C2.74942 14.8453 2.5 13.6105 2.5 12.2967C2.5 10.9827 2.74933 9.74759 3.248 8.59142C3.74667 7.43526 4.42342 6.42959 5.27825 5.57442C6.13308 4.71926 7.13833 4.04217 8.294 3.54317C9.44967 3.04434 10.6844 2.79492 11.9983 2.79492C13.3123 2.79492 14.5473 3.04425 15.7035 3.54292C16.8597 4.04159 17.8653 4.71834 18.7205 5.57317C19.5757 6.42801 20.2528 7.43326 20.7518 8.58892C21.2506 9.74459 21.5 10.9793 21.5 12.2932C21.5 13.6072 21.2507 14.8423 20.752 15.9984C20.2533 17.1546 19.5766 18.1603 18.7218 19.0154C17.8669 19.8706 16.8617 20.5477 15.706 21.0467C14.5503 21.5455 13.3156 21.7949 12.0017 21.7949Z" fill="#E33131"/>
</svg>
