<svg width="30" height="30" viewBox="0 0 30 30" fill="none" xmlns="http://www.w3.org/2000/svg">
<path d="M0 15C0 6.71573 6.71573 0 15 0C23.2843 0 30 6.71573 30 15C30 23.2843 23.2843 30 15 30C6.71573 30 0 23.2843 0 15Z" fill="#E8F1F4" fill-opacity="0.4"/>
<path d="M14.9998 21.5625C14.8403 21.5625 14.7067 21.5086 14.5991 21.4007C14.4914 21.2929 14.4375 21.1594 14.4375 21V18C14.4375 17.8406 14.4914 17.7071 14.5993 17.5993C14.7072 17.4914 14.8408 17.4375 15.0002 17.4375C15.1597 17.4375 15.2933 17.4914 15.4009 17.5993C15.5086 17.7071 15.5625 17.8406 15.5625 18V18.9375H21C21.1594 18.9375 21.2929 18.9914 21.4007 19.0993C21.5086 19.2072 21.5625 19.3408 21.5625 19.5002C21.5625 19.6597 21.5086 19.7933 21.4007 19.9009C21.2929 20.0086 21.1594 20.0625 21 20.0625H15.5625V21C15.5625 21.1594 15.5086 21.2929 15.4007 21.4007C15.2928 21.5086 15.1592 21.5625 14.9998 21.5625ZM9 20.0625C8.84062 20.0625 8.70706 20.0086 8.59931 19.9007C8.49144 19.7928 8.4375 19.6592 8.4375 19.4998C8.4375 19.3403 8.49144 19.2067 8.59931 19.0991C8.70706 18.9914 8.84062 18.9375 9 18.9375H12C12.1594 18.9375 12.2929 18.9914 12.4007 19.0993C12.5086 19.2072 12.5625 19.3408 12.5625 19.5002C12.5625 19.6597 12.5086 19.7933 12.4007 19.9009C12.2929 20.0086 12.1594 20.0625 12 20.0625H9ZM11.9998 17.0625C11.8403 17.0625 11.7067 17.0086 11.5991 16.9007C11.4914 16.7929 11.4375 16.6594 11.4375 16.5V15.5625H9C8.84062 15.5625 8.70706 15.5086 8.59931 15.4007C8.49144 15.2928 8.4375 15.1592 8.4375 14.9998C8.4375 14.8403 8.49144 14.7067 8.59931 14.5991C8.70706 14.4914 8.84062 14.4375 9 14.4375H11.4375V13.5C11.4375 13.3406 11.4914 13.2071 11.5993 13.0993C11.7072 12.9914 11.8408 12.9375 12.0002 12.9375C12.1597 12.9375 12.2933 12.9914 12.4009 13.0993C12.5086 13.2071 12.5625 13.3406 12.5625 13.5V16.5C12.5625 16.6594 12.5086 16.7929 12.4007 16.9007C12.2928 17.0086 12.1592 17.0625 11.9998 17.0625ZM15 15.5625C14.8406 15.5625 14.7071 15.5086 14.5993 15.4007C14.4914 15.2928 14.4375 15.1592 14.4375 14.9998C14.4375 14.8403 14.4914 14.7067 14.5993 14.5991C14.7071 14.4914 14.8406 14.4375 15 14.4375H21C21.1594 14.4375 21.2929 14.4914 21.4007 14.5993C21.5086 14.7072 21.5625 14.8408 21.5625 15.0002C21.5625 15.1597 21.5086 15.2933 21.4007 15.4009C21.2929 15.5086 21.1594 15.5625 21 15.5625H15ZM17.9998 12.5625C17.8403 12.5625 17.7067 12.5086 17.5991 12.4007C17.4914 12.2929 17.4375 12.1594 17.4375 12V9C17.4375 8.84062 17.4914 8.70706 17.5993 8.59931C17.7072 8.49144 17.8408 8.4375 18.0002 8.4375C18.1597 8.4375 18.2933 8.49144 18.4009 8.59931C18.5086 8.70706 18.5625 8.84062 18.5625 9V9.9375H21C21.1594 9.9375 21.2929 9.99144 21.4007 10.0993C21.5086 10.2072 21.5625 10.3408 21.5625 10.5002C21.5625 10.6597 21.5086 10.7933 21.4007 10.9009C21.2929 11.0086 21.1594 11.0625 21 11.0625H18.5625V12C18.5625 12.1594 18.5086 12.2929 18.4007 12.4007C18.2928 12.5086 18.1592 12.5625 17.9998 12.5625ZM9 11.0625C8.84062 11.0625 8.70706 11.0086 8.59931 10.9007C8.49144 10.7928 8.4375 10.6592 8.4375 10.4998C8.4375 10.3403 8.49144 10.2067 8.59931 10.0991C8.70706 9.99137 8.84062 9.9375 9 9.9375H15C15.1594 9.9375 15.2929 9.99144 15.4007 10.0993C15.5086 10.2072 15.5625 10.3408 15.5625 10.5002C15.5625 10.6597 15.5086 10.7933 15.4007 10.9009C15.2929 11.0086 15.1594 11.0625 15 11.0625H9Z" fill="#666666"/>
</svg>
