<svg width="24" height="24" viewBox="0 0 24 24" fill="none" xmlns="http://www.w3.org/2000/svg">
<path d="M4.5 20.7308V15.5C4.5 14.9948 4.675 14.5673 5.025 14.2173C5.375 13.8673 5.80258 13.6923 6.30775 13.6923H17.6923C18.1974 13.6923 18.625 13.8673 18.975 14.2173C19.325 14.5673 19.5 14.9948 19.5 15.5V20.7308H4.5ZM6 17.2308H18V15.5C18 15.423 17.9679 15.3525 17.9038 15.2885C17.8398 15.2243 17.7692 15.1923 17.6923 15.1923H6.30775C6.23075 15.1923 6.16025 15.2243 6.09625 15.2885C6.03208 15.3525 6 15.423 6 15.5V17.2308ZM12 13.6923L7.5 7.48076V7.38477C7.5 6.13593 7.93783 5.07377 8.8135 4.19827C9.68917 3.3226 10.7513 2.88477 12 2.88477C13.2487 2.88477 14.3108 3.3226 15.1865 4.19827C16.0622 5.07377 16.5 6.13593 16.5 7.38477V7.48076L12 13.6923ZM12 11.5173L15 7.38477C15 6.55143 14.7083 5.8431 14.125 5.25977C13.5417 4.67643 12.8333 4.38477 12 4.38477C11.1667 4.38477 10.4583 4.67643 9.875 5.25977C9.29167 5.8431 9 6.55143 9 7.38477L12 11.5173Z" fill="#666666"/>
</svg>
