<svg width="24" height="25" viewBox="0 0 24 25" xmlns="http://www.w3.org/2000/svg">
<path d="M7 13.7617V20.2617C7 20.4742 6.92808 20.6523 6.78425 20.796C6.64042 20.9398 6.46225 21.0117 6.24975 21.0117C6.03708 21.0117 5.859 20.9398 5.7155 20.796C5.57183 20.6523 5.5 20.4742 5.5 20.2617V5.66572C5.5 5.40955 5.58667 5.19489 5.76 5.02172C5.93317 4.84839 6.14783 4.76172 6.404 4.76172H12.848C13.0615 4.76172 13.2521 4.82872 13.4197 4.96272C13.5872 5.09672 13.6928 5.27072 13.7365 5.48472L13.996 6.76172H18.596C18.8522 6.76172 19.0668 6.84797 19.24 7.02047C19.4133 7.19297 19.5 7.40672 19.5 7.66172V14.862C19.5 15.117 19.4133 15.3306 19.24 15.503C19.0668 15.6755 18.8522 15.7617 18.596 15.7617H14.152C13.9385 15.7617 13.7479 15.6947 13.5803 15.5607C13.4128 15.4267 13.3072 15.2527 13.2635 15.0387L13.004 13.7617H7ZM14.65 14.2617H18V8.26172H13.498C13.2847 8.26172 13.0942 8.19472 12.9265 8.06072C12.7588 7.92672 12.6532 7.75272 12.6095 7.53872L12.35 6.26172H7V12.2617H13.502C13.7153 12.2617 13.9058 12.3287 14.0735 12.4627C14.2412 12.5967 14.3468 12.7707 14.3905 12.9847L14.65 14.2617Z" fill="current"/>
</svg>
