<svg width="24" height="25" viewBox="0 0 24 25" xmlns="http://www.w3.org/2000/svg">
<path d="M18.9557 21.7809L16.375 19.2154V19.5694H2.89425C2.47242 19.5694 2.11375 19.4217 1.81825 19.1262C1.52275 18.8305 1.375 18.4718 1.375 18.0502V17.3462C1.375 16.8565 1.508 16.403 1.774 15.9857C2.04 15.5683 2.3955 15.2475 2.8405 15.0232C3.82883 14.5387 4.82592 14.1752 5.83175 13.9329C6.83758 13.6906 7.852 13.5694 8.875 13.5694C9.22633 13.5694 9.57508 13.588 9.92125 13.6252C10.2674 13.6623 10.6142 13.7213 10.9615 13.8022L9.10375 11.9444C9.07042 11.9507 9.03392 11.9539 8.99425 11.9539H8.875C7.9125 11.9539 7.08858 11.6112 6.40325 10.9259C5.71775 10.2404 5.375 9.41641 5.375 8.45391V8.33466C5.375 8.29499 5.37825 8.25849 5.38475 8.22516L2.3405 5.18091C2.19167 5.03224 2.11825 4.85566 2.12025 4.65116C2.12208 4.44666 2.20058 4.26682 2.35575 4.11166C2.51092 3.95649 2.68917 3.87891 2.8905 3.87891C3.09167 3.87891 3.26983 3.95649 3.425 4.11166L20.025 20.7272C20.1737 20.8758 20.2496 21.0498 20.2528 21.2492C20.2561 21.4485 20.1802 21.6257 20.025 21.7809C19.8698 21.9361 19.6916 22.0137 19.4902 22.0137C19.2891 22.0137 19.1109 21.9361 18.9557 21.7809ZM18.125 11.0117H15.875C15.6625 11.0117 15.4844 10.9397 15.3408 10.7959C15.1969 10.6521 15.125 10.4739 15.125 10.2614C15.125 10.0487 15.1969 9.87066 15.3408 9.72716C15.4844 9.58349 15.6625 9.51166 15.875 9.51166H18.125V7.26166C18.125 7.04916 18.1969 6.87107 18.3407 6.72741C18.4846 6.58357 18.6628 6.51166 18.8752 6.51166C19.0879 6.51166 19.266 6.58357 19.4095 6.72741C19.5532 6.87107 19.625 7.04916 19.625 7.26166V9.51166H21.875C22.0875 9.51166 22.2656 9.58357 22.4093 9.72741C22.5531 9.87124 22.625 10.0494 22.625 10.2619C22.625 10.4746 22.5531 10.6527 22.4093 10.7962C22.2656 10.9398 22.0875 11.0117 21.875 11.0117H19.625V13.2617C19.625 13.4742 19.5531 13.6522 19.4093 13.7959C19.2654 13.9397 19.0872 14.0117 18.8748 14.0117C18.6621 14.0117 18.484 13.9397 18.3405 13.7959C18.1968 13.6522 18.125 13.4742 18.125 13.2617V11.0117ZM12.052 9.90391L10.8558 8.70791C10.8621 8.66557 10.8669 8.62324 10.8702 8.58091C10.8734 8.53857 10.875 8.49624 10.875 8.45391C10.875 7.90391 10.6792 7.43307 10.2875 7.04141C9.89583 6.64974 9.425 6.45391 8.875 6.45391C8.83267 6.45391 8.79033 6.45557 8.748 6.45891C8.70567 6.46207 8.66342 6.46682 8.62125 6.47316L7.425 5.27716C7.643 5.16949 7.87558 5.08874 8.12275 5.03491C8.36992 4.98091 8.62067 4.95391 8.875 4.95391C9.8375 4.95391 10.6614 5.29666 11.3468 5.98216C12.0323 6.66749 12.375 7.49141 12.375 8.45391C12.375 8.70824 12.3481 8.95899 12.2942 9.20616C12.2404 9.45349 12.1597 9.68607 12.052 9.90391ZM2.875 18.0694H14.875L12.9943 15.8347C12.3289 15.5795 11.6488 15.3882 10.9537 15.2607C10.2589 15.1332 9.566 15.0694 8.875 15.0694C7.96333 15.0694 7.05975 15.1787 6.16425 15.3972C5.26892 15.6158 4.39042 15.9373 3.52875 16.3617C3.32758 16.4707 3.16833 16.6113 3.051 16.7837C2.93367 16.9562 2.875 17.1437 2.875 17.3462V18.0694Z" fill="current"/>
</svg>
