<svg width="19" height="19" viewBox="0 0 19 19" xmlns="http://www.w3.org/2000/svg">
<g clip-path="url(#clip0_1276_27467)">
<path d="M4.66792 15.782C4.1863 15.782 3.78367 15.6202 3.46005 15.2966C3.13642 14.973 2.97461 14.5703 2.97461 14.0887V4.46284C2.97461 3.98122 3.13642 3.57859 3.46005 3.25497C3.78367 2.93134 4.1863 2.76953 4.66792 2.76953H14.3313C14.8129 2.76953 15.2155 2.93134 15.5392 3.25497C15.8628 3.57859 16.0246 3.98122 16.0246 4.46284V8.14366C16.0246 8.34428 15.9532 8.51628 15.8105 8.65966C15.6677 8.80316 15.4966 8.87491 15.2971 8.87491C15.0975 8.87491 14.9251 8.80316 14.78 8.65966C14.6347 8.51628 14.5621 8.34428 14.5621 8.14366V4.46284C14.5621 4.40509 14.538 4.35222 14.4899 4.30422C14.4419 4.25609 14.389 4.23203 14.3313 4.23203H4.66792C4.61017 4.23203 4.5573 4.25609 4.5093 4.30422C4.46117 4.35222 4.43711 4.40509 4.43711 4.46284V14.0887C4.43711 14.1465 4.46117 14.1993 4.5093 14.2473C4.5573 14.2955 4.61017 14.3195 4.66792 14.3195H7.84248C8.04311 14.3195 8.21511 14.3909 8.35849 14.5337C8.50199 14.6764 8.57374 14.8475 8.57374 15.047C8.57374 15.2467 8.50199 15.419 8.35849 15.5642C8.21511 15.7094 8.04311 15.782 7.84248 15.782H4.66792ZM4.43711 14.247V14.3195V4.23203V8.91241V8.85616V14.247ZM5.78711 12.2793C5.78711 12.4788 5.85886 12.6512 6.00236 12.7965C6.14574 12.9416 6.31773 13.0142 6.51836 13.0142H7.9938C8.19442 13.0142 8.36649 12.9428 8.50998 12.8002C8.65336 12.6575 8.72505 12.4863 8.72505 12.2867C8.72505 12.0872 8.65336 11.9148 8.50998 11.7695C8.36649 11.6244 8.19442 11.5518 7.9938 11.5518H6.51836C6.31773 11.5518 6.14574 11.6232 6.00236 11.7658C5.85886 11.9085 5.78711 12.0797 5.78711 12.2793ZM5.78711 9.27203C5.78711 9.47166 5.85886 9.64403 6.00236 9.78916C6.14574 9.93441 6.31773 10.007 6.51836 10.007H10.4112C10.6119 10.007 10.7839 9.93566 10.9272 9.79291C11.0707 9.65016 11.1425 9.47903 11.1425 9.27953C11.1425 9.07991 11.0707 8.90753 10.9272 8.76241C10.7839 8.61716 10.6119 8.54453 10.4112 8.54453H6.51836C6.31773 8.54453 6.14574 8.61591 6.00236 8.75866C5.85886 8.90141 5.78711 9.07253 5.78711 9.27203ZM5.78711 6.26491C5.78711 6.46441 5.85886 6.63678 6.00236 6.78203C6.14574 6.92716 6.31773 6.99972 6.51836 6.99972H12.4809C12.6815 6.99972 12.8535 6.92841 12.9969 6.78578C13.1404 6.64303 13.2121 6.47184 13.2121 6.27222C13.2121 6.07272 13.1404 5.90034 12.9969 5.75509C12.8535 5.60997 12.6815 5.53741 12.4809 5.53741H6.51836C6.31773 5.53741 6.14574 5.60872 6.00236 5.75134C5.85886 5.89409 5.78711 6.06528 5.78711 6.26491ZM13.9953 18.0378C12.9539 18.0378 12.0693 17.6725 11.3414 16.9417C10.6135 16.2111 10.2496 15.325 10.2496 14.2835C10.2496 13.2422 10.615 12.3575 11.3457 11.6297C12.0764 10.9018 12.9624 10.5378 14.0039 10.5378C15.0453 10.5378 15.9299 10.9032 16.6578 11.6338C17.3857 12.3645 17.7496 13.2506 17.7496 14.292C17.7496 15.3335 17.3842 16.2182 16.6535 16.946C15.9229 17.6739 15.0368 18.0378 13.9953 18.0378ZM13.9996 14.2878C14.3246 14.2878 14.5965 14.1785 14.8152 13.9597C15.034 13.741 15.1434 13.4691 15.1434 13.1441C15.1434 12.8191 15.034 12.5472 14.8152 12.3285C14.5965 12.1097 14.3246 12.0003 13.9996 12.0003C13.6746 12.0003 13.4027 12.1097 13.184 12.3285C12.9652 12.5472 12.8559 12.8191 12.8559 13.1441C12.8559 13.4691 12.9652 13.741 13.184 13.9597C13.4027 14.1785 13.6746 14.2878 13.9996 14.2878ZM13.9996 16.5753C14.3074 16.5753 14.6172 16.5042 14.9292 16.3618C15.2412 16.2195 15.5035 16.0311 15.716 15.7965C15.7939 15.7262 15.8097 15.644 15.7636 15.5499C15.7174 15.4557 15.6452 15.3946 15.5472 15.3667C15.2876 15.2965 15.0272 15.232 14.7661 15.1734C14.5051 15.1148 14.2496 15.0855 13.9996 15.0855C13.7496 15.0855 13.4972 15.1136 13.2425 15.1698C12.9876 15.2261 12.7241 15.2917 12.452 15.3667C12.354 15.3993 12.2819 15.4585 12.2356 15.5441C12.1895 15.6296 12.2054 15.7137 12.2832 15.7965C12.4957 16.0436 12.758 16.2352 13.07 16.3712C13.382 16.5073 13.6919 16.5753 13.9996 16.5753Z" fill="current"/>
</g>
<defs>
<clipPath id="clip0_1276_27467">
<rect width="18" height="18" fill="current" transform="translate(0.5 0.238281)"/>
</clipPath>
</defs>
</svg>
