<svg width="21" height="21" viewBox="0 0 21 21" xmlns="http://www.w3.org/2000/svg">
<path d="M5.5 16.5844C5.12982 16.5844 4.81292 16.4526 4.54929 16.189C4.28568 15.9254 4.15387 15.6085 4.15387 15.2383C4.15387 14.8681 4.28568 14.5512 4.54929 14.2876C4.81292 14.024 5.12982 13.8922 5.5 13.8922C5.87018 13.8922 6.18708 14.024 6.45071 14.2876C6.71432 14.5512 6.84612 14.8681 6.84612 15.2383C6.84612 15.6085 6.71432 15.9254 6.45071 16.189C6.18708 16.4526 5.87018 16.5844 5.5 16.5844ZM10.5 16.5844C10.1298 16.5844 9.81292 16.4526 9.54929 16.189C9.28568 15.9254 9.15387 15.6085 9.15387 15.2383C9.15387 14.8681 9.28568 14.5512 9.54929 14.2876C9.81292 14.024 10.1298 13.8922 10.5 13.8922C10.8702 13.8922 11.1871 14.024 11.4507 14.2876C11.7143 14.5512 11.8461 14.8681 11.8461 15.2383C11.8461 15.6085 11.7143 15.9254 11.4507 16.189C11.1871 16.4526 10.8702 16.5844 10.5 16.5844ZM15.5 16.5844C15.1298 16.5844 14.8129 16.4526 14.5493 16.189C14.2857 15.9254 14.1539 15.6085 14.1539 15.2383C14.1539 14.8681 14.2857 14.5512 14.5493 14.2876C14.8129 14.024 15.1298 13.8922 15.5 13.8922C15.8702 13.8922 16.1871 14.024 16.4507 14.2876C16.7143 14.5512 16.8461 14.8681 16.8461 15.2383C16.8461 15.6085 16.7143 15.9254 16.4507 16.189C16.1871 16.4526 15.8702 16.5844 15.5 16.5844ZM5.5 11.5844C5.12982 11.5844 4.81292 11.4526 4.54929 11.189C4.28568 10.9254 4.15387 10.6085 4.15387 10.2383C4.15387 9.8681 4.28568 9.5512 4.54929 9.28757C4.81292 9.02396 5.12982 8.89216 5.5 8.89216C5.87018 8.89216 6.18708 9.02396 6.45071 9.28757C6.71432 9.5512 6.84612 9.8681 6.84612 10.2383C6.84612 10.6085 6.71432 10.9254 6.45071 11.189C6.18708 11.4526 5.87018 11.5844 5.5 11.5844ZM10.5 11.5844C10.1298 11.5844 9.81292 11.4526 9.54929 11.189C9.28568 10.9254 9.15387 10.6085 9.15387 10.2383C9.15387 9.8681 9.28568 9.5512 9.54929 9.28757C9.81292 9.02396 10.1298 8.89216 10.5 8.89216C10.8702 8.89216 11.1871 9.02396 11.4507 9.28757C11.7143 9.5512 11.8461 9.8681 11.8461 10.2383C11.8461 10.6085 11.7143 10.9254 11.4507 11.189C11.1871 11.4526 10.8702 11.5844 10.5 11.5844ZM15.5 11.5844C15.1298 11.5844 14.8129 11.4526 14.5493 11.189C14.2857 10.9254 14.1539 10.6085 14.1539 10.2383C14.1539 9.8681 14.2857 9.5512 14.5493 9.28757C14.8129 9.02396 15.1298 8.89216 15.5 8.89216C15.8702 8.89216 16.1871 9.02396 16.4507 9.28757C16.7143 9.5512 16.8461 9.8681 16.8461 10.2383C16.8461 10.6085 16.7143 10.9254 16.4507 11.189C16.1871 11.4526 15.8702 11.5844 15.5 11.5844ZM5.5 6.58441C5.12982 6.58441 4.81292 6.4526 4.54929 6.18899C4.28568 5.92536 4.15387 5.60846 4.15387 5.23828C4.15387 4.8681 4.28568 4.5512 4.54929 4.28757C4.81292 4.02396 5.12982 3.89216 5.5 3.89216C5.87018 3.89216 6.18708 4.02396 6.45071 4.28757C6.71432 4.5512 6.84612 4.8681 6.84612 5.23828C6.84612 5.60846 6.71432 5.92536 6.45071 6.18899C6.18708 6.4526 5.87018 6.58441 5.5 6.58441ZM10.5 6.58441C10.1298 6.58441 9.81292 6.4526 9.54929 6.18899C9.28568 5.92536 9.15387 5.60846 9.15387 5.23828C9.15387 4.8681 9.28568 4.5512 9.54929 4.28757C9.81292 4.02396 10.1298 3.89216 10.5 3.89216C10.8702 3.89216 11.1871 4.02396 11.4507 4.28757C11.7143 4.5512 11.8461 4.8681 11.8461 5.23828C11.8461 5.60846 11.7143 5.92536 11.4507 6.18899C11.1871 6.4526 10.8702 6.58441 10.5 6.58441ZM15.5 6.58441C15.1298 6.58441 14.8129 6.4526 14.5493 6.18899C14.2857 5.92536 14.1539 5.60846 14.1539 5.23828C14.1539 4.8681 14.2857 4.5512 14.5493 4.28757C14.8129 4.02396 15.1298 3.89216 15.5 3.89216C15.8702 3.89216 16.1871 4.02396 16.4507 4.28757C16.7143 4.5512 16.8461 4.8681 16.8461 5.23828C16.8461 5.60846 16.7143 5.92536 16.4507 6.18899C16.1871 6.4526 15.8702 6.58441 15.5 6.58441Z" fill="current"/>
</svg>
