<svg width="19" height="19" viewBox="0 0 19 19" xmlns="http://www.w3.org/2000/svg">
<path d="M15.0746 9.97328C15.1046 9.73328 15.1271 9.49328 15.1271 9.23828C15.1271 8.98328 15.1046 8.74328 15.0746 8.50328L16.6571 7.26578C16.7996 7.15328 16.8371 6.95078 16.7471 6.78578L15.2471 4.19078C15.1796 4.07078 15.0521 4.00328 14.9171 4.00328C14.8721 4.00328 14.8271 4.01078 14.7896 4.02578L12.9221 4.77578C12.5321 4.47578 12.1121 4.22828 11.6546 4.04078L11.3696 2.05328C11.3471 1.87328 11.1896 1.73828 11.0021 1.73828H8.00208C7.81458 1.73828 7.65708 1.87328 7.63458 2.05328L7.34958 4.04078C6.89208 4.22828 6.47208 4.48328 6.08208 4.77578L4.21458 4.02578C4.16958 4.01078 4.12458 4.00328 4.07958 4.00328C3.95208 4.00328 3.82458 4.07078 3.75708 4.19078L2.25708 6.78578C2.15958 6.95078 2.20458 7.15328 2.34708 7.26578L3.92958 8.50328C3.89958 8.74328 3.87708 8.99078 3.87708 9.23828C3.87708 9.48578 3.89958 9.73328 3.92958 9.97328L2.34708 11.2108C2.20458 11.3233 2.16708 11.5258 2.25708 11.6908L3.75708 14.2858C3.82458 14.4058 3.95208 14.4733 4.08708 14.4733C4.13208 14.4733 4.17708 14.4658 4.21458 14.4508L6.08208 13.7008C6.47208 14.0008 6.89208 14.2483 7.34958 14.4358L7.63458 16.4233C7.65708 16.6033 7.81458 16.7383 8.00208 16.7383H11.0021C11.1896 16.7383 11.3471 16.6033 11.3696 16.4233L11.6546 14.4358C12.1121 14.2483 12.5321 13.9933 12.9221 13.7008L14.7896 14.4508C14.8346 14.4658 14.8796 14.4733 14.9246 14.4733C15.0521 14.4733 15.1796 14.4058 15.2471 14.2858L16.7471 11.6908C16.8371 11.5258 16.7996 11.3233 16.6571 11.2108L15.0746 9.97328ZM13.5896 8.69078C13.6196 8.92328 13.6271 9.08078 13.6271 9.23828C13.6271 9.39578 13.6121 9.56078 13.5896 9.78578L13.4846 10.6333L14.1521 11.1583L14.9621 11.7883L14.4371 12.6958L13.4846 12.3133L12.7046 11.9983L12.0296 12.5083C11.7071 12.7483 11.3996 12.9283 11.0921 13.0558L10.2971 13.3783L10.1771 14.2258L10.0271 15.2383H8.97708L8.71458 13.3783L7.91958 13.0558C7.59708 12.9208 7.29708 12.7483 6.99708 12.5233L6.31458 11.9983L5.51958 12.3208L4.56708 12.7033L4.04208 11.7958L4.85208 11.1658L5.51958 10.6408L5.41458 9.79328C5.39208 9.56078 5.37708 9.38828 5.37708 9.23828C5.37708 9.08828 5.39208 8.91578 5.41458 8.69078L5.51958 7.84328L4.85208 7.31828L4.04208 6.68828L4.56708 5.78078L5.51958 6.16328L6.29958 6.47828L6.97458 5.96828C7.29708 5.72828 7.60458 5.54828 7.91208 5.42078L8.70708 5.09828L8.82708 4.25078L8.97708 3.23828H10.0196L10.2821 5.09828L11.0771 5.42078C11.3996 5.55578 11.6996 5.72828 11.9996 5.95328L12.6821 6.47828L13.4771 6.15578L14.4296 5.77328L14.9546 6.68078L14.1521 7.31828L13.4846 7.84328L13.5896 8.69078ZM9.50208 6.23828C7.84458 6.23828 6.50208 7.58078 6.50208 9.23828C6.50208 10.8958 7.84458 12.2383 9.50208 12.2383C11.1596 12.2383 12.5021 10.8958 12.5021 9.23828C12.5021 7.58078 11.1596 6.23828 9.50208 6.23828ZM9.50208 10.7383C8.67708 10.7383 8.00208 10.0633 8.00208 9.23828C8.00208 8.41328 8.67708 7.73828 9.50208 7.73828C10.3271 7.73828 11.0021 8.41328 11.0021 9.23828C11.0021 10.0633 10.3271 10.7383 9.50208 10.7383Z" fill="current"/>
</svg>
