<svg width="24" height="24" viewBox="0 0 24 24" fill="none" xmlns="http://www.w3.org/2000/svg">
<g id="diversity_4_24dp_000_FILL0_wght300_GRAD0_opsz24 1">
<path id="Vector" d="M19 8.5C19.2833 8.5 19.5208 8.40417 19.7125 8.2125C19.9042 8.02083 20 7.78333 20 7.5C20 7.21667 19.9042 6.97917 19.7125 6.7875C19.5208 6.59583 19.2833 6.5 19 6.5C18.7167 6.5 18.4792 6.59583 18.2875 6.7875C18.0958 6.97917 18 7.21667 18 7.5C18 7.78333 18.0958 8.02083 18.2875 8.2125C18.4792 8.40417 18.7167 8.5 19 8.5ZM18.9993 10C18.2907 10 17.6971 9.76067 17.2182 9.282C16.7394 8.80317 16.5 8.20992 16.5 7.50225C16.5 6.80842 16.7394 6.21792 17.2182 5.73075C17.6969 5.24358 18.2901 5 18.9977 5C19.6916 5 20.2821 5.24317 20.7693 5.7295C21.2564 6.21567 21.5 6.80608 21.5 7.50075C21.5 8.20925 21.2568 8.80292 20.7705 9.28175C20.2843 9.76058 19.6939 10 18.9993 10ZM12 7.5C12.4167 7.5 12.7708 7.35833 13.0625 7.075C13.3542 6.79167 13.5 6.43333 13.5 6C13.5 5.58333 13.3542 5.22917 13.0625 4.9375C12.7708 4.64583 12.4167 4.5 12 4.5C11.5667 4.5 11.2083 4.64583 10.925 4.9375C10.6417 5.22917 10.5 5.58333 10.5 6C10.5 6.43333 10.6417 6.79167 10.925 7.075C11.2083 7.35833 11.5667 7.5 12 7.5ZM12.0005 9C11.1578 9 10.4471 8.711 9.86825 8.133C9.28942 7.555 9 6.84508 9 6.00325C9 5.17542 9.289 4.46792 9.867 3.88075C10.445 3.29358 11.155 3 11.997 3C12.8247 3 13.5321 3.29283 14.1193 3.8785C14.7064 4.464 15 5.171 15 5.9995C15 6.84217 14.7072 7.55292 14.1215 8.13175C13.536 8.71058 12.829 9 12.0005 9ZM7.73075 13.375C7.73075 13.9263 8.00383 14.5482 8.55 15.2405C9.09617 15.9327 10.1853 17.0198 11.8173 18.502L12 18.6655L12.202 18.473C13.7687 17.0563 14.8382 15.9941 15.4105 15.2863C15.983 14.5784 16.2693 13.9413 16.2693 13.375C16.2693 12.9167 16.1183 12.528 15.8165 12.209C15.5148 11.8902 15.1427 11.7308 14.7 11.7308C14.4275 11.7308 14.1697 11.7903 13.9265 11.9095C13.6832 12.0288 13.4788 12.193 13.3135 12.402L12.2 13.7308H11.7848L10.6615 12.402C10.4962 12.193 10.2933 12.0288 10.053 11.9095C9.8125 11.7903 9.5615 11.7308 9.3 11.7308C8.83733 11.7308 8.46008 11.8902 8.16825 12.209C7.87658 12.528 7.73075 12.9167 7.73075 13.375ZM6.23075 13.375C6.23075 12.5558 6.51958 11.827 7.09725 11.1885C7.67475 10.55 8.409 10.2307 9.3 10.2307C9.80383 10.2307 10.2804 10.3474 10.7298 10.5807C11.1791 10.8141 11.5608 11.1243 11.875 11.5115L12 11.6558L12.125 11.502C12.4455 11.1212 12.8263 10.8141 13.2673 10.5807C13.7083 10.3474 14.1858 10.2307 14.7 10.2307C15.5847 10.2307 16.3173 10.5529 16.898 11.1973C17.4788 11.8418 17.7693 12.5677 17.7693 13.375C17.7693 14.207 17.4564 15.041 16.8307 15.877C16.2051 16.7128 14.9551 17.9878 13.0807 19.702L12 20.6923L10.9385 19.7307C9.018 17.9744 7.75325 16.6857 7.14425 15.8645C6.53525 15.0433 6.23075 14.2135 6.23075 13.375ZM5 8.5C5.28333 8.5 5.52083 8.40417 5.7125 8.2125C5.90417 8.02083 6 7.78333 6 7.5C6 7.21667 5.90417 6.97917 5.7125 6.7875C5.52083 6.59583 5.28333 6.5 5 6.5C4.71667 6.5 4.47917 6.59583 4.2875 6.7875C4.09583 6.97917 4 7.21667 4 7.5C4 7.78333 4.09583 8.02083 4.2875 8.2125C4.47917 8.40417 4.71667 8.5 5 8.5ZM12.075 21.5V20H20V13.3077C20 13.2244 19.9696 13.1523 19.9088 13.0913C19.8477 13.0304 19.7756 13 19.6923 13H17.0885V11.5H19.6923C20.1894 11.5 20.615 11.677 20.969 12.031C21.323 12.385 21.5 12.8106 21.5 13.3077V20.5955C21.5 20.8537 21.4133 21.0689 21.24 21.2413C21.0668 21.4138 20.8522 21.5 20.596 21.5H12.075ZM4 20H12.075V21.5H3.404C3.14783 21.5 2.93317 21.4133 2.76 21.24C2.58667 21.0668 2.5 20.8522 2.5 20.596V13.311C2.5 12.8102 2.67325 12.3831 3.01975 12.0297C3.36625 11.6766 3.79558 11.5 4.30775 11.5H6.9115V13H4.30775C4.21792 13 4.14417 13.0304 4.0865 13.0913C4.02883 13.1523 4 13.2244 4 13.3077V20ZM4.99925 10C4.29075 10 3.69708 9.76067 3.21825 9.282C2.73942 8.80317 2.5 8.20992 2.5 7.50225C2.5 6.80842 2.73942 6.21792 3.21825 5.73075C3.69692 5.24358 4.29008 5 4.99775 5C5.69158 5 6.28208 5.24317 6.76925 5.7295C7.25642 6.21567 7.5 6.80608 7.5 7.50075C7.5 8.20925 7.25683 8.80292 6.7705 9.28175C6.28433 9.76058 5.69392 10 4.99925 10Z" fill="white"/>
</g>
</svg>
