<svg width="24" height="24" viewBox="0 0 24 24" fill="none" xmlns="http://www.w3.org/2000/svg">
<g id="flag_24dp_000_FILL0_wght300_GRAD0_opsz24 1">
<path id="Vector" d="M7 13.5V20C7 20.2125 6.92808 20.3906 6.78425 20.5343C6.64042 20.6781 6.46225 20.75 6.24975 20.75C6.03708 20.75 5.859 20.6781 5.7155 20.5343C5.57183 20.3906 5.5 20.2125 5.5 20V5.404C5.5 5.14783 5.58667 4.93317 5.76 4.76C5.93317 4.58667 6.14783 4.5 6.404 4.5H12.848C13.0615 4.5 13.2521 4.567 13.4197 4.701C13.5872 4.835 13.6928 5.009 13.7365 5.223L13.996 6.5H18.596C18.8522 6.5 19.0668 6.58625 19.24 6.75875C19.4133 6.93125 19.5 7.145 19.5 7.4V14.6003C19.5 14.8553 19.4133 15.0689 19.24 15.2413C19.0668 15.4137 18.8522 15.5 18.596 15.5H14.152C13.9385 15.5 13.7479 15.433 13.5803 15.299C13.4128 15.165 13.3072 14.991 13.2635 14.777L13.004 13.5H7ZM14.65 14H18V8H13.498C13.2847 8 13.0942 7.933 12.9265 7.799C12.7588 7.665 12.6532 7.491 12.6095 7.277L12.35 6H7V12H13.502C13.7153 12 13.9058 12.067 14.0735 12.201C14.2412 12.335 14.3468 12.509 14.3905 12.723L14.65 14Z" fill="white"/>
</g>
</svg>
