<svg width="24" height="24" viewBox="0 0 24 24" fill="none" xmlns="http://www.w3.org/2000/svg">
<g id="globe_book_24dp_000_FILL0_wght300_GRAD0_opsz24 1">
<path id="Vector" d="M12 3.5C13.1858 3.5 14.2958 3.7205 15.3298 4.1615C16.3638 4.6025 17.2667 5.20892 18.0385 5.98075C18.4295 6.37175 18.7769 6.7945 19.0807 7.249C19.3846 7.7035 19.6467 8.18458 19.8673 8.69225C20.1006 9.24225 20.2708 9.81058 20.3778 10.3973C20.4849 10.9838 20.5321 11.5738 20.5193 12.1673C20.5193 12.3801 20.4382 12.5608 20.276 12.7095C20.1138 12.8583 19.9263 12.9327 19.7135 12.9327C19.5108 12.9327 19.3428 12.8609 19.2095 12.7172C19.0762 12.5738 19.0128 12.3956 19.0193 12.1827C19.0321 11.9519 19.0327 11.7227 19.0212 11.4953C19.0096 11.2676 18.9775 11.0416 18.925 10.8173H15.6193C15.6423 11.0481 15.657 11.2757 15.6635 11.5C15.6698 11.7243 15.6698 11.9519 15.6635 12.1827C15.6635 12.3956 15.5875 12.5738 15.4355 12.7172C15.2837 12.8609 15.1013 12.9327 14.8885 12.9327C14.6757 12.9327 14.5016 12.8609 14.3663 12.7172C14.2311 12.5738 14.1635 12.3956 14.1635 12.1827C14.1635 11.9519 14.1593 11.7243 14.151 11.5C14.1427 11.2757 14.1269 11.0481 14.1038 10.8173H9.9115C9.8885 11.0481 9.87283 11.2757 9.8645 11.5C9.85617 11.7243 9.852 11.9519 9.852 12.1827C9.852 12.3956 9.78433 12.5738 9.649 12.7172C9.51383 12.8609 9.33983 12.9327 9.127 12.9327C8.91417 12.9327 8.73175 12.8609 8.57975 12.7172C8.42792 12.5738 8.352 12.3956 8.352 12.1827C8.3455 11.9519 8.3455 11.7243 8.352 11.5C8.35833 11.2757 8.37308 11.0481 8.39625 10.8173H5.1C5.05383 11.0481 5.02342 11.2757 5.00875 11.5C4.99392 11.7243 4.99292 11.9519 5.00575 12.1827C5.01225 12.3956 4.94717 12.5738 4.8105 12.7172C4.674 12.8609 4.50767 12.9327 4.3115 12.9327C4.09867 12.9327 3.91117 12.8609 3.749 12.7172C3.58683 12.5738 3.50575 12.3956 3.50575 12.1827C3.49292 11.5891 3.54008 10.9964 3.64725 10.4048C3.75425 9.81308 3.92442 9.24225 4.15775 8.69225C4.37825 8.18458 4.64042 7.7035 4.94425 7.249C5.24808 6.7945 5.5955 6.37175 5.9865 5.98075C6.75833 5.20892 7.65708 4.6025 8.68275 4.1615C9.70842 3.7205 10.8142 3.5 12 3.5ZM5.54625 9.31725H8.5635C8.716 8.42108 8.92592 7.64708 9.19325 6.99525C9.46058 6.34325 9.77825 5.78392 10.1463 5.31725C9.11542 5.55325 8.19167 6.02508 7.375 6.73275C6.55833 7.44042 5.94875 8.30192 5.54625 9.31725ZM10.1192 9.31725H13.8807C13.7269 8.54292 13.5026 7.79325 13.2078 7.06825C12.9129 6.34325 12.5103 5.68592 12 5.09625C11.4897 5.69242 11.0862 6.35133 10.7895 7.073C10.4927 7.79483 10.2692 8.54292 10.1192 9.31725ZM15.452 9.31725H18.4788C18.0763 8.29542 17.4577 7.43225 16.623 6.72775C15.7883 6.02342 14.8524 5.55325 13.8152 5.31725C14.1961 5.81092 14.5259 6.38333 14.8048 7.0345C15.0836 7.68583 15.2993 8.44675 15.452 9.31725ZM12 20.5C11.7872 20.5 11.609 20.4282 11.4655 20.2845C11.3218 20.141 11.25 19.9628 11.25 19.75C11.25 18.9295 10.9439 18.2035 10.3317 17.572C9.71958 16.9407 8.97758 16.625 8.10575 16.625H3.25C3.03717 16.625 2.859 16.5532 2.7155 16.4095C2.57183 16.266 2.5 16.0878 2.5 15.875C2.5 15.6622 2.57183 15.484 2.7155 15.3405C2.859 15.1968 3.03717 15.125 3.25 15.125H8.10575C8.91225 15.125 9.6565 15.3144 10.3385 15.6933C11.0205 16.0721 11.5743 16.5943 12 17.2598C12.4257 16.5943 12.9795 16.0721 13.6615 15.6933C14.3435 15.3144 15.0845 15.125 15.8845 15.125H20.75C20.9628 15.125 21.141 15.1968 21.2845 15.3405C21.4282 15.484 21.5 15.6622 21.5 15.875C21.5 16.0878 21.4282 16.266 21.2845 16.4095C21.141 16.5532 20.9628 16.625 20.75 16.625H15.8845C15.0128 16.625 14.2725 16.9407 13.6635 17.572C13.0545 18.2035 12.75 18.9295 12.75 19.75C12.75 19.9628 12.6782 20.141 12.5345 20.2845C12.391 20.4282 12.2128 20.5 12 20.5Z" fill="white"/>
</g>
</svg>
