<svg width="24" height="24" viewBox="0 0 24 24" fill="none" xmlns="http://www.w3.org/2000/svg">
<g id="history_edu_24dp_000_FILL0_wght300_GRAD0_opsz24 1">
<path id="Vector" d="M8.11542 19.3846C7.70292 19.3846 7.34976 19.2377 7.05592 18.9441C6.76226 18.6502 6.61542 18.2971 6.61542 17.8846V16.2886C6.61542 16.0324 6.70201 15.8177 6.87517 15.6446C7.04851 15.4714 7.26317 15.3848 7.51917 15.3848H9.49992V12.6346C8.97426 12.6719 8.43676 12.6191 7.88742 12.4761C7.33809 12.3331 6.86084 12.0802 6.45567 11.7173C6.36167 11.6265 6.28717 11.5243 6.23217 11.4108C6.17734 11.2973 6.14992 11.1771 6.14992 11.0501V10.1923H5.24217C5.12451 10.1923 5.01051 10.1706 4.90017 10.1271C4.78984 10.0834 4.68817 10.0152 4.59517 9.92233L2.50542 7.83257C2.31976 7.64674 2.23167 7.43016 2.24117 7.18282C2.25084 6.93532 2.35251 6.72441 2.54617 6.55007C3.02951 6.13724 3.63142 5.83274 4.35192 5.63658C5.07242 5.44041 5.75509 5.34232 6.39992 5.34232C6.94542 5.34232 7.47567 5.40457 7.99067 5.52907C8.50584 5.65341 9.00892 5.85849 9.49992 6.14433V5.96158C9.49992 5.56491 9.63792 5.22857 9.91392 4.95257C10.1899 4.67657 10.5263 4.53857 10.9229 4.53857H18.6967C19.1923 4.53857 19.6168 4.71558 19.9702 5.06958C20.3233 5.42358 20.4999 5.84916 20.4999 6.34632V16.8846C20.4999 17.5834 20.2579 18.1747 19.7739 18.6586C19.2899 19.1426 18.6986 19.3846 17.9999 19.3846H8.11542ZM10.9999 15.3848H16.1154C16.3603 15.3848 16.5688 15.471 16.7412 15.6433C16.9137 15.8158 16.9999 16.0245 16.9999 16.2693V16.8846C16.9999 17.1679 17.0958 17.4054 17.2874 17.5971C17.4791 17.7887 17.7166 17.8846 17.9999 17.8846C18.2833 17.8846 18.5208 17.7887 18.7124 17.5971C18.9041 17.4054 18.9999 17.1679 18.9999 16.8846V6.34632C18.9999 6.25649 18.9711 6.18274 18.9134 6.12507C18.8558 6.06741 18.782 6.03857 18.6922 6.03857H11.3077C11.2178 6.03857 11.1441 6.06741 11.0864 6.12507C11.0288 6.18274 10.9999 6.25649 10.9999 6.34632V7.13857L16.5422 12.6808C16.6567 12.793 16.7267 12.9207 16.7522 13.0641C16.7775 13.2072 16.7588 13.3483 16.6962 13.4873C16.6333 13.6265 16.5453 13.7371 16.4322 13.8191C16.3192 13.9012 16.1747 13.9423 15.9987 13.9423C15.8982 13.9423 15.8011 13.9207 15.7074 13.8773C15.6136 13.834 15.5354 13.7813 15.4729 13.7193L12.7499 10.9963L12.3672 11.3788C12.1532 11.593 11.9346 11.7789 11.7114 11.9366C11.4884 12.0942 11.2513 12.2231 10.9999 12.3231V15.3848ZM5.50367 8.69233H6.74617C7.00217 8.69233 7.21684 8.77899 7.39017 8.95233C7.56334 9.12549 7.64992 9.34016 7.64992 9.59632V10.7463C7.92042 10.9182 8.18326 11.0354 8.43842 11.0981C8.69359 11.1609 8.94876 11.1923 9.20392 11.1923C9.62309 11.1923 10.0028 11.1244 10.3432 10.9886C10.6835 10.8527 11.0101 10.6284 11.3229 10.3156L11.6962 9.94233L10.1229 8.36933C9.61392 7.86033 9.04342 7.47858 8.41142 7.22408C7.77942 6.96958 7.10892 6.84232 6.39992 6.84232C5.98959 6.84232 5.59442 6.88657 5.21442 6.97507C4.83426 7.06357 4.47809 7.18349 4.14592 7.33483L5.50367 8.69233ZM15.4999 16.8846H8.11542V17.8846H15.7269C15.6449 17.7411 15.5866 17.5849 15.5519 17.4161C15.5173 17.2474 15.4999 17.0702 15.4999 16.8846Z" fill="white"/>
</g>
</svg>
