<svg width="24" height="24" viewBox="0 0 24 24" fill="none" xmlns="http://www.w3.org/2000/svg">
<g id="license_24dp_000_FILL0_wght300_GRAD0_opsz24 1">
<path id="Vector" d="M12 12.5C11.3013 12.5 10.71 12.258 10.226 11.774C9.742 11.29 9.5 10.6987 9.5 10C9.5 9.30133 9.742 8.71 10.226 8.226C10.71 7.742 11.3013 7.5 12 7.5C12.6987 7.5 13.29 7.742 13.774 8.226C14.258 8.71 14.5 9.30133 14.5 10C14.5 10.6987 14.258 11.29 13.774 11.774C13.29 12.258 12.6987 12.5 12 12.5ZM12 20.4807L7.68075 21.848C7.38592 21.9518 7.11542 21.9125 6.86925 21.73C6.62308 21.5475 6.5 21.3042 6.5 21V15.073C5.86667 14.4115 5.375 13.6461 5.025 12.7768C4.675 11.9076 4.5 10.982 4.5 10C4.5 7.90633 5.22642 6.13292 6.67925 4.67975C8.13208 3.22658 9.90517 2.5 11.9985 2.5C14.0918 2.5 15.8654 3.22658 17.3193 4.67975C18.7731 6.13292 19.5 7.90633 19.5 10C19.5 10.982 19.325 11.9076 18.975 12.7768C18.625 13.6461 18.1333 14.4115 17.5 15.073V21C17.5 21.3042 17.3769 21.5475 17.1307 21.73C16.8846 21.9125 16.6141 21.9518 16.3193 21.848L12 20.4807ZM12 16C13.6667 16 15.0833 15.4167 16.25 14.25C17.4167 13.0833 18 11.6667 18 10C18 8.33333 17.4167 6.91667 16.25 5.75C15.0833 4.58333 13.6667 4 12 4C10.3333 4 8.91667 4.58333 7.75 5.75C6.58333 6.91667 6 8.33333 6 10C6 11.6667 6.58333 13.0833 7.75 14.25C8.91667 15.4167 10.3333 16 12 16ZM8 20.0345L12 18.9615L16 20.0345V16.3193C15.4295 16.6911 14.8044 16.9808 14.1248 17.1885C13.4452 17.3962 12.7363 17.5 11.998 17.5C11.2597 17.5 10.5513 17.3962 9.873 17.1885C9.19483 16.9808 8.5705 16.6911 8 16.3193V20.0345Z" fill="white"/>
</g>
</svg>
