<svg width="24" height="24" viewBox="0 0 24 24" fill="none" xmlns="http://www.w3.org/2000/svg">
<g id="military_tech_24dp_000_FILL0_wght300_GRAD0_opsz24 1">
<path id="Vector" d="M11.9999 19.1116L10.3999 20.3288C10.2191 20.466 10.0399 20.4702 9.86239 20.3413C9.68489 20.2125 9.63139 20.041 9.70189 19.8268L10.3306 17.8346L8.75564 16.7173C8.57497 16.5968 8.52147 16.4312 8.59514 16.2203C8.66881 16.0093 8.81272 15.9038 9.02689 15.9038H10.9346L11.6536 13.5653L8.18064 11.5231C7.86781 11.3397 7.62489 11.0933 7.45189 10.7838C7.27872 10.4742 7.19214 10.1308 7.19214 9.75383V4.09632C7.19214 3.59749 7.36881 3.17149 7.72214 2.81832C8.07531 2.46516 8.50122 2.28857 8.99989 2.28857H14.9999C15.4986 2.28857 15.9245 2.46516 16.2776 2.81832C16.631 3.17149 16.8076 3.59749 16.8076 4.09632V9.75383C16.8076 10.1243 16.7179 10.4612 16.5384 10.7646C16.3589 11.0677 16.1127 11.3142 15.7999 11.5038L12.3461 13.5653L13.0651 15.9038H14.9729C15.1871 15.9038 15.331 16.0093 15.4046 16.2203C15.4783 16.4312 15.4248 16.5968 15.2441 16.7173L13.6691 17.8346L14.2979 19.8268C14.3684 20.041 14.3149 20.2125 14.1374 20.3413C13.9599 20.4702 13.7807 20.466 13.5999 20.3288L11.9999 19.1116ZM8.69214 4.09632V9.75383C8.69214 9.84999 8.71622 9.93816 8.76439 10.0183C8.81239 10.0985 8.87806 10.1642 8.96139 10.2156L11.2499 11.5693V3.78857H8.99989C8.91006 3.78857 8.83631 3.81741 8.77864 3.87507C8.72097 3.93274 8.69214 4.00649 8.69214 4.09632ZM14.9999 3.78857H12.7499V11.5693L15.0384 10.2156C15.1217 10.1642 15.1874 10.0985 15.2354 10.0183C15.2836 9.93816 15.3076 9.84999 15.3076 9.75383V4.09632C15.3076 4.00649 15.2788 3.93274 15.2211 3.87507C15.1635 3.81741 15.0897 3.78857 14.9999 3.78857Z" fill="white"/>
</g>
</svg>
