<svg width="24" height="24" viewBox="0 0 24 24" fill="none" xmlns="http://www.w3.org/2000/svg">
<g id="person_add_disabled_24dp_000_FILL0_wght300_GRAD0_opsz24 1">
<path id="Vector" d="M18.9557 21.5192L16.375 18.9537V19.3077H2.89425C2.47242 19.3077 2.11375 19.1599 1.81825 18.8644C1.52275 18.5688 1.375 18.2101 1.375 17.7884V17.0844C1.375 16.5948 1.508 16.1413 1.774 15.7239C2.04 15.3066 2.3955 14.9858 2.8405 14.7614C3.82883 14.2769 4.82592 13.9135 5.83175 13.6712C6.83758 13.4289 7.852 13.3077 8.875 13.3077C9.22633 13.3077 9.57508 13.3263 9.92125 13.3634C10.2674 13.4006 10.6142 13.4596 10.9615 13.5404L9.10375 11.6827C9.07042 11.689 9.03392 11.6922 8.99425 11.6922H8.875C7.9125 11.6922 7.08858 11.3495 6.40325 10.6642C5.71775 9.97869 5.375 9.15469 5.375 8.19219V8.07294C5.375 8.03327 5.37825 7.99677 5.38475 7.96344L2.3405 4.91919C2.19167 4.77052 2.11825 4.59394 2.12025 4.38944C2.12208 4.18494 2.20058 4.0051 2.35575 3.84994C2.51092 3.69477 2.68917 3.61719 2.8905 3.61719C3.09167 3.61719 3.26983 3.69477 3.425 3.84994L20.025 20.4654C20.1737 20.6141 20.2496 20.7881 20.2528 20.9874C20.2561 21.1868 20.1802 21.364 20.025 21.5192C19.8698 21.6744 19.6916 21.7519 19.4902 21.7519C19.2891 21.7519 19.1109 21.6744 18.9557 21.5192ZM18.125 10.7499H15.875C15.6625 10.7499 15.4844 10.678 15.3408 10.5342C15.1969 10.3904 15.125 10.2122 15.125 9.99969C15.125 9.78702 15.1969 9.60894 15.3408 9.46544C15.4844 9.32177 15.6625 9.24994 15.875 9.24994H18.125V6.99994C18.125 6.78744 18.1969 6.60935 18.3407 6.46569C18.4846 6.32185 18.6628 6.24994 18.8752 6.24994C19.0879 6.24994 19.266 6.32185 19.4095 6.46569C19.5532 6.60935 19.625 6.78744 19.625 6.99994V9.24994H21.875C22.0875 9.24994 22.2656 9.32185 22.4093 9.46569C22.5531 9.60952 22.625 9.78769 22.625 10.0002C22.625 10.2129 22.5531 10.3909 22.4093 10.5344C22.2656 10.6781 22.0875 10.7499 21.875 10.7499H19.625V12.9999C19.625 13.2124 19.5531 13.3905 19.4093 13.5342C19.2654 13.678 19.0872 13.7499 18.8748 13.7499C18.6621 13.7499 18.484 13.678 18.3405 13.5342C18.1968 13.3905 18.125 13.2124 18.125 12.9999V10.7499ZM12.052 9.64219L10.8558 8.44619C10.8621 8.40385 10.8669 8.36152 10.8702 8.31919C10.8734 8.27685 10.875 8.23452 10.875 8.19219C10.875 7.64219 10.6792 7.17135 10.2875 6.77969C9.89583 6.38802 9.425 6.19219 8.875 6.19219C8.83267 6.19219 8.79033 6.19385 8.748 6.19719C8.70567 6.20035 8.66342 6.2051 8.62125 6.21144L7.425 5.01544C7.643 4.90777 7.87558 4.82702 8.12275 4.77319C8.36992 4.71919 8.62067 4.69219 8.875 4.69219C9.8375 4.69219 10.6614 5.03494 11.3468 5.72044C12.0323 6.40577 12.375 7.22969 12.375 8.19219C12.375 8.44652 12.3481 8.69727 12.2942 8.94444C12.2404 9.19177 12.1597 9.42435 12.052 9.64219ZM2.875 17.8077H14.875L12.9943 15.5729C12.3289 15.3178 11.6488 15.1264 10.9537 14.9989C10.2589 14.8714 9.566 14.8077 8.875 14.8077C7.96333 14.8077 7.05975 14.9169 6.16425 15.1354C5.26892 15.3541 4.39042 15.6756 3.52875 16.0999C3.32758 16.2089 3.16833 16.3496 3.051 16.5219C2.93367 16.6944 2.875 16.8819 2.875 17.0844V17.8077Z" fill="white"/>
</g>
</svg>
