<svg width="24" height="24" viewBox="0 0 24 24" fill="none" xmlns="http://www.w3.org/2000/svg">
<g id="school_24dp_AAC1F0_FILL0_wght300_GRAD0_opsz24 1">
<path id="Vector" d="M6.44435 16.8325C6.14952 16.6685 5.91843 16.4472 5.7511 16.1685C5.58377 15.8898 5.5001 15.5773 5.5001 15.2308V10.8923L3.5041 9.78851C3.33993 9.69485 3.21943 9.58093 3.1426 9.44676C3.0656 9.31276 3.0271 9.16376 3.0271 8.99976C3.0271 8.83576 3.0656 8.68685 3.1426 8.55301C3.21943 8.41901 3.33993 8.30518 3.5041 8.21151L11.1391 4.05151C11.2746 3.97618 11.4142 3.92085 11.5578 3.88551C11.7015 3.85035 11.8489 3.83276 12.0001 3.83276C12.1513 3.83276 12.2987 3.85035 12.4423 3.88551C12.586 3.92085 12.7258 3.9761 12.8616 4.05126L21.4846 8.74426C21.6384 8.8276 21.7564 8.94026 21.8386 9.08226C21.9206 9.22443 21.9616 9.37776 21.9616 9.54226V15.4423C21.9616 15.6548 21.8897 15.8329 21.7458 15.9768C21.602 16.1204 21.4238 16.1923 21.2113 16.1923C20.9987 16.1923 20.8206 16.1204 20.6771 15.9768C20.5334 15.8329 20.4616 15.6548 20.4616 15.4423V9.83076L18.5001 10.8923V15.2308C18.5001 15.5773 18.4164 15.8898 18.2491 16.1685C18.0818 16.4472 17.8507 16.6685 17.5558 16.8325L12.8636 19.3693C12.7264 19.4461 12.586 19.5022 12.4423 19.5375C12.2987 19.5727 12.1513 19.5903 12.0001 19.5903C11.8489 19.5903 11.7015 19.5727 11.5578 19.5375C11.4142 19.5022 11.2738 19.4461 11.1366 19.3693L6.44435 16.8325ZM11.8846 12.6423C11.9296 12.6679 11.9697 12.6808 12.0048 12.6808C12.0402 12.6808 12.0803 12.6679 12.1251 12.6423L18.8406 9.00001L12.1251 5.36726C12.0803 5.3416 12.0402 5.32876 12.0048 5.32876C11.9697 5.32876 11.9296 5.3416 11.8846 5.36726L5.1596 9.00001L11.8846 12.6423ZM11.8751 18.071C11.9199 18.0967 11.9616 18.1095 12.0001 18.1095C12.0386 18.1095 12.0803 18.0967 12.1251 18.071L16.8558 15.5153C16.9072 15.4833 16.944 15.4464 16.9663 15.4048C16.9888 15.3631 17.0001 15.3102 17.0001 15.246V11.6923L12.8788 13.9558C12.7417 14.0326 12.5994 14.0887 12.4521 14.124C12.3046 14.1593 12.1539 14.177 12.0001 14.177C11.8463 14.177 11.6956 14.1593 11.5481 14.124C11.4008 14.0887 11.2585 14.0326 11.1214 13.9558L7.0001 11.6923V15.246C7.0001 15.2973 7.01135 15.3471 7.03385 15.3953C7.05618 15.4433 7.09302 15.4833 7.14435 15.5153L11.8751 18.071Z" fill="white"/>
</g>
</svg>
