<svg width="18" height="18" viewBox="0 0 18 18" fill="none" xmlns="http://www.w3.org/2000/svg">
<g id="tune_24dp_000_FILL0_wght300_GRAD0_opsz24 1">
<path id="Vector" d="M8.99981 15.5625C8.84031 15.5625 8.70675 15.5086 8.59913 15.4007C8.49137 15.2929 8.4375 15.1594 8.4375 15V12C8.4375 11.8406 8.49144 11.7071 8.59931 11.5993C8.70719 11.4914 8.84081 11.4375 9.00019 11.4375C9.15969 11.4375 9.29325 11.4914 9.40088 11.5993C9.50863 11.7071 9.5625 11.8406 9.5625 12V12.9375H15C15.1594 12.9375 15.2929 12.9914 15.4007 13.0993C15.5086 13.2072 15.5625 13.3408 15.5625 13.5002C15.5625 13.6597 15.5086 13.7933 15.4007 13.9009C15.2929 14.0086 15.1594 14.0625 15 14.0625H9.5625V15C9.5625 15.1594 9.50856 15.2929 9.40069 15.4007C9.29281 15.5086 9.15919 15.5625 8.99981 15.5625ZM3 14.0625C2.84063 14.0625 2.70706 14.0086 2.59931 13.9007C2.49144 13.7928 2.4375 13.6592 2.4375 13.4998C2.4375 13.3403 2.49144 13.2067 2.59931 13.0991C2.70706 12.9914 2.84063 12.9375 3 12.9375H6C6.15938 12.9375 6.29294 12.9914 6.40069 13.0993C6.50856 13.2072 6.5625 13.3408 6.5625 13.5002C6.5625 13.6597 6.50856 13.7933 6.40069 13.9009C6.29294 14.0086 6.15938 14.0625 6 14.0625H3ZM5.99981 11.0625C5.84031 11.0625 5.70675 11.0086 5.59913 10.9007C5.49137 10.7929 5.4375 10.6594 5.4375 10.5V9.5625H3C2.84063 9.5625 2.70706 9.50856 2.59931 9.40069C2.49144 9.29281 2.4375 9.15919 2.4375 8.99981C2.4375 8.84031 2.49144 8.70675 2.59931 8.59913C2.70706 8.49137 2.84063 8.4375 3 8.4375H5.4375V7.5C5.4375 7.34063 5.49144 7.20706 5.59931 7.09931C5.70719 6.99144 5.84081 6.9375 6.00019 6.9375C6.15969 6.9375 6.29325 6.99144 6.40088 7.09931C6.50863 7.20706 6.5625 7.34063 6.5625 7.5V10.5C6.5625 10.6594 6.50856 10.7929 6.40069 10.9007C6.29281 11.0086 6.15919 11.0625 5.99981 11.0625ZM9 9.5625C8.84063 9.5625 8.70706 9.50856 8.59931 9.40069C8.49144 9.29281 8.4375 9.15919 8.4375 8.99981C8.4375 8.84031 8.49144 8.70675 8.59931 8.59913C8.70706 8.49137 8.84063 8.4375 9 8.4375H15C15.1594 8.4375 15.2929 8.49144 15.4007 8.59931C15.5086 8.70719 15.5625 8.84081 15.5625 9.00019C15.5625 9.15969 15.5086 9.29325 15.4007 9.40088C15.2929 9.50863 15.1594 9.5625 15 9.5625H9ZM11.9998 6.5625C11.8403 6.5625 11.7067 6.50856 11.5991 6.40069C11.4914 6.29294 11.4375 6.15938 11.4375 6V3C11.4375 2.84063 11.4914 2.70706 11.5993 2.59931C11.7072 2.49144 11.8408 2.4375 12.0002 2.4375C12.1597 2.4375 12.2933 2.49144 12.4009 2.59931C12.5086 2.70706 12.5625 2.84063 12.5625 3V3.9375H15C15.1594 3.9375 15.2929 3.99144 15.4007 4.09931C15.5086 4.20719 15.5625 4.34081 15.5625 4.50019C15.5625 4.65969 15.5086 4.79325 15.4007 4.90088C15.2929 5.00863 15.1594 5.0625 15 5.0625H12.5625V6C12.5625 6.15938 12.5086 6.29294 12.4007 6.40069C12.2928 6.50856 12.1592 6.5625 11.9998 6.5625ZM3 5.0625C2.84063 5.0625 2.70706 5.00856 2.59931 4.90069C2.49144 4.79281 2.4375 4.65919 2.4375 4.49981C2.4375 4.34031 2.49144 4.20675 2.59931 4.09913C2.70706 3.99137 2.84063 3.9375 3 3.9375H9C9.15938 3.9375 9.29294 3.99144 9.40069 4.09931C9.50856 4.20719 9.5625 4.34081 9.5625 4.50019C9.5625 4.65969 9.50856 4.79325 9.40069 4.90088C9.29294 5.00863 9.15938 5.0625 9 5.0625H3Z" fill="#666666"/>
</g>
</svg>
