<svg width="24" height="24" viewBox="0 0 24 24" fill="none" xmlns="http://www.w3.org/2000/svg">
<g id="work_history_24dp_000_FILL0_wght300_GRAD0_opsz24 1">
<path id="Vector" d="M4 19V8V18.6923V18.5913V19ZM4.30775 20.5C3.80258 20.5 3.375 20.325 3.025 19.975C2.675 19.625 2.5 19.1974 2.5 18.6923V8.30775C2.5 7.80258 2.675 7.375 3.025 7.025C3.375 6.675 3.80258 6.5 4.30775 6.5H8.5V4.80775C8.5 4.30258 8.675 3.875 9.025 3.525C9.375 3.175 9.80258 3 10.3078 3H13.6923C14.1974 3 14.625 3.175 14.975 3.525C15.325 3.875 15.5 4.30258 15.5 4.80775V6.5H19.6923C20.1974 6.5 20.625 6.675 20.975 7.025C21.325 7.375 21.5 7.80258 21.5 8.30775V11.5673C21.5 11.7801 21.4282 11.9542 21.2845 12.0895C21.141 12.2247 20.9628 12.2923 20.75 12.2923C20.5372 12.2923 20.359 12.2205 20.2155 12.077C20.0718 11.9333 20 11.7551 20 11.5423V8.30775C20 8.21792 19.9712 8.14417 19.9135 8.0865C19.8558 8.02883 19.7821 8 19.6923 8H4.30775C4.21792 8 4.14417 8.02883 4.0865 8.0865C4.02883 8.14417 4 8.21792 4 8.30775V18.6923C4 18.7821 4.02883 18.8558 4.0865 18.9135C4.14417 18.9712 4.21792 19 4.30775 19H11.154C11.3667 19 11.5448 19.0718 11.6885 19.2155C11.8322 19.359 11.904 19.5372 11.904 19.75C11.904 19.9628 11.8322 20.141 11.6885 20.2845C11.5448 20.4282 11.3667 20.5 11.154 20.5H4.30775ZM10 6.5H14V4.80775C14 4.71808 13.9712 4.64433 13.9135 4.5865C13.8558 4.52883 13.7821 4.5 13.6923 4.5H10.3078C10.2179 4.5 10.1442 4.52883 10.0865 4.5865C10.0288 4.64433 10 4.71808 10 4.80775V6.5ZM18 22.5C16.7513 22.5 15.6892 22.0622 14.8135 21.1865C13.9378 20.3108 13.5 19.2487 13.5 18C13.5 16.7513 13.9378 15.6892 14.8135 14.8135C15.6892 13.9378 16.7513 13.5 18 13.5C19.2487 13.5 20.3108 13.9378 21.1865 14.8135C22.0622 15.6892 22.5 16.7513 22.5 18C22.5 19.2487 22.0622 20.3108 21.1865 21.1865C20.3108 22.0622 19.2487 22.5 18 22.5ZM18.4423 17.8193V15.5C18.4423 15.3795 18.3987 15.2757 18.3115 15.1885C18.2243 15.1013 18.1205 15.0577 18 15.0577C17.8795 15.0577 17.7757 15.1013 17.6885 15.1885C17.6013 15.2757 17.5577 15.3795 17.5577 15.5V17.8038C17.5577 17.9243 17.5795 18.039 17.623 18.148C17.6667 18.257 17.7353 18.3583 17.8288 18.452L19.3385 19.9615C19.4257 20.0487 19.5279 20.0938 19.6453 20.097C19.7626 20.1003 19.868 20.0552 19.9615 19.9615C20.0552 19.868 20.102 19.7642 20.102 19.65C20.102 19.5358 20.0552 19.432 19.9615 19.3385L18.4423 17.8193Z" fill="white"/>
</g>
</svg>
